STARTFONT 2.1
COMMENT
COMMENT Converted from OpenType font "Q:\font stuff\winfont\Commador Normal.ttf" by "otf2bdf 3.0".
COMMENT
FONT -FreeType-Commador-Medium-R-Normal--221-1600-100-100-P-684-ISO10646-1
SIZE 160 100 100
FONTBOUNDINGBOX 376 300 -7 -52
STARTPROPERTIES 19
FOUNDRY "FreeType"
FAMILY_NAME "Commador"
WEIGHT_NAME "Medium"
SLANT "R"
SETWIDTH_NAME "Normal"
ADD_STYLE_NAME ""
PIXEL_SIZE 221
POINT_SIZE 1600
RESOLUTION_X 100
RESOLUTION_Y 100
SPACING "P"
AVERAGE_WIDTH 684
CHARSET_REGISTRY "ISO10646"
CHARSET_ENCODING "1"
FONT_ASCENT 247
FONT_DESCENT 52
COPYRIGHT "Copyright 1994 Bay Animation Inc. All Rights Reserved."
_OTF_FONTFILE "Q:\font stuff\winfont\Commador Normal.ttf"
_OTF_PSNAME "CommadorNormal"
ENDPROPERTIES
CHARS 220
STARTCHAR 0020
ENCODING 32
SWIDTH 189 0
DWIDTH 42 0
BBX 0 0 0 0
BITMAP
ENDCHAR
STARTCHAR 0021
ENCODING 33
SWIDTH 198 0
DWIDTH 44 0
BBX 29 182 7 -1
BITMAP
7FFFFFF8
7FFFFFF8
7FFFFFF8
7FFFFFF8
7FFFFFF8
7FFFFFF8
7FFFFFF8
7FFFFFF8
7FFFFFF8
7FFFFFF8
7FFFFFF8
7FFFFFF8
7FFFFFF8
7FFFFFF8
7FFFFFF8
7FFFFFF8
7FFFFFF8
7FFFFFF8
7FFFFFF8
7FFFFFF8
7FFFFFF8
7FFFFFF8
7FFFFFF8
3FFFFFF8
3FFFFFF8
3FFFFFF8
3FFFFFF8
3FFFFFF0
3FFFFFF0
3FFFFFF0
3FFFFFF0
3FFFFFF0
3FFFFFF0
3FFFFFF0
3FFFFFF0
3FFFFFF0
3FFFFFF0
3FFFFFF0
3FFFFFF0
3FFFFFF0
3FFFFFF0
3FFFFFF0
3FFFFFF0
3FFFFFF0
3FFFFFF0
3FFFFFF0
1FFFFFF0
1FFFFFF0
1FFFFFF0
1FFFFFF0
1FFFFFF0
1FFFFFF0
1FFFFFF0
1FFFFFF0
1FFFFFF0
1FFFFFE0
1FFFFFE0
1FFFFFE0
1FFFFFE0
1FFFFFE0
1FFFFFE0
1FFFFFE0
1FFFFFE0
1FFFFFE0
1FFFFFE0
1FFFFFE0
1FFFFFE0
1FFFFFE0
1FFFFFE0
0FFFFFE0
0FFFFFE0
0FFFFFE0
0FFFFFE0
0FFFFFE0
0FFFFFE0
0FFFFFE0
0FFFFFE0
0FFFFFE0
0FFFFFE0
0FFFFFE0
0FFFFFE0
0FFFFFE0
0FFFFFC0
0FFFFFC0
0FFFFFC0
0FFFFFC0
0FFFFFC0
0FFFFFC0
0FFFFFC0
0FFFFFC0
0FFFFFC0
0FFFFFC0
07FFFFC0
07FFFFC0
07FFFFC0
07FFFFC0
07FFFFC0
07FFFFC0
07FFFFC0
07FFFFC0
07FFFFC0
07FFFFC0
07FFFFC0
07FFFFC0
07FFFFC0
07FFFFC0
07FFFFC0
07FFFFC0
07FFFFC0
07FFFFC0
07FFFF80
07FFFF80
07FFFF80
07FFFF80
03FFFF80
03FFFF80
03FFFF80
03FFFF80
03FFFF80
03FFFF80
03FFFF80
03FFFF80
03FFFF80
03FFFF80
03FFFF80
03FFFF80
03FFFF80
03FFFF80
03FFFF80
03FFFF80
03FFFF80
03FFFF80
03FFFF80
03FFFF80
03FFFF80
03FFFF80
03FFFF80
00000000
00000000
00000000
00000000
00000000
00000000
00000000
00000000
00000000
00000000
00000000
00000000
00000000
00000000
00000000
00000000
FFFFFFF8
FFFFFFF8
FFFFFFF8
FFFFFFF8
FFFFFFF8
FFFFFFF8
FFFFFFF8
FFFFFFF8
FFFFFFF8
FFFFFFF8
FFFFFFF8
FFFFFFF8
FFFFFFF8
FFFFFFF8
FFFFFFF8
FFFFFFF8
FFFFFFF8
FFFFFFF8
FFFFFFF8
FFFFFFF8
FFFFFFF8
FFFFFFF8
FFFFFFF8
FFFFFFF8
FFFFFFF8
FFFFFFF8
FFFFFFF8
FFFFFFF8
FFFFFFF8
ENDCHAR
STARTCHAR 0022
ENCODING 34
SWIDTH 315 0
DWIDTH 70 0
BBX 49 61 10 95
BITMAP
FFFF00007FFF80
FFFF00007FFF80
FFFF00007FFF80
FFFF00007FFF80
FFFF00007FFF80
FFFF00007FFF80
FFFF00007FFF80
FFFF00007FFF80
FFFF00007FFF80
FFFF00007FFF80
FFFF00007FFF80
FFFF00007FFF80
FFFF00007FFF80
FFFF00007FFF80
FFFF00007FFF80
FFFF00007FFF80
FFFF00007FFF80
FFFF00007FFF80
FFFF00007FFF80
FFFF00007FFF80
FFFF00007FFF80
FFFF00007FFF80
FFFF00007FFF80
FFFF00007FFF80
FFFF00007FFF80
FFFF00007FFF80
FFFF00007FFF80
FFFF00007FFF80
FFFF00007FFF80
FFFF00007FFF80
FFFF00007FFF80
FFFF00007FFF80
FFFF00007FFF80
FFFF00007FFF80
FFFF00007FFF80
FFFF00007FFF80
FFFF00007FFF80
FFFF00007FFF80
FFFF00007FFF80
FFFF00007FFF80
FFFF00007FFF80
FFFF00007FFF80
FFFF00007FFF80
FFFF00007FFF80
FFFF00007FFF80
FFFF00007FFF80
FFFF00007FFF80
FFFF00007FFF80
FFFF00007FFF80
FFFF00007FFF80
FFFF00007FFF80
FFFF00007FFF80
FFFF00007FFF80
FFFF00007FFF80
FFFF00007FFF80
FFFF00007FFF80
FFFF00007FFF80
FFFF00007FFF80
FFFF00007FFF80
FFFF00007FFF80
FFFF00007FFF80
ENDCHAR
STARTCHAR 0023
ENCODING 35
SWIDTH 769 0
DWIDTH 171 0
BBX 153 159 9 -1
BITMAP
000000000000000001FFFF80000000FFFFC00000
000000000000000001FFFF80000001FFFF800000
000000000000000001FFFF80000001FFFF800000
000000000000000003FFFF00000001FFFF800000
000000000000000003FFFF00000003FFFF000000
000000000000000007FFFF00000003FFFF000000
000000000000000007FFFE00000003FFFF000000
000000000000000007FFFE00000007FFFE000000
00000000000000000FFFFE00000007FFFE000000
00000000000000000FFFFC00000007FFFE000000
00000000000000000FFFFC0000000FFFFC000000
00000000000000001FFFF80000000FFFFC000000
00000000000000001FFFF80000001FFFFC000000
00000000000000001FFFF80000001FFFF8000000
00000000000000003FFFF00000001FFFF8000000
00000000000000003FFFF00000003FFFF0000000
00000000000000003FFFF00000003FFFF0000000
00000000000000007FFFE00000003FFFF0000000
00000000000000007FFFE00000007FFFE0000000
00000000000000007FFFE00000007FFFE0000000
0000000000000000FFFFC00000007FFFE0000000
0000000000000000FFFFC0000000FFFFC0000000
0000000000000000FFFFC0000000FFFFC0000000
0000000000000001FFFF80000000FFFFC0000000
0000000000000001FFFF80000001FFFF80000000
0000000000000003FFFF80000001FFFF80000000
0000000000000003FFFF00000001FFFF80000000
0000000000000003FFFF00000003FFFF00000000
0000000000000007FFFE00000003FFFF00000000
0000000000000007FFFE00000007FFFF00000000
0000000000000007FFFE00000007FFFE00000000
000000000000000FFFFC00000007FFFE00000000
000000000000000FFFFC0000000FFFFE00000000
000000000000000FFFFC0000000FFFFC00000000
000000000000001FFFF80000000FFFFC00000000
000000000000001FFFF80000001FFFF800000000
000000000000001FFFF80000001FFFF800000000
000000000000003FFFF00000001FFFF800000000
000000000000003FFFF00000003FFFF000000000
000000000000003FFFF00000003FFFF000000000
000000000000007FFFE00000003FFFF000000000
000000000000007FFFE00000007FFFE000000000
000000000000007FFFE00000007FFFE000000000
00000000000000FFFFC00000007FFFE000000000
00000000000000FFFFC0000000FFFFC000000000
00000000000001FFFFC0000000FFFFC000000000
00000000000001FFFF80000000FFFFC000000000
00000000000001FFFF80000001FFFF8000000000
00000FFFFFFFFFFFFFFFFFFFFFFFFFFFFFFFFF80
00000FFFFFFFFFFFFFFFFFFFFFFFFFFFFFFFFF00
00000FFFFFFFFFFFFFFFFFFFFFFFFFFFFFFFFF00
00001FFFFFFFFFFFFFFFFFFFFFFFFFFFFFFFFF00
00001FFFFFFFFFFFFFFFFFFFFFFFFFFFFFFFFE00
00001FFFFFFFFFFFFFFFFFFFFFFFFFFFFFFFFE00
00003FFFFFFFFFFFFFFFFFFFFFFFFFFFFFFFFE00
00003FFFFFFFFFFFFFFFFFFFFFFFFFFFFFFFFC00
00003FFFFFFFFFFFFFFFFFFFFFFFFFFFFFFFFC00
00007FFFFFFFFFFFFFFFFFFFFFFFFFFFFFFFFC00
00007FFFFFFFFFFFFFFFFFFFFFFFFFFFFFFFF800
00007FFFFFFFFFFFFFFFFFFFFFFFFFFFFFFFF800
0000FFFFFFFFFFFFFFFFFFFFFFFFFFFFFFFFF800
0000FFFFFFFFFFFFFFFFFFFFFFFFFFFFFFFFF000
0001FFFFFFFFFFFFFFFFFFFFFFFFFFFFFFFFF000
0001FFFFFFFFFFFFFFFFFFFFFFFFFFFFFFFFF000
0001FFFFFFFFFFFFFFFFFFFFFFFFFFFFFFFFE000
000000000000FFFFE00000007FFFE00000000000
000000000000FFFFC00000007FFFE00000000000
000000000000FFFFC0000000FFFFC00000000000
000000000001FFFF80000000FFFFC00000000000
000000000001FFFF80000001FFFFC00000000000
000000000001FFFF80000001FFFF800000000000
000000000003FFFF00000001FFFF800000000000
000000000003FFFF00000003FFFF000000000000
000000000003FFFF00000003FFFF000000000000
000000000007FFFE00000003FFFF000000000000
000000000007FFFE00000007FFFE000000000000
000000000007FFFE00000007FFFE000000000000
00000000000FFFFC00000007FFFE000000000000
00000000000FFFFC0000000FFFFC000000000000
00000000000FFFFC0000000FFFFC000000000000
00000000001FFFF80000000FFFFC000000000000
00000000001FFFF80000001FFFF8000000000000
00000000001FFFF80000001FFFF8000000000000
00000000003FFFF00000001FFFF8000000000000
00000000003FFFF00000003FFFF0000000000000
00000000007FFFF00000003FFFF0000000000000
00000000007FFFE00000003FFFF0000000000000
00000000007FFFE00000007FFFE0000000000000
0000000000FFFFC00000007FFFE0000000000000
0000000000FFFFC0000000FFFFE0000000000000
0000000000FFFFC0000000FFFFC0000000000000
0000000001FFFF80000000FFFFC0000000000000
0000000001FFFF80000001FFFF80000000000000
0000000001FFFF80000001FFFF80000000000000
0000000003FFFF00000001FFFF80000000000000
03FFFFFFFFFFFFFFFFFFFFFFFFFFFFFFFFC00000
07FFFFFFFFFFFFFFFFFFFFFFFFFFFFFFFFC00000
07FFFFFFFFFFFFFFFFFFFFFFFFFFFFFFFF800000
07FFFFFFFFFFFFFFFFFFFFFFFFFFFFFFFF800000
0FFFFFFFFFFFFFFFFFFFFFFFFFFFFFFFFF800000
0FFFFFFFFFFFFFFFFFFFFFFFFFFFFFFFFF000000
0FFFFFFFFFFFFFFFFFFFFFFFFFFFFFFFFF000000
1FFFFFFFFFFFFFFFFFFFFFFFFFFFFFFFFF000000
1FFFFFFFFFFFFFFFFFFFFFFFFFFFFFFFFE000000
3FFFFFFFFFFFFFFFFFFFFFFFFFFFFFFFFE000000
3FFFFFFFFFFFFFFFFFFFFFFFFFFFFFFFFC000000
3FFFFFFFFFFFFFFFFFFFFFFFFFFFFFFFFC000000
7FFFFFFFFFFFFFFFFFFFFFFFFFFFFFFFFC000000
7FFFFFFFFFFFFFFFFFFFFFFFFFFFFFFFF8000000
7FFFFFFFFFFFFFFFFFFFFFFFFFFFFFFFF8000000
FFFFFFFFFFFFFFFFFFFFFFFFFFFFFFFFF8000000
00000000FFFFC00000007FFFE000000000000000
00000000FFFFC0000000FFFFC000000000000000
00000000FFFFC0000000FFFFC000000000000000
00000001FFFF80000000FFFFC000000000000000
00000001FFFF80000001FFFF8000000000000000
00000001FFFF80000001FFFF8000000000000000
00000003FFFF00000001FFFF8000000000000000
00000003FFFF00000003FFFF0000000000000000
00000003FFFF00000003FFFF0000000000000000
00000007FFFE00000003FFFF0000000000000000
00000007FFFE00000007FFFE0000000000000000
0000000FFFFE00000007FFFE0000000000000000
0000000FFFFC00000007FFFE0000000000000000
0000000FFFFC0000000FFFFC0000000000000000
0000001FFFF80000000FFFFC0000000000000000
0000001FFFF80000000FFFFC0000000000000000
0000001FFFF80000001FFFF80000000000000000
0000003FFFF00000001FFFF80000000000000000
0000003FFFF00000003FFFF80000000000000000
0000003FFFF00000003FFFF00000000000000000
0000007FFFE00000003FFFF00000000000000000
0000007FFFE00000007FFFE00000000000000000
0000007FFFE00000007FFFE00000000000000000
000000FFFFC00000007FFFE00000000000000000
000000FFFFC0000000FFFFC00000000000000000
000000FFFFC0000000FFFFC00000000000000000
000001FFFF80000000FFFFC00000000000000000
000001FFFF80000001FFFF800000000000000000
000001FFFF80000001FFFF800000000000000000
000003FFFF00000001FFFF800000000000000000
000003FFFF00000003FFFF000000000000000000
000007FFFF00000003FFFF000000000000000000
000007FFFE00000003FFFF000000000000000000
000007FFFE00000007FFFE000000000000000000
00000FFFFC00000007FFFE000000000000000000
00000FFFFC00000007FFFE000000000000000000
00000FFFFC0000000FFFFC000000000000000000
00001FFFF80000000FFFFC000000000000000000
00001FFFF80000001FFFFC000000000000000000
00001FFFF80000001FFFF8000000000000000000
00003FFFF00000001FFFF8000000000000000000
00003FFFF00000003FFFF0000000000000000000
00003FFFF00000003FFFF0000000000000000000
00007FFFE00000003FFFF0000000000000000000
00007FFFE00000007FFFE0000000000000000000
00007FFFE00000007FFFE0000000000000000000
0000FFFFC00000007FFFE0000000000000000000
0000FFFFC0000000FFFFC0000000000000000000
ENDCHAR
STARTCHAR 0024
ENCODING 36
SWIDTH 382 0
DWIDTH 85 0
BBX 69 208 8 -14
BITMAP
0000003FFFF0000000
0000003FFFF0000000
0000003FFFF0000000
0000003FFFF0000000
0000003FFFF0000000
0000003FFFF0000000
0000003FFFF0000000
0000003FFFF0000000
0000003FFFF0000000
0000003FFFF0000000
0000003FFFF0000000
0000003FFFF0000000
0000003FFFF0000000
00003FFFFFFFE00000
0007FFFFFFFFFF0000
001FFFFFFFFFFFE000
007FFFFFFFFFFFF800
01FFFFFFFFFFFFFC00
03FFFFFFFFFFFFFE00
07FFFFFFFFFFFFFF00
07FFFFFFFFFFFFFF80
0FFFFFFFFFFFFFFF80
1FFFFFFFFFFFFFFFC0
1FFFFFFFFFFFFFFFC0
1FFFFFFFFFFFFFFFC0
3FFFFFFFFFFFFFFFE0
3FFFFFFFFFFFFFFFE0
3FFFFFFFFFFFFFFFE0
7FFFFFFFFFFFFFFFE0
7FFFFFFFFFFFFFFFF0
7FFFFFFFFFFFFFFFF0
7FFFFFFFFFFFFFFFF0
7FFFFFFFFFFFFFFFF0
7FFFFFFFFFFFFFFFF0
7FFFFFFFFFFFFFFFF0
FFFFFFFF07FFFFFFF0
FFFFFFFE03FFFFFFF0
FFFFFFFC01FFFFFFF8
FFFFFFFC01FFFFFFF8
FFFFFFF800FFFFFFF8
FFFFFFF800FFFFFFF8
FFFFFFF800FFFFFFF8
FFFFFFF800FFFFFFF8
FFFFFFF800FFFFFFF8
FFFFFFF800FFFFFFF8
FFFFFFF800FFFFFFF8
FFFFFFF800FFFFFFF8
FFFFFFF800FFFFFFF8
FFFFFFF800FFFFFFF8
FFFFFFF800FFFFFFF8
FFFFFFF800FFFFFFF8
FFFFFFF800FFFFFFF8
FFFFFFF800FFFFFFF8
FFFFFFF800FFFFFFF8
FFFFFFF800FFFFFFF8
FFFFFFF800FFFFFFF8
FFFFFFF800FFFFFFF8
FFFFFFF800FFFFFFF8
FFFFFFF800FFFFFFF8
FFFFFFF800FFFFFFF8
FFFFFFF800FFFFFFF8
FFFFFFF800FFFFFFF8
FFFFFFF800FFFFFFF8
FFFFFFF800FFFFFFF8
FFFFFFF800FFFFFFF8
FFFFFFF800FFFFFFF8
FFFFFFF800FFFFFFF8
FFFFFFF800FFFFFFF8
FFFFFFF800FFFFFFF8
FFFFFFF800FFFFFFF8
FFFFFFF800FFFFFFF8
FFFFFFF800FFFFFFF8
FFFFFFF800FFFFFFF8
FFFFFFF800FFFFFFF8
FFFFFFF80000000000
FFFFFFF80000000000
FFFFFFF80000000000
FFFFFFF80000000000
FFFFFFFC0000000000
FFFFFFFC0000000000
FFFFFFFE0000000000
FFFFFFFF0000000000
FFFFFFFF8000000000
7FFFFFFFE000000000
7FFFFFFFF000000000
7FFFFFFFFC00000000
7FFFFFFFFF00000000
3FFFFFFFFF80000000
3FFFFFFFFFE0000000
3FFFFFFFFFF8000000
1FFFFFFFFFFE000000
1FFFFFFFFFFF000000
0FFFFFFFFFFFC00000
07FFFFFFFFFFF00000
07FFFFFFFFFFF80000
03FFFFFFFFFFFE0000
01FFFFFFFFFFFF8000
00FFFFFFFFFFFFC000
007FFFFFFFFFFFF000
001FFFFFFFFFFFF800
000FFFFFFFFFFFFC00
0003FFFFFFFFFFFE00
0001FFFFFFFFFFFF00
00007FFFFFFFFFFF00
00001FFFFFFFFFFF80
000007FFFFFFFFFFC0
000003FFFFFFFFFFC0
000000FFFFFFFFFFE0
0000003FFFFFFFFFE0
0000000FFFFFFFFFE0
00000007FFFFFFFFF0
00000001FFFFFFFFF0
000000007FFFFFFFF0
000000003FFFFFFFF0
000000001FFFFFFFF0
0000000007FFFFFFF8
0000000003FFFFFFF8
0000000003FFFFFFF8
0000000001FFFFFFF8
0000000001FFFFFFF8
0000000001FFFFFFF8
FFFFFFF800FFFFFFF8
FFFFFFF800FFFFFFF8
FFFFFFF800FFFFFFF8
FFFFFFF800FFFFFFF8
FFFFFFF800FFFFFFF8
FFFFFFF800FFFFFFF8
FFFFFFF800FFFFFFF8
FFFFFFF800FFFFFFF8
FFFFFFF800FFFFFFF8
FFFFFFF800FFFFFFF8
FFFFFFF800FFFFFFF8
FFFFFFF800FFFFFFF8
FFFFFFF800FFFFFFF8
FFFFFFF800FFFFFFF8
FFFFFFF800FFFFFFF8
FFFFFFF800FFFFFFF8
FFFFFFF800FFFFFFF8
FFFFFFF800FFFFFFF8
FFFFFFF800FFFFFFF8
FFFFFFF800FFFFFFF8
FFFFFFF800FFFFFFF8
FFFFFFF800FFFFFFF8
FFFFFFF800FFFFFFF8
FFFFFFF800FFFFFFF8
FFFFFFF800FFFFFFF8
FFFFFFF800FFFFFFF8
FFFFFFF800FFFFFFF8
FFFFFFF800FFFFFFF8
FFFFFFF800FFFFFFF8
FFFFFFF800FFFFFFF8
FFFFFFF800FFFFFFF8
FFFFFFF800FFFFFFF8
FFFFFFF800FFFFFFF8
FFFFFFF800FFFFFFF8
FFFFFFF800FFFFFFF8
FFFFFFF800FFFFFFF8
FFFFFFF800FFFFFFF8
FFFFFFF800FFFFFFF8
FFFFFFF800FFFFFFF8
FFFFFFF800FFFFFFF8
FFFFFFF800FFFFFFF8
FFFFFFF800FFFFFFF8
FFFFFFF800FFFFFFF8
FFFFFFF800FFFFFFF8
FFFFFFF800FFFFFFF8
FFFFFFF800FFFFFFF8
FFFFFFF800FFFFFFF8
FFFFFFF801FFFFFFF8
FFFFFFFC01FFFFFFF8
FFFFFFFC01FFFFFFF8
FFFFFFFE03FFFFFFF0
7FFFFFFF07FFFFFFF0
7FFFFFFFFFFFFFFFF0
7FFFFFFFFFFFFFFFF0
7FFFFFFFFFFFFFFFF0
7FFFFFFFFFFFFFFFF0
7FFFFFFFFFFFFFFFF0
7FFFFFFFFFFFFFFFF0
3FFFFFFFFFFFFFFFE0
3FFFFFFFFFFFFFFFE0
3FFFFFFFFFFFFFFFE0
1FFFFFFFFFFFFFFFE0
1FFFFFFFFFFFFFFFC0
1FFFFFFFFFFFFFFFC0
0FFFFFFFFFFFFFFFC0
0FFFFFFFFFFFFFFF80
07FFFFFFFFFFFFFF00
03FFFFFFFFFFFFFF00
01FFFFFFFFFFFFFE00
00FFFFFFFFFFFFF800
007FFFFFFFFFFFF000
001FFFFFFFFFFF8000
0003FFFFFFFFFC0000
00001FFFFFFF800000
0000003FFFF0000000
0000003FFFF0000000
0000003FFFF0000000
0000003FFFF0000000
0000003FFFF0000000
0000003FFFF0000000
0000003FFFF0000000
0000003FFFF0000000
0000003FFFF0000000
0000003FFFF0000000
0000003FFFF0000000
0000003FFFF0000000
0000003FFFF0000000
ENDCHAR
STARTCHAR 0025
ENCODING 37
SWIDTH 675 0
DWIDTH 150 0
BBX 132 182 9 -1
BITMAP
0003FFFFC0000000000003FFFC00000000
007FFFFFFE000000000003FFF800000000
03FFFFFFFFC00000000007FFF800000000
0FFFFFFFFFF00000000007FFF800000000
1FFFFFFFFFF80000000007FFF800000000
1FFFFFFFFFFC000000000FFFF000000000
3FFFFFFFFFFC000000000FFFF000000000
3FFFFFFFFFFE000000000FFFF000000000
7FFFFFFFFFFE000000000FFFE000000000
7FFFFFFFFFFE000000001FFFE000000000
7FFFFFFFFFFE000000001FFFE000000000
7FFFFFFFFFFF000000001FFFC000000000
FFFFFFFFFFFF000000003FFFC000000000
FFFFFFFFFFFF000000003FFFC000000000
FFFFFFFFFFFF000000003FFF8000000000
FFFFFFFFFFFF000000007FFF8000000000
FFFFFFFFFFFF000000007FFF8000000000
FFFFFC3FFFFF000000007FFF0000000000
FFFFF00FFFFF00000000FFFF0000000000
FFFFE007FFFF80000000FFFF0000000000
FFFFE007FFFF80000000FFFF0000000000
FFFFE003FFFF80000001FFFE0000000000
FFFFE003FFFF80000001FFFE0000000000
FFFFE003FFFF80000001FFFE0000000000
FFFFE003FFFF80000001FFFC0000000000
FFFFE003FFFF80000003FFFC0000000000
FFFFE003FFFF80000003FFFC0000000000
FFFFE003FFFF80000003FFF80000000000
FFFFE003FFFF80000007FFF80000000000
FFFFE003FFFF80000007FFF80000000000
FFFFE003FFFF80000007FFF00000000000
FFFFE003FFFF8000000FFFF00000000000
FFFFE003FFFF8000000FFFF00000000000
FFFFE003FFFF8000000FFFE00000000000
FFFFE003FFFF8000001FFFE00000000000
FFFFE003FFFF8000001FFFE00000000000
FFFFE003FFFF8000001FFFE00000000000
FFFFE003FFFF8000003FFFC00000000000
FFFFE003FFFF8000003FFFC00000000000
FFFFE003FFFF8000003FFFC00000000000
FFFFE003FFFF8000003FFF800000000000
FFFFE003FFFF8000007FFF800000000000
FFFFE003FFFF8000007FFF800000000000
FFFFE003FFFF8000007FFF000000000000
FFFFE003FFFF800000FFFF000000000000
FFFFE003FFFF800000FFFF000000000000
FFFFE003FFFF800000FFFE000000000000
FFFFE003FFFF800001FFFE000000000000
FFFFE003FFFF800001FFFE000000000000
FFFFE003FFFF800001FFFE000000000000
FFFFE003FFFF800003FFFC000000000000
FFFFE003FFFF800003FFFC000000000000
FFFFE003FFFF800003FFFC000000000000
FFFFE003FFFF800003FFF8000000000000
FFFFE003FFFF800007FFF8000000000000
FFFFE003FFFF800007FFF8000000000000
FFFFE003FFFF800007FFF0000000000000
FFFFE003FFFF80000FFFF0000000000000
FFFFE003FFFF80000FFFF0000000000000
FFFFE003FFFF80000FFFE0000000000000
FFFFE003FFFF80001FFFE0000000000000
FFFFE003FFFF80001FFFE0000000000000
FFFFE003FFFF80001FFFC0000000000000
FFFFE003FFFF80003FFFC0000000000000
FFFFE003FFFF80003FFFC0000000000000
FFFFE003FFFF80003FFFC0000000000000
FFFFE003FFFF80007FFF80000000000000
FFFFE003FFFF80007FFF80000000000000
FFFFE003FFFF80007FFF80000000000000
FFFFE003FFFF80007FFF00000000000000
FFFFE003FFFF8000FFFF00000000000000
FFFFE003FFFF8000FFFF00000000000000
FFFFE003FFFF8000FFFE00000000000000
FFFFE003FFFF8001FFFE00000000000000
FFFFE003FFFF8001FFFE00000000000000
FFFFE003FFFF8001FFFC00000000000000
FFFFE007FFFF8003FFFC00000000000000
FFFFE007FFFF8003FFFC00000000000000
FFFFE007FFFF0003FFFC00000000000000
FFFFF00FFFFF0007FFF800000000000000
FFFFFC1FFFFF0007FFF800000000000000
FFFFFFFFFFFF0007FFF800000000000000
FFFFFFFFFFFF0007FFF000000000000000
FFFFFFFFFFFF000FFFF000000000000000
7FFFFFFFFFFF000FFFF000000000000000
7FFFFFFFFFFF000FFFE000007FFFF80000
7FFFFFFFFFFE001FFFE0000FFFFFFFC000
7FFFFFFFFFFE001FFFE0007FFFFFFFF800
3FFFFFFFFFFE001FFFC001FFFFFFFFFE00
3FFFFFFFFFFC003FFFC003FFFFFFFFFF00
3FFFFFFFFFFC003FFFC003FFFFFFFFFF80
1FFFFFFFFFF8003FFF8007FFFFFFFFFF80
0FFFFFFFFFF8007FFF8007FFFFFFFFFFC0
07FFFFFFFFF0007FFF800FFFFFFFFFFFC0
03FFFFFFFFC0007FFF800FFFFFFFFFFFC0
007FFFFFFE0000FFFF000FFFFFFFFFFFC0
0003FFFFC00000FFFF000FFFFFFFFFFFE0
00000000000000FFFF001FFFFFFFFFFFE0
00000000000000FFFE001FFFFFFFFFFFE0
00000000000001FFFE001FFFFFFFFFFFE0
00000000000001FFFE001FFFFFFFFFFFE0
00000000000001FFFC001FFFFF03FFFFE0
00000000000003FFFC001FFFFE01FFFFE0
00000000000003FFFC001FFFFC00FFFFE0
00000000000003FFF8001FFFFC00FFFFF0
00000000000007FFF8001FFFFC00FFFFF0
00000000000007FFF8001FFFFC007FFFF0
00000000000007FFF0001FFFFC007FFFF0
0000000000000FFFF0001FFFFC007FFFF0
0000000000000FFFF0001FFFFC007FFFF0
0000000000000FFFF0001FFFFC007FFFF0
0000000000001FFFE0001FFFFC007FFFF0
0000000000001FFFE0001FFFFC007FFFF0
0000000000001FFFE0001FFFFC007FFFF0
0000000000001FFFC0001FFFFC007FFFF0
0000000000003FFFC0001FFFFC007FFFF0
0000000000003FFFC0001FFFFC007FFFF0
0000000000003FFF80001FFFFC007FFFF0
0000000000007FFF80001FFFFC007FFFF0
0000000000007FFF80001FFFFC007FFFF0
0000000000007FFF00001FFFFC007FFFF0
000000000000FFFF00001FFFFC007FFFF0
000000000000FFFF00001FFFFC007FFFF0
000000000000FFFF00001FFFFC007FFFF0
000000000001FFFE00001FFFFC007FFFF0
000000000001FFFE00001FFFFC007FFFF0
000000000001FFFE00001FFFFC007FFFF0
000000000001FFFC00001FFFFC007FFFF0
000000000003FFFC00001FFFFC007FFFF0
000000000003FFFC00001FFFFC007FFFF0
000000000003FFF800001FFFFC007FFFF0
000000000007FFF800001FFFFC007FFFF0
000000000007FFF800001FFFFC007FFFF0
000000000007FFF000001FFFFC007FFFF0
00000000000FFFF000001FFFFC007FFFF0
00000000000FFFF000001FFFFC007FFFF0
00000000000FFFE000001FFFFC007FFFF0
00000000001FFFE000001FFFFC007FFFF0
00000000001FFFE000001FFFFC007FFFF0
00000000001FFFE000001FFFFC007FFFF0
00000000003FFFC000001FFFFC007FFFF0
00000000003FFFC000001FFFFC007FFFF0
00000000003FFFC000001FFFFC007FFFF0
00000000003FFF8000001FFFFC007FFFF0
00000000007FFF8000001FFFFC007FFFF0
00000000007FFF8000001FFFFC007FFFF0
00000000007FFF0000001FFFFC007FFFF0
0000000000FFFF0000001FFFFC007FFFF0
0000000000FFFF0000001FFFFC007FFFF0
0000000000FFFE0000001FFFFC007FFFF0
0000000001FFFE0000001FFFFC007FFFF0
0000000001FFFE0000001FFFFC007FFFF0
0000000001FFFC0000001FFFFC007FFFF0
0000000003FFFC0000001FFFFC007FFFF0
0000000003FFFC0000001FFFFC007FFFF0
0000000003FFFC0000001FFFFC007FFFF0
0000000003FFF80000001FFFFC007FFFF0
0000000007FFF80000001FFFFC007FFFF0
0000000007FFF80000001FFFFC007FFFF0
0000000007FFF00000001FFFFC007FFFF0
000000000FFFF00000001FFFFC007FFFF0
000000000FFFF00000001FFFFC00FFFFF0
000000000FFFE00000001FFFFC00FFFFF0
000000001FFFE00000001FFFFC00FFFFE0
000000001FFFE00000001FFFFE01FFFFE0
000000001FFFC00000001FFFFF83FFFFE0
000000003FFFC00000001FFFFFFFFFFFE0
000000003FFFC00000001FFFFFFFFFFFE0
000000003FFFC00000001FFFFFFFFFFFE0
000000007FFF800000000FFFFFFFFFFFE0
000000007FFF800000000FFFFFFFFFFFE0
000000007FFF800000000FFFFFFFFFFFC0
000000007FFF000000000FFFFFFFFFFFC0
00000000FFFF000000000FFFFFFFFFFFC0
00000000FFFF0000000007FFFFFFFFFF80
00000000FFFE0000000007FFFFFFFFFF80
00000001FFFE0000000003FFFFFFFFFF00
00000001FFFE0000000001FFFFFFFFFF00
00000001FFFC0000000000FFFFFFFFFE00
00000003FFFC00000000007FFFFFFFF800
00000003FFFC00000000000FFFFFFFC000
00000003FFF80000000000003FFFF80000
ENDCHAR
STARTCHAR 0026
ENCODING 38
SWIDTH 391 0
DWIDTH 87 0
BBX 78 182 8 -1
BITMAP
00000FFFFFFFFFE00000
0003FFFFFFFFFFE00000
001FFFFFFFFFFFE00000
007FFFFFFFFFFFE00000
01FFFFFFFFFFFFE00000
03FFFFFFFFFFFFE00000
07FFFFFFFFFFFFE00000
0FFFFFFFFFFFFFE00000
0FFFFFFFFFFFFFE00000
1FFFFFFFFFFFFFE00000
1FFFFFFFFFFFFFE00000
1FFFFFFFFFFFFFE00000
3FFFFFFFFFFFFFE00000
3FFFFFFFFFFFFFE00000
3FFFFFFFFFFFFFE00000
7FFFFFFFFFFFFFE00000
7FFFFFFFFFFFFFE00000
7FFFFFFFFFFFFFE00000
7FFFFFFFFFFFFFE00000
7FFFFFFFFFFFFFE00000
7FFFFFFFFFFFFFE00000
7FFFFFFF800000000000
FFFFFFFE000000000000
FFFFFFFC000000000000
FFFFFFFC000000000000
FFFFFFF8000000000000
FFFFFFF8000000000000
FFFFFFF8000000000000
FFFFFFF8000000000000
FFFFFFF8000000000000
FFFFFFF8000000000000
FFFFFFF8000000000000
FFFFFFF8000000000000
FFFFFFF8000000000000
FFFFFFF8000000000000
FFFFFFF8000000000000
FFFFFFF8000000000000
FFFFFFF8000000000000
FFFFFFF8000000000000
FFFFFFF8000000000000
FFFFFFF800FFFFFFF000
FFFFFFF800FFFFFFF000
FFFFFFF800FFFFFFF000
FFFFFFF800FFFFFFF000
FFFFFFF800FFFFFFF000
FFFFFFF800FFFFFFF000
FFFFFFF800FFFFFFF000
FFFFFFF800FFFFFFF000
FFFFFFF800FFFFFFF000
FFFFFFF800FFFFFFF000
FFFFFFF800FFFFFFF000
FFFFFFF800FFFFFFF000
FFFFFFF800FFFFFFF000
FFFFFFF800FFFFFFF000
FFFFFFF800FFFFFFF000
FFFFFFF800FFFFFFF000
FFFFFFF800FFFFFFF000
FFFFFFF800FFFFFFF000
FFFFFFF800FFFFFFF000
FFFFFFF800FFFFFFF000
FFFFFFF800FFFFFFF000
FFFFFFF800FFFFFFF000
FFFFFFF800FFFFFFF000
FFFFFFF800FFFFFFF000
FFFFFFF800FFFFFFF000
FFFFFFF800FFFFFFF000
7FFFFFF800FFFFFFF000
7FFFFFF800FFFFFFF000
7FFFFFF800FFFFFFF000
7FFFFFFC00FFFFFFF000
7FFFFFFC00FFFFFFF000
3FFFFFFF00FFFFFFF000
3FFFFFFFFFFFFFFFFFFC
1FFFFFFFFFFFFFFFFFFC
1FFFFFFFFFFFFFFFFFFC
0FFFFFFFFFFFFFFFFFFC
0FFFFFFFFFFFFFFFFFFC
07FFFFFFFFFFFFFFFFFC
03FFFFFFFFFFFFFFFFFC
00FFFFFFFFFFFFFFFFFC
007FFFFFFFFFFFFFFFFC
000FFFFFFFFFFFFFFFFC
0003FFFFFFFFFFFFFFFC
00007FFFFFFFFFFFFFFC
0003FFFFFFFFFFFFFFFC
000FFFFFFFFFFFFFFFFC
003FFFFFFFFFFFFFFFFC
00FFFFFFFFFFFFFFFFFC
01FFFFFFFFFFFFFFFFFC
03FFFFFFFFFFFFFFFFFC
07FFFFFFFFFFFFFFFFFC
0FFFFFFFFFFFFFFFFFFC
1FFFFFFFFFFFFFFFFFFC
1FFFFFFFFFFFFFFFFFFC
3FFFFFFFFFFFFFFFFFFC
3FFFFFFF00FFFFFFFFFC
3FFFFFFE00FFFFFFF000
7FFFFFFC00FFFFFFF000
7FFFFFFC00FFFFFFF000
7FFFFFF800FFFFFFF000
7FFFFFF800FFFFFFF000
7FFFFFF800FFFFFFF000
FFFFFFF800FFFFFFF000
FFFFFFF800FFFFFFF000
FFFFFFF800FFFFFFF000
FFFFFFF800FFFFFFF000
FFFFFFF800FFFFFFF000
FFFFFFF800FFFFFFF000
FFFFFFF800FFFFFFF000
FFFFFFF800FFFFFFF000
FFFFFFF800FFFFFFF000
FFFFFFF800FFFFFFF000
FFFFFFF800FFFFFFF000
FFFFFFF800FFFFFFF000
FFFFFFF800FFFFFFF000
FFFFFFF800FFFFFFF000
FFFFFFF800FFFFFFF000
FFFFFFF800FFFFFFF000
FFFFFFF800FFFFFFF000
FFFFFFF800FFFFFFF000
FFFFFFF800FFFFFFF000
FFFFFFF800FFFFFFF000
FFFFFFF800FFFFFFF000
FFFFFFF800FFFFFFF000
FFFFFFF800FFFFFFF000
FFFFFFF800FFFFFFF000
FFFFFFF800FFFFFFF000
FFFFFFF800FFFFFFF000
FFFFFFF800FFFFFFF000
FFFFFFF800FFFFFFF000
FFFFFFF800FFFFFFF000
FFFFFFF800FFFFFFF000
FFFFFFF800FFFFFFF000
FFFFFFF800FFFFFFF000
FFFFFFF800FFFFFFF000
FFFFFFF800FFFFFFF000
FFFFFFF800FFFFFFF000
FFFFFFF800FFFFFFF000
FFFFFFF800FFFFFFF000
FFFFFFF800FFFFFFF000
FFFFFFF800FFFFFFF000
FFFFFFF800FFFFFFF000
FFFFFFF800FFFFFFF000
FFFFFFF800FFFFFFF000
FFFFFFF800FFFFFFF000
FFFFFFF800FFFFFFF000
FFFFFFF800FFFFFFF000
FFFFFFF800FFFFFFF000
FFFFFFF800FFFFFFF000
FFFFFFF800FFFFFFF000
FFFFFFF800FFFFFFF000
FFFFFFF800FFFFFFF000
FFFFFFF800FFFFFFF000
FFFFFFF800FFFFFFF000
FFFFFFF800FFFFFFF000
FFFFFFF800FFFFFFF000
FFFFFFF800FFFFFFF000
FFFFFFFC00FFFFFFF000
FFFFFFFC00FFFFFFF000
7FFFFFFE00FFFFFFF000
7FFFFFFF80FFFFFFF000
7FFFFFFFFFFFFFFFF000
7FFFFFFFFFFFFFFFF000
7FFFFFFFFFFFFFFFF000
7FFFFFFFFFFFFFFFF000
3FFFFFFFFFFFFFFFF000
3FFFFFFFFFFFFFFFF000
3FFFFFFFFFFFFFFFF000
1FFFFFFFFFFFFFFFF000
1FFFFFFFFFFFFFFFF000
1FFFFFFFFFFFFFFFF000
0FFFFFFFFFFFFFFFF000
0FFFFFFFFFFFFFFFF000
07FFFFFFFFFFFFFFF000
03FFFFFFFFFFFFFFF000
01FFFFFFFFFFFFFFF000
00FFFFFFFFFFFFFFF000
007FFFFFFFFFFFFFF000
000FFFFFFFFFFFFFF000
0003FFFFFFFFFFFFF000
00001FFFFFFFFFFFF000
0000001FFFFFFFFFF000
ENDCHAR
STARTCHAR 0027
ENCODING 39
SWIDTH 162 0
DWIDTH 36 0
BBX 16 61 10 95
BITMAP
FFFF
FFFF
FFFF
FFFF
FFFF
FFFF
FFFF
FFFF
FFFF
FFFF
FFFF
FFFF
FFFF
FFFF
FFFF
FFFF
FFFF
FFFF
FFFF
FFFF
FFFF
FFFF
FFFF
FFFF
FFFF
FFFF
FFFF
FFFF
FFFF
FFFF
FFFF
FFFF
FFFF
FFFF
FFFF
FFFF
FFFF
FFFF
FFFF
FFFF
FFFF
FFFF
FFFF
FFFF
FFFF
FFFF
FFFF
FFFF
FFFF
FFFF
FFFF
FFFF
FFFF
FFFF
FFFF
FFFF
FFFF
FFFF
FFFF
FFFF
FFFF
ENDCHAR
STARTCHAR 0028
ENCODING 40
SWIDTH 211 0
DWIDTH 47 0
BBX 35 212 9 -31
BITMAP
00003FFFE0
0007FFFFE0
003FFFFFE0
007FFFFFE0
01FFFFFFE0
03FFFFFFE0
07FFFFFFE0
0FFFFFFFE0
1FFFFFFFE0
1FFFFFFFE0
3FFFFFFFE0
3FFFFFFFE0
3FFFFFFFE0
7FFFFFFFE0
7FFFFFFFE0
7FFFFFFFE0
7FFFFFFFE0
7FFFFFFFE0
FFFFFFFFE0
FFFFFFFFE0
FFFFFFFFE0
FFFFFFFF00
FFFFFFFC00
FFFFFFF800
FFFFFFF000
FFFFFFF000
FFFFFFE000
FFFFFFE000
FFFFFFE000
FFFFFFE000
FFFFFFE000
FFFFFFE000
FFFFFFE000
FFFFFFE000
FFFFFFE000
FFFFFFE000
FFFFFFE000
FFFFFFE000
FFFFFFE000
FFFFFFE000
FFFFFFE000
FFFFFFE000
FFFFFFE000
FFFFFFE000
FFFFFFE000
FFFFFFE000
FFFFFFE000
FFFFFFE000
FFFFFFE000
FFFFFFE000
FFFFFFE000
FFFFFFE000
FFFFFFE000
FFFFFFE000
FFFFFFE000
FFFFFFE000
FFFFFFE000
FFFFFFE000
FFFFFFE000
FFFFFFE000
FFFFFFE000
FFFFFFE000
FFFFFFE000
FFFFFFE000
FFFFFFE000
FFFFFFE000
FFFFFFE000
FFFFFFE000
FFFFFFE000
FFFFFFE000
FFFFFFE000
FFFFFFE000
FFFFFFE000
FFFFFFE000
FFFFFFE000
FFFFFFE000
FFFFFFE000
FFFFFFE000
FFFFFFE000
FFFFFFE000
FFFFFFE000
FFFFFFE000
FFFFFFE000
FFFFFFE000
FFFFFFE000
FFFFFFE000
FFFFFFE000
FFFFFFE000
FFFFFFE000
FFFFFFE000
FFFFFFE000
FFFFFFE000
FFFFFFE000
FFFFFFE000
FFFFFFE000
FFFFFFE000
FFFFFFE000
FFFFFFE000
FFFFFFE000
FFFFFFE000
FFFFFFE000
FFFFFFE000
FFFFFFE000
FFFFFFE000
FFFFFFE000
FFFFFFE000
FFFFFFE000
FFFFFFE000
FFFFFFE000
FFFFFFE000
FFFFFFE000
FFFFFFE000
FFFFFFE000
FFFFFFE000
FFFFFFE000
FFFFFFE000
FFFFFFE000
FFFFFFE000
FFFFFFE000
FFFFFFE000
FFFFFFE000
FFFFFFE000
FFFFFFE000
FFFFFFE000
FFFFFFE000
FFFFFFE000
FFFFFFE000
FFFFFFE000
FFFFFFE000
FFFFFFE000
FFFFFFE000
FFFFFFE000
FFFFFFE000
FFFFFFE000
FFFFFFE000
FFFFFFE000
FFFFFFE000
FFFFFFE000
FFFFFFE000
FFFFFFE000
FFFFFFE000
FFFFFFE000
FFFFFFE000
FFFFFFE000
FFFFFFE000
FFFFFFE000
FFFFFFE000
FFFFFFE000
FFFFFFE000
FFFFFFE000
FFFFFFE000
FFFFFFE000
FFFFFFE000
FFFFFFE000
FFFFFFE000
FFFFFFE000
FFFFFFE000
FFFFFFE000
FFFFFFE000
FFFFFFE000
FFFFFFE000
FFFFFFE000
FFFFFFE000
FFFFFFE000
FFFFFFE000
FFFFFFE000
FFFFFFE000
FFFFFFE000
FFFFFFE000
FFFFFFE000
FFFFFFE000
FFFFFFE000
FFFFFFE000
FFFFFFE000
FFFFFFE000
FFFFFFE000
FFFFFFE000
FFFFFFE000
FFFFFFE000
FFFFFFE000
FFFFFFE000
FFFFFFE000
FFFFFFE000
FFFFFFE000
FFFFFFE000
FFFFFFF000
FFFFFFF000
FFFFFFF800
FFFFFFFC00
FFFFFFFF00
FFFFFFFFE0
FFFFFFFFE0
FFFFFFFFE0
FFFFFFFFE0
7FFFFFFFE0
7FFFFFFFE0
7FFFFFFFE0
7FFFFFFFE0
3FFFFFFFE0
3FFFFFFFE0
3FFFFFFFE0
1FFFFFFFE0
1FFFFFFFE0
0FFFFFFFE0
0FFFFFFFE0
07FFFFFFE0
03FFFFFFE0
01FFFFFFE0
007FFFFFE0
001FFFFFE0
0007FFFFE0
00003FFFE0
ENDCHAR
STARTCHAR 0029
ENCODING 41
SWIDTH 216 0
DWIDTH 48 0
BBX 35 212 4 -31
BITMAP
FFFF800000
FFFFFC0000
FFFFFF0000
FFFFFFC000
FFFFFFF000
FFFFFFF800
FFFFFFFC00
FFFFFFFE00
FFFFFFFE00
FFFFFFFF00
FFFFFFFF00
FFFFFFFF80
FFFFFFFF80
FFFFFFFF80
FFFFFFFFC0
FFFFFFFFC0
FFFFFFFFC0
FFFFFFFFC0
FFFFFFFFC0
FFFFFFFFC0
FFFFFFFFE0
1FFFFFFFE0
07FFFFFFE0
03FFFFFFE0
01FFFFFFE0
01FFFFFFE0
00FFFFFFE0
00FFFFFFE0
00FFFFFFE0
00FFFFFFE0
00FFFFFFE0
00FFFFFFE0
00FFFFFFE0
00FFFFFFE0
00FFFFFFE0
00FFFFFFE0
00FFFFFFE0
00FFFFFFE0
00FFFFFFE0
00FFFFFFE0
00FFFFFFE0
00FFFFFFE0
00FFFFFFE0
00FFFFFFE0
00FFFFFFE0
00FFFFFFE0
00FFFFFFE0
00FFFFFFE0
00FFFFFFE0
00FFFFFFE0
00FFFFFFE0
00FFFFFFE0
00FFFFFFE0
00FFFFFFE0
00FFFFFFE0
00FFFFFFE0
00FFFFFFE0
00FFFFFFE0
00FFFFFFE0
00FFFFFFE0
00FFFFFFE0
00FFFFFFE0
00FFFFFFE0
00FFFFFFE0
00FFFFFFE0
00FFFFFFE0
00FFFFFFE0
00FFFFFFE0
00FFFFFFE0
00FFFFFFE0
00FFFFFFE0
00FFFFFFE0
00FFFFFFE0
00FFFFFFE0
00FFFFFFE0
00FFFFFFE0
00FFFFFFE0
00FFFFFFE0
00FFFFFFE0
00FFFFFFE0
00FFFFFFE0
00FFFFFFE0
00FFFFFFE0
00FFFFFFE0
00FFFFFFE0
00FFFFFFE0
00FFFFFFE0
00FFFFFFE0
00FFFFFFE0
00FFFFFFE0
00FFFFFFE0
00FFFFFFE0
00FFFFFFE0
00FFFFFFE0
00FFFFFFE0
00FFFFFFE0
00FFFFFFE0
00FFFFFFE0
00FFFFFFE0
00FFFFFFE0
00FFFFFFE0
00FFFFFFE0
00FFFFFFE0
00FFFFFFE0
00FFFFFFE0
00FFFFFFE0
00FFFFFFE0
00FFFFFFE0
00FFFFFFE0
00FFFFFFE0
00FFFFFFE0
00FFFFFFE0
00FFFFFFE0
00FFFFFFE0
00FFFFFFE0
00FFFFFFE0
00FFFFFFE0
00FFFFFFE0
00FFFFFFE0
00FFFFFFE0
00FFFFFFE0
00FFFFFFE0
00FFFFFFE0
00FFFFFFE0
00FFFFFFE0
00FFFFFFE0
00FFFFFFE0
00FFFFFFE0
00FFFFFFE0
00FFFFFFE0
00FFFFFFE0
00FFFFFFE0
00FFFFFFE0
00FFFFFFE0
00FFFFFFE0
00FFFFFFE0
00FFFFFFE0
00FFFFFFE0
00FFFFFFE0
00FFFFFFE0
00FFFFFFE0
00FFFFFFE0
00FFFFFFE0
00FFFFFFE0
00FFFFFFE0
00FFFFFFE0
00FFFFFFE0
00FFFFFFE0
00FFFFFFE0
00FFFFFFE0
00FFFFFFE0
00FFFFFFE0
00FFFFFFE0
00FFFFFFE0
00FFFFFFE0
00FFFFFFE0
00FFFFFFE0
00FFFFFFE0
00FFFFFFE0
00FFFFFFE0
00FFFFFFE0
00FFFFFFE0
00FFFFFFE0
00FFFFFFE0
00FFFFFFE0
00FFFFFFE0
00FFFFFFE0
00FFFFFFE0
00FFFFFFE0
00FFFFFFE0
00FFFFFFE0
00FFFFFFE0
00FFFFFFE0
00FFFFFFE0
00FFFFFFE0
00FFFFFFE0
00FFFFFFE0
00FFFFFFE0
00FFFFFFE0
00FFFFFFE0
00FFFFFFE0
00FFFFFFE0
00FFFFFFE0
00FFFFFFE0
00FFFFFFE0
00FFFFFFE0
01FFFFFFE0
01FFFFFFE0
03FFFFFFE0
07FFFFFFE0
3FFFFFFFE0
FFFFFFFFE0
FFFFFFFFC0
FFFFFFFFC0
FFFFFFFFC0
FFFFFFFFC0
FFFFFFFFC0
FFFFFFFFC0
FFFFFFFF80
FFFFFFFF80
FFFFFFFF80
FFFFFFFF00
FFFFFFFF00
FFFFFFFE00
FFFFFFFE00
FFFFFFFC00
FFFFFFF800
FFFFFFF000
FFFFFFC000
FFFFFF0000
FFFFFC0000
FFFF800000
ENDCHAR
STARTCHAR 002A
ENCODING 42
SWIDTH 351 0
DWIDTH 78 0
BBX 68 68 5 113
BITMAP
0000001FFFC0000000
0000001FFFC0000000
0000001FFFC0000000
0000001FFFC0000000
0000001FFFC0000000
0000001FFFC0000000
0000001FFFC0000000
0000001FFFC0000000
0000001FFFC0000000
0000001FFFC0000000
0000001FFFC0000000
0000001FFFC0000000
0000001FFFC0000000
0000001FFFC0000000
0000001FFFC0000000
0000001FFFC0000000
0000001FFFC0000000
0C00001FFFC0000300
0F80001FFFC0001F00
0FF0001FFFC000FF00
0FFE001FFFC007FF80
1FFFC01FFFC03FFF80
1FFFF81FFFC1FFFF80
1FFFFF1FFFCFFFFF80
3FFFFFFFFFFFFFFFC0
3FFFFFFFFFFFFFFFC0
3FFFFFFFFFFFFFFFC0
7FFFFFFFFFFFFFFFE0
7FFFFFFFFFFFFFFFE0
7FFFFFFFFFFFFFFFE0
7FFFFFFFFFFFFFFFF0
FFFFFFFFFFFFFFFFF0
FFFFFFFFFFFFFFFFF0
1FFFFFFFFFFFFFFF80
03FFFFFFFFFFFFFC00
007FFFFFFFFFFFE000
000FFFFFFFFFFF0000
0000FFFFFFFFF00000
00001FFFFFFF800000
000003FFFFFC000000
000007FFFFFE000000
000007FFFFFE000000
00000FFFFFFF000000
00001FFFFFFF800000
00001FFFFFFFC00000
00003FFFFFFFC00000
00007FFFFFFFE00000
0000FFFFFFFFF00000
0000FFFFFFFFF80000
0001FFFFBFFFF80000
0003FFFF9FFFFC0000
0007FFFF0FFFFE0000
0007FFFE07FFFF0000
000FFFFE07FFFF8000
001FFFFC03FFFF8000
003FFFF801FFFFC000
003FFFF801FFFFE000
007FFFF000FFFFF000
00FFFFE0007FFFF000
007FFFC0007FFFE000
003FFFC0003FFFC000
000FFF80001FFF0000
0007FF00000FFE0000
0003FF00000FFC0000
0000FE000007F00000
00007C000003E00000
00001C000003C00000
000008000001000000
ENDCHAR
STARTCHAR 002B
ENCODING 43
SWIDTH 832 0
DWIDTH 185 0
BBX 127 133 29 -1
BITMAP
00000000000000FFFF00000000000000
00000000000000FFFF00000000000000
00000000000000FFFF00000000000000
00000000000000FFFF00000000000000
00000000000000FFFF00000000000000
00000000000000FFFF00000000000000
00000000000000FFFF00000000000000
00000000000000FFFF00000000000000
00000000000000FFFF00000000000000
00000000000000FFFF00000000000000
00000000000000FFFF00000000000000
00000000000000FFFF00000000000000
00000000000000FFFF00000000000000
00000000000000FFFF00000000000000
00000000000000FFFF00000000000000
00000000000000FFFF00000000000000
00000000000000FFFF00000000000000
00000000000000FFFF00000000000000
00000000000000FFFF00000000000000
00000000000000FFFF00000000000000
00000000000000FFFF00000000000000
00000000000000FFFF00000000000000
00000000000000FFFF00000000000000
00000000000000FFFF00000000000000
00000000000000FFFF00000000000000
00000000000000FFFF00000000000000
00000000000000FFFF00000000000000
00000000000000FFFF00000000000000
00000000000000FFFF00000000000000
00000000000000FFFF00000000000000
00000000000000FFFF00000000000000
00000000000000FFFF00000000000000
00000000000000FFFF00000000000000
00000000000000FFFF00000000000000
00000000000000FFFF00000000000000
00000000000000FFFF00000000000000
00000000000000FFFF00000000000000
00000000000000FFFF00000000000000
00000000000000FFFF00000000000000
00000000000000FFFF00000000000000
00000000000000FFFF00000000000000
00000000000000FFFF00000000000000
00000000000000FFFF00000000000000
00000000000000FFFF00000000000000
00000000000000FFFF00000000000000
00000000000000FFFF00000000000000
00000000000000FFFF00000000000000
00000000000000FFFF00000000000000
00000000000000FFFF00000000000000
00000000000000FFFF00000000000000
00000000000000FFFF00000000000000
00000000000000FFFF00000000000000
00000000000000FFFF00000000000000
00000000000000FFFF00000000000000
00000000000000FFFF00000000000000
00000000000000FFFF00000000000000
00000000000000FFFF00000000000000
00000000000000FFFF00000000000000
FFFFFFFFFFFFFFFFFFFFFFFFFFFFFFFE
FFFFFFFFFFFFFFFFFFFFFFFFFFFFFFFE
FFFFFFFFFFFFFFFFFFFFFFFFFFFFFFFE
FFFFFFFFFFFFFFFFFFFFFFFFFFFFFFFE
FFFFFFFFFFFFFFFFFFFFFFFFFFFFFFFE
FFFFFFFFFFFFFFFFFFFFFFFFFFFFFFFE
FFFFFFFFFFFFFFFFFFFFFFFFFFFFFFFE
FFFFFFFFFFFFFFFFFFFFFFFFFFFFFFFE
FFFFFFFFFFFFFFFFFFFFFFFFFFFFFFFE
FFFFFFFFFFFFFFFFFFFFFFFFFFFFFFFE
FFFFFFFFFFFFFFFFFFFFFFFFFFFFFFFE
FFFFFFFFFFFFFFFFFFFFFFFFFFFFFFFE
FFFFFFFFFFFFFFFFFFFFFFFFFFFFFFFE
FFFFFFFFFFFFFFFFFFFFFFFFFFFFFFFE
FFFFFFFFFFFFFFFFFFFFFFFFFFFFFFFE
FFFFFFFFFFFFFFFFFFFFFFFFFFFFFFFE
00000000000000FFFF00000000000000
00000000000000FFFF00000000000000
00000000000000FFFF00000000000000
00000000000000FFFF00000000000000
00000000000000FFFF00000000000000
00000000000000FFFF00000000000000
00000000000000FFFF00000000000000
00000000000000FFFF00000000000000
00000000000000FFFF00000000000000
00000000000000FFFF00000000000000
00000000000000FFFF00000000000000
00000000000000FFFF00000000000000
00000000000000FFFF00000000000000
00000000000000FFFF00000000000000
00000000000000FFFF00000000000000
00000000000000FFFF00000000000000
00000000000000FFFF00000000000000
00000000000000FFFF00000000000000
00000000000000FFFF00000000000000
00000000000000FFFF00000000000000
00000000000000FFFF00000000000000
00000000000000FFFF00000000000000
00000000000000FFFF00000000000000
00000000000000FFFF00000000000000
00000000000000FFFF00000000000000
00000000000000FFFF00000000000000
00000000000000FFFF00000000000000
00000000000000FFFF00000000000000
00000000000000FFFF00000000000000
00000000000000FFFF00000000000000
00000000000000FFFF00000000000000
00000000000000FFFF00000000000000
00000000000000FFFF00000000000000
00000000000000FFFF00000000000000
00000000000000FFFF00000000000000
00000000000000FFFF00000000000000
00000000000000FFFF00000000000000
00000000000000FFFF00000000000000
00000000000000FFFF00000000000000
00000000000000FFFF00000000000000
00000000000000FFFF00000000000000
00000000000000FFFF00000000000000
00000000000000FFFF00000000000000
00000000000000FFFF00000000000000
00000000000000FFFF00000000000000
00000000000000FFFF00000000000000
00000000000000FFFF00000000000000
00000000000000FFFF00000000000000
00000000000000FFFF00000000000000
00000000000000FFFF00000000000000
00000000000000FFFF00000000000000
00000000000000FFFF00000000000000
00000000000000FFFF00000000000000
00000000000000FFFF00000000000000
00000000000000FFFF00000000000000
00000000000000FFFF00000000000000
00000000000000FFFF00000000000000
00000000000000FFFF00000000000000
00000000000000FFFF00000000000000
ENDCHAR
STARTCHAR 002C
ENCODING 44
SWIDTH 189 0
DWIDTH 42 0
BBX 24 63 10 -31
BITMAP
FFFFFF
FFFFFF
FFFFFF
FFFFFF
FFFFFF
FFFFFF
FFFFFF
FFFFFF
FFFFFF
FFFFFF
FFFFFF
FFFFFF
FFFFFF
FFFFFF
FFFFFF
FFFFFF
FFFFFF
FFFFFF
FFFFFF
FFFFFF
FFFFFF
FFFFFF
FFFFFF
FFFFFF
FFFFFF
FFFFFF
FFFFFF
FFFFFF
FFFFFF
FFFFFF
FFFFFF
000FFF
000FFF
000FFF
000FFF
000FFF
000FFF
001FFE
001FFE
001FFE
001FFE
001FFE
001FFE
003FFE
003FFE
007FFC
00FFFC
01FFFC
03FFFC
1FFFF8
FFFFF8
FFFFF0
FFFFF0
FFFFE0
FFFFE0
FFFFC0
FFFF80
FFFF00
FFFE00
FFFC00
FFF000
FF8000
F80000
ENDCHAR
STARTCHAR 002D
ENCODING 45
SWIDTH 252 0
DWIDTH 56 0
BBX 41 24 7 62
BITMAP
FFFFFFFFFF80
FFFFFFFFFF80
FFFFFFFFFF80
FFFFFFFFFF80
FFFFFFFFFF80
FFFFFFFFFF80
FFFFFFFFFF80
FFFFFFFFFF80
FFFFFFFFFF80
FFFFFFFFFF80
FFFFFFFFFF80
FFFFFFFFFF80
FFFFFFFFFF80
FFFFFFFFFF80
FFFFFFFFFF80
FFFFFFFFFF80
FFFFFFFFFF80
FFFFFFFFFF80
FFFFFFFFFF80
FFFFFFFFFF80
FFFFFFFFFF80
FFFFFFFFFF80
FFFFFFFFFF80
FFFFFFFFFF80
ENDCHAR
STARTCHAR 002E
ENCODING 46
SWIDTH 189 0
DWIDTH 42 0
BBX 24 33 10 -1
BITMAP
FFFFFF
FFFFFF
FFFFFF
FFFFFF
FFFFFF
FFFFFF
FFFFFF
FFFFFF
FFFFFF
FFFFFF
FFFFFF
FFFFFF
FFFFFF
FFFFFF
FFFFFF
FFFFFF
FFFFFF
FFFFFF
FFFFFF
FFFFFF
FFFFFF
FFFFFF
FFFFFF
FFFFFF
FFFFFF
FFFFFF
FFFFFF
FFFFFF
FFFFFF
FFFFFF
FFFFFF
FFFFFF
FFFFFF
ENDCHAR
STARTCHAR 002F
ENCODING 47
SWIDTH 270 0
DWIDTH 60 0
BBX 57 202 1 -21
BITMAP
00000000007FFF80
00000000007FFF00
00000000007FFF00
00000000007FFF00
0000000000FFFF00
0000000000FFFF00
0000000000FFFE00
0000000000FFFE00
0000000000FFFE00
0000000001FFFE00
0000000001FFFE00
0000000001FFFC00
0000000001FFFC00
0000000001FFFC00
0000000003FFFC00
0000000003FFFC00
0000000003FFF800
0000000003FFF800
0000000003FFF800
0000000007FFF800
0000000007FFF800
0000000007FFF000
0000000007FFF000
0000000007FFF000
000000000FFFF000
000000000FFFE000
000000000FFFE000
000000000FFFE000
000000000FFFE000
000000001FFFE000
000000001FFFC000
000000001FFFC000
000000001FFFC000
000000001FFFC000
000000003FFFC000
000000003FFF8000
000000003FFF8000
000000003FFF8000
000000007FFF8000
000000007FFF8000
000000007FFF0000
000000007FFF0000
000000007FFF0000
00000000FFFF0000
00000000FFFF0000
00000000FFFE0000
00000000FFFE0000
00000000FFFE0000
00000001FFFE0000
00000001FFFE0000
00000001FFFC0000
00000001FFFC0000
00000001FFFC0000
00000003FFFC0000
00000003FFFC0000
00000003FFF80000
00000003FFF80000
00000003FFF80000
00000007FFF80000
00000007FFF80000
00000007FFF00000
00000007FFF00000
00000007FFF00000
0000000FFFF00000
0000000FFFF00000
0000000FFFE00000
0000000FFFE00000
0000000FFFE00000
0000001FFFE00000
0000001FFFC00000
0000001FFFC00000
0000001FFFC00000
0000001FFFC00000
0000003FFFC00000
0000003FFF800000
0000003FFF800000
0000003FFF800000
0000003FFF800000
0000007FFF800000
0000007FFF000000
0000007FFF000000
0000007FFF000000
0000007FFF000000
000000FFFF000000
000000FFFE000000
000000FFFE000000
000000FFFE000000
000001FFFE000000
000001FFFE000000
000001FFFC000000
000001FFFC000000
000001FFFC000000
000003FFFC000000
000003FFFC000000
000003FFF8000000
000003FFF8000000
000003FFF8000000
000007FFF8000000
000007FFF8000000
000007FFF0000000
000007FFF0000000
000007FFF0000000
00000FFFF0000000
00000FFFF0000000
00000FFFE0000000
00000FFFE0000000
00000FFFE0000000
00001FFFE0000000
00001FFFE0000000
00001FFFC0000000
00001FFFC0000000
00001FFFC0000000
00003FFFC0000000
00003FFF80000000
00003FFF80000000
00003FFF80000000
00003FFF80000000
00007FFF80000000
00007FFF00000000
00007FFF00000000
00007FFF00000000
00007FFF00000000
0000FFFF00000000
0000FFFE00000000
0000FFFE00000000
0000FFFE00000000
0000FFFE00000000
0001FFFE00000000
0001FFFC00000000
0001FFFC00000000
0001FFFC00000000
0003FFFC00000000
0003FFFC00000000
0003FFF800000000
0003FFF800000000
0003FFF800000000
0007FFF800000000
0007FFF800000000
0007FFF000000000
0007FFF000000000
0007FFF000000000
000FFFF000000000
000FFFF000000000
000FFFE000000000
000FFFE000000000
000FFFE000000000
001FFFE000000000
001FFFE000000000
001FFFC000000000
001FFFC000000000
001FFFC000000000
003FFFC000000000
003FFFC000000000
003FFF8000000000
003FFF8000000000
003FFF8000000000
007FFF8000000000
007FFF0000000000
007FFF0000000000
007FFF0000000000
007FFF0000000000
00FFFF0000000000
00FFFE0000000000
00FFFE0000000000
00FFFE0000000000
00FFFE0000000000
01FFFE0000000000
01FFFC0000000000
01FFFC0000000000
01FFFC0000000000
01FFFC0000000000
03FFFC0000000000
03FFF80000000000
03FFF80000000000
03FFF80000000000
07FFF80000000000
07FFF80000000000
07FFF00000000000
07FFF00000000000
07FFF00000000000
0FFFF00000000000
0FFFF00000000000
0FFFE00000000000
0FFFE00000000000
0FFFE00000000000
1FFFE00000000000
1FFFE00000000000
1FFFC00000000000
1FFFC00000000000
1FFFC00000000000
3FFFC00000000000
3FFFC00000000000
3FFF800000000000
3FFF800000000000
3FFF800000000000
7FFF800000000000
7FFF800000000000
7FFF000000000000
7FFF000000000000
7FFF000000000000
FFFF000000000000
FFFF000000000000
ENDCHAR
STARTCHAR 0030
ENCODING 48
SWIDTH 382 0
DWIDTH 85 0
BBX 69 182 8 -1
BITMAP
000001FFFFFC000000
0000FFFFFFFFF80000
000FFFFFFFFFFF8000
007FFFFFFFFFFFE000
01FFFFFFFFFFFFF800
03FFFFFFFFFFFFFE00
07FFFFFFFFFFFFFE00
0FFFFFFFFFFFFFFF00
0FFFFFFFFFFFFFFF80
1FFFFFFFFFFFFFFF80
1FFFFFFFFFFFFFFFC0
1FFFFFFFFFFFFFFFC0
3FFFFFFFFFFFFFFFC0
3FFFFFFFFFFFFFFFE0
3FFFFFFFFFFFFFFFE0
7FFFFFFFFFFFFFFFE0
7FFFFFFFFFFFFFFFE0
7FFFFFFFFFFFFFFFF0
7FFFFFFFFFFFFFFFF0
7FFFFFFFFFFFFFFFF0
7FFFFFFFFFFFFFFFF0
7FFFFFFF07FFFFFFF0
FFFFFFFE03FFFFFFF0
FFFFFFFC01FFFFFFF0
FFFFFFFC01FFFFFFF8
FFFFFFF801FFFFFFF8
FFFFFFF800FFFFFFF8
FFFFFFF800FFFFFFF8
FFFFFFF800FFFFFFF8
FFFFFFF800FFFFFFF8
FFFFFFF800FFFFFFF8
FFFFFFF800FFFFFFF8
FFFFFFF800FFFFFFF8
FFFFFFF800FFFFFFF8
FFFFFFF800FFFFFFF8
FFFFFFF800FFFFFFF8
FFFFFFF800FFFFFFF8
FFFFFFF800FFFFFFF8
FFFFFFF800FFFFFFF8
FFFFFFF800FFFFFFF8
FFFFFFF800FFFFFFF8
FFFFFFF800FFFFFFF8
FFFFFFF800FFFFFFF8
FFFFFFF800FFFFFFF8
FFFFFFF800FFFFFFF8
FFFFFFF800FFFFFFF8
FFFFFFF800FFFFFFF8
FFFFFFF800FFFFFFF8
FFFFFFF800FFFFFFF8
FFFFFFF800FFFFFFF8
FFFFFFF800FFFFFFF8
FFFFFFF800FFFFFFF8
FFFFFFF800FFFFFFF8
FFFFFFF800FFFFFFF8
FFFFFFF800FFFFFFF8
FFFFFFF800FFFFFFF8
FFFFFFF800FFFFFFF8
FFFFFFF800FFFFFFF8
FFFFFFF800FFFFFFF8
FFFFFFF800FFFFFFF8
FFFFFFF800FFFFFFF8
FFFFFFF800FFFFFFF8
FFFFFFF800FFFFFFF8
FFFFFFF800FFFFFFF8
FFFFFFF800FFFFFFF8
FFFFFFF800FFFFFFF8
FFFFFFF800FFFFFFF8
FFFFFFF800FFFFFFF8
FFFFFFF800FFFFFFF8
FFFFFFF800FFFFFFF8
FFFFFFF800FFFFFFF8
FFFFFFF800FFFFFFF8
FFFFFFF800FFFFFFF8
FFFFFFF800FFFFFFF8
FFFFFFF800FFFFFFF8
FFFFFFF800FFFFFFF8
FFFFFFF800FFFFFFF8
FFFFFFF800FFFFFFF8
FFFFFFF800FFFFFFF8
FFFFFFF800FFFFFFF8
FFFFFFF800FFFFFFF8
FFFFFFF800FFFFFFF8
FFFFFFF800FFFFFFF8
FFFFFFF800FFFFFFF8
FFFFFFF800FFFFFFF8
FFFFFFF800FFFFFFF8
FFFFFFF800FFFFFFF8
FFFFFFF800FFFFFFF8
FFFFFFF800FFFFFFF8
FFFFFFF800FFFFFFF8
FFFFFFF800FFFFFFF8
FFFFFFF800FFFFFFF8
FFFFFFF800FFFFFFF8
FFFFFFF800FFFFFFF8
FFFFFFF800FFFFFFF8
FFFFFFF800FFFFFFF8
FFFFFFF800FFFFFFF8
FFFFFFF800FFFFFFF8
FFFFFFF800FFFFFFF8
FFFFFFF800FFFFFFF8
FFFFFFF800FFFFFFF8
FFFFFFF800FFFFFFF8
FFFFFFF800FFFFFFF8
FFFFFFF800FFFFFFF8
FFFFFFF800FFFFFFF8
FFFFFFF800FFFFFFF8
FFFFFFF800FFFFFFF8
FFFFFFF800FFFFFFF8
FFFFFFF800FFFFFFF8
FFFFFFF800FFFFFFF8
FFFFFFF800FFFFFFF8
FFFFFFF800FFFFFFF8
FFFFFFF800FFFFFFF8
FFFFFFF800FFFFFFF8
FFFFFFF800FFFFFFF8
FFFFFFF800FFFFFFF8
FFFFFFF800FFFFFFF8
FFFFFFF800FFFFFFF8
FFFFFFF800FFFFFFF8
FFFFFFF800FFFFFFF8
FFFFFFF800FFFFFFF8
FFFFFFF800FFFFFFF8
FFFFFFF800FFFFFFF8
FFFFFFF800FFFFFFF8
FFFFFFF800FFFFFFF8
FFFFFFF800FFFFFFF8
FFFFFFF800FFFFFFF8
FFFFFFF800FFFFFFF8
FFFFFFF800FFFFFFF8
FFFFFFF800FFFFFFF8
FFFFFFF800FFFFFFF8
FFFFFFF800FFFFFFF8
FFFFFFF800FFFFFFF8
FFFFFFF800FFFFFFF8
FFFFFFF800FFFFFFF8
FFFFFFF800FFFFFFF8
FFFFFFF800FFFFFFF8
FFFFFFF800FFFFFFF8
FFFFFFF800FFFFFFF8
FFFFFFF800FFFFFFF8
FFFFFFF800FFFFFFF8
FFFFFFF800FFFFFFF8
FFFFFFF800FFFFFFF8
FFFFFFF800FFFFFFF8
FFFFFFF800FFFFFFF8
FFFFFFF800FFFFFFF8
FFFFFFF800FFFFFFF8
FFFFFFF800FFFFFFF8
FFFFFFF800FFFFFFF8
FFFFFFF800FFFFFFF8
FFFFFFF800FFFFFFF8
FFFFFFF800FFFFFFF8
FFFFFFF800FFFFFFF8
FFFFFFF800FFFFFFF8
FFFFFFF800FFFFFFF8
FFFFFFF800FFFFFFF8
FFFFFFFC01FFFFFFF8
FFFFFFFC01FFFFFFF8
FFFFFFFE03FFFFFFF0
FFFFFFFF07FFFFFFF0
7FFFFFFFFFFFFFFFF0
7FFFFFFFFFFFFFFFF0
7FFFFFFFFFFFFFFFF0
7FFFFFFFFFFFFFFFF0
7FFFFFFFFFFFFFFFF0
7FFFFFFFFFFFFFFFE0
3FFFFFFFFFFFFFFFE0
3FFFFFFFFFFFFFFFE0
3FFFFFFFFFFFFFFFE0
3FFFFFFFFFFFFFFFC0
1FFFFFFFFFFFFFFFC0
1FFFFFFFFFFFFFFFC0
0FFFFFFFFFFFFFFF80
0FFFFFFFFFFFFFFF80
07FFFFFFFFFFFFFF00
03FFFFFFFFFFFFFE00
01FFFFFFFFFFFFFC00
00FFFFFFFFFFFFF800
003FFFFFFFFFFFE000
000FFFFFFFFFFF8000
0000FFFFFFFFF80000
000001FFFFFC000000
ENDCHAR
STARTCHAR 0031
ENCODING 49
SWIDTH 270 0
DWIDTH 60 0
BBX 44 182 3 -1
BITMAP
000007FFFFF0
000007FFFFF0
000007FFFFF0
000007FFFFF0
00000FFFFFF0
00000FFFFFF0
00000FFFFFF0
00001FFFFFF0
00001FFFFFF0
00001FFFFFF0
00003FFFFFF0
00003FFFFFF0
00007FFFFFF0
0000FFFFFFF0
0000FFFFFFF0
0001FFFFFFF0
0003FFFFFFF0
0007FFFFFFF0
000FFFFFFFF0
001FFFFFFFF0
007FFFFFFFF0
00FFFFFFFFF0
07FFFFFFFFF0
3FFFFFFFFFF0
FFFFFFFFFFF0
FFFFFFFFFFF0
FFFFFFFFFFF0
FFFFFFFFFFF0
FFFFFFFFFFF0
FFFFFFFFFFF0
FFFFFFFFFFF0
FFFFFFFFFFF0
FFFFFFFFFFF0
FFFFFFFFFFF0
FFFFFFFFFFF0
FFFFFFFFFFF0
FFFFFFFFFFF0
FFFFFFFFFFF0
FFFFFFFFFFF0
FFFFFFFFFFF0
FFFFFFFFFFF0
FFFFFFFFFFF0
FFFFFFFFFFF0
FFFFFFFFFFF0
FFFFFFFFFFF0
FFFFFFFFFFF0
0001FFFFFFF0
0001FFFFFFF0
0001FFFFFFF0
0001FFFFFFF0
0001FFFFFFF0
0001FFFFFFF0
0001FFFFFFF0
0001FFFFFFF0
0001FFFFFFF0
0001FFFFFFF0
0001FFFFFFF0
0001FFFFFFF0
0001FFFFFFF0
0001FFFFFFF0
0001FFFFFFF0
0001FFFFFFF0
0001FFFFFFF0
0001FFFFFFF0
0001FFFFFFF0
0001FFFFFFF0
0001FFFFFFF0
0001FFFFFFF0
0001FFFFFFF0
0001FFFFFFF0
0001FFFFFFF0
0001FFFFFFF0
0001FFFFFFF0
0001FFFFFFF0
0001FFFFFFF0
0001FFFFFFF0
0001FFFFFFF0
0001FFFFFFF0
0001FFFFFFF0
0001FFFFFFF0
0001FFFFFFF0
0001FFFFFFF0
0001FFFFFFF0
0001FFFFFFF0
0001FFFFFFF0
0001FFFFFFF0
0001FFFFFFF0
0001FFFFFFF0
0001FFFFFFF0
0001FFFFFFF0
0001FFFFFFF0
0001FFFFFFF0
0001FFFFFFF0
0001FFFFFFF0
0001FFFFFFF0
0001FFFFFFF0
0001FFFFFFF0
0001FFFFFFF0
0001FFFFFFF0
0001FFFFFFF0
0001FFFFFFF0
0001FFFFFFF0
0001FFFFFFF0
0001FFFFFFF0
0001FFFFFFF0
0001FFFFFFF0
0001FFFFFFF0
0001FFFFFFF0
0001FFFFFFF0
0001FFFFFFF0
0001FFFFFFF0
0001FFFFFFF0
0001FFFFFFF0
0001FFFFFFF0
0001FFFFFFF0
0001FFFFFFF0
0001FFFFFFF0
0001FFFFFFF0
0001FFFFFFF0
0001FFFFFFF0
0001FFFFFFF0
0001FFFFFFF0
0001FFFFFFF0
0001FFFFFFF0
0001FFFFFFF0
0001FFFFFFF0
0001FFFFFFF0
0001FFFFFFF0
0001FFFFFFF0
0001FFFFFFF0
0001FFFFFFF0
0001FFFFFFF0
0001FFFFFFF0
0001FFFFFFF0
0001FFFFFFF0
0001FFFFFFF0
0001FFFFFFF0
0001FFFFFFF0
0001FFFFFFF0
0001FFFFFFF0
0001FFFFFFF0
0001FFFFFFF0
0001FFFFFFF0
0001FFFFFFF0
0001FFFFFFF0
0001FFFFFFF0
0001FFFFFFF0
0001FFFFFFF0
0001FFFFFFF0
0001FFFFFFF0
0001FFFFFFF0
0001FFFFFFF0
0001FFFFFFF0
0001FFFFFFF0
0001FFFFFFF0
0001FFFFFFF0
0001FFFFFFF0
0001FFFFFFF0
0001FFFFFFF0
0001FFFFFFF0
0001FFFFFFF0
0001FFFFFFF0
0001FFFFFFF0
0001FFFFFFF0
0001FFFFFFF0
0001FFFFFFF0
0001FFFFFFF0
0001FFFFFFF0
0001FFFFFFF0
0001FFFFFFF0
0001FFFFFFF0
0001FFFFFFF0
0001FFFFFFF0
0001FFFFFFF0
0001FFFFFFF0
0001FFFFFFF0
0001FFFFFFF0
0001FFFFFFF0
0001FFFFFFF0
0001FFFFFFF0
0001FFFFFFF0
0001FFFFFFF0
ENDCHAR
STARTCHAR 0032
ENCODING 50
SWIDTH 382 0
DWIDTH 85 0
BBX 69 182 8 -1
BITMAP
000001FFFFFC000000
0000FFFFFFFFF00000
000FFFFFFFFFFF0000
007FFFFFFFFFFFE000
01FFFFFFFFFFFFF800
03FFFFFFFFFFFFFC00
07FFFFFFFFFFFFFE00
0FFFFFFFFFFFFFFF00
0FFFFFFFFFFFFFFF80
1FFFFFFFFFFFFFFF80
1FFFFFFFFFFFFFFFC0
1FFFFFFFFFFFFFFFC0
3FFFFFFFFFFFFFFFC0
3FFFFFFFFFFFFFFFE0
3FFFFFFFFFFFFFFFE0
7FFFFFFFFFFFFFFFE0
7FFFFFFFFFFFFFFFE0
7FFFFFFFFFFFFFFFF0
7FFFFFFFFFFFFFFFF0
7FFFFFFFFFFFFFFFF0
7FFFFFFFFFFFFFFFF0
7FFFFFFF07FFFFFFF0
FFFFFFFE03FFFFFFF0
FFFFFFFC01FFFFFFF0
FFFFFFFC01FFFFFFF0
FFFFFFF801FFFFFFF8
FFFFFFF800FFFFFFF8
FFFFFFF800FFFFFFF8
FFFFFFF800FFFFFFF8
FFFFFFF800FFFFFFF8
FFFFFFF800FFFFFFF8
FFFFFFF800FFFFFFF8
FFFFFFF800FFFFFFF8
FFFFFFF800FFFFFFF8
FFFFFFF800FFFFFFF8
FFFFFFF800FFFFFFF8
FFFFFFF800FFFFFFF8
FFFFFFF800FFFFFFF8
FFFFFFF800FFFFFFF8
FFFFFFF800FFFFFFF8
FFFFFFF800FFFFFFF8
FFFFFFF800FFFFFFF8
FFFFFFF800FFFFFFF8
FFFFFFF800FFFFFFF8
FFFFFFF800FFFFFFF8
FFFFFFF800FFFFFFF8
FFFFFFF800FFFFFFF8
FFFFFFF800FFFFFFF8
FFFFFFF800FFFFFFF8
FFFFFFF800FFFFFFF8
FFFFFFF800FFFFFFF8
FFFFFFF800FFFFFFF8
FFFFFFF800FFFFFFF8
FFFFFFF800FFFFFFF8
FFFFFFF800FFFFFFF8
FFFFFFF800FFFFFFF8
FFFFFFF800FFFFFFF8
FFFFFFF800FFFFFFF8
FFFFFFF800FFFFFFF8
FFFFFFF800FFFFFFF8
FFFFFFF800FFFFFFF8
FFFFFFF800FFFFFFF8
0000000000FFFFFFF8
0000000000FFFFFFF8
0000000000FFFFFFF8
0000000000FFFFFFF8
0000000000FFFFFFF0
0000000001FFFFFFF0
0000000001FFFFFFF0
0000000001FFFFFFF0
0000000003FFFFFFF0
0000000003FFFFFFF0
0000000007FFFFFFE0
0000000007FFFFFFE0
000000000FFFFFFFE0
000000000FFFFFFFE0
000000001FFFFFFFC0
000000001FFFFFFFC0
000000003FFFFFFFC0
000000003FFFFFFF80
000000003FFFFFFF80
000000007FFFFFFF80
000000007FFFFFFF00
00000000FFFFFFFF00
00000000FFFFFFFF00
00000001FFFFFFFE00
00000001FFFFFFFE00
00000001FFFFFFFC00
00000003FFFFFFFC00
00000003FFFFFFF800
00000007FFFFFFF800
00000007FFFFFFF800
0000000FFFFFFFF000
0000000FFFFFFFF000
0000000FFFFFFFE000
0000001FFFFFFFE000
0000001FFFFFFFC000
0000003FFFFFFFC000
0000003FFFFFFFC000
0000007FFFFFFF8000
0000007FFFFFFF8000
0000007FFFFFFF0000
000000FFFFFFFF0000
000000FFFFFFFE0000
000001FFFFFFFE0000
000001FFFFFFFE0000
000003FFFFFFFC0000
000003FFFFFFFC0000
000003FFFFFFF80000
000007FFFFFFF80000
000007FFFFFFF00000
00000FFFFFFFF00000
00000FFFFFFFF00000
00001FFFFFFFE00000
00001FFFFFFFE00000
00001FFFFFFFC00000
00003FFFFFFFC00000
00003FFFFFFF800000
00007FFFFFFF800000
00007FFFFFFF800000
0000FFFFFFFF000000
0000FFFFFFFF000000
0000FFFFFFFE000000
0001FFFFFFFE000000
0001FFFFFFFC000000
0003FFFFFFFC000000
0003FFFFFFFC000000
0007FFFFFFF8000000
0007FFFFFFF8000000
0007FFFFFFF0000000
000FFFFFFFF0000000
000FFFFFFFE0000000
001FFFFFFFE0000000
001FFFFFFFC0000000
003FFFFFFFC0000000
003FFFFFFFC0000000
003FFFFFFF80000000
007FFFFFFF80000000
007FFFFFFF00000000
00FFFFFFFF00000000
00FFFFFFFE00000000
01FFFFFFFE00000000
01FFFFFFFE00000000
01FFFFFFFC00000000
03FFFFFFFC00000000
03FFFFFFF800000000
07FFFFFFF800000000
07FFFFFFF000000000
0FFFFFFFF000000000
0FFFFFFFF000000000
0FFFFFFFE000000000
1FFFFFFFE000000000
1FFFFFFFC000000000
3FFFFFFFC000000000
3FFFFFFF8000000000
7FFFFFFF8000000000
7FFFFFFF8000000000
7FFFFFFF0000000000
FFFFFFFF0000000000
FFFFFFFFFFFFFFFFF8
FFFFFFFFFFFFFFFFF8
FFFFFFFFFFFFFFFFF8
FFFFFFFFFFFFFFFFF8
FFFFFFFFFFFFFFFFF8
FFFFFFFFFFFFFFFFF8
FFFFFFFFFFFFFFFFF8
FFFFFFFFFFFFFFFFF8
FFFFFFFFFFFFFFFFF8
FFFFFFFFFFFFFFFFF8
FFFFFFFFFFFFFFFFF8
FFFFFFFFFFFFFFFFF8
FFFFFFFFFFFFFFFFF8
FFFFFFFFFFFFFFFFF8
FFFFFFFFFFFFFFFFF8
FFFFFFFFFFFFFFFFF8
FFFFFFFFFFFFFFFFF8
FFFFFFFFFFFFFFFFF8
FFFFFFFFFFFFFFFFF8
FFFFFFFFFFFFFFFFF8
FFFFFFFFFFFFFFFFF8
FFFFFFFFFFFFFFFFF8
FFFFFFFFFFFFFFFFF8
ENDCHAR
STARTCHAR 0033
ENCODING 51
SWIDTH 382 0
DWIDTH 85 0
BBX 69 182 8 -1
BITMAP
000001FFFFF8000000
0000FFFFFFFFF00000
000FFFFFFFFFFF0000
003FFFFFFFFFFFC000
00FFFFFFFFFFFFF000
03FFFFFFFFFFFFFC00
07FFFFFFFFFFFFFE00
07FFFFFFFFFFFFFF00
0FFFFFFFFFFFFFFF00
1FFFFFFFFFFFFFFF80
1FFFFFFFFFFFFFFF80
1FFFFFFFFFFFFFFFC0
3FFFFFFFFFFFFFFFC0
3FFFFFFFFFFFFFFFC0
3FFFFFFFFFFFFFFFE0
7FFFFFFFFFFFFFFFE0
7FFFFFFFFFFFFFFFE0
7FFFFFFFFFFFFFFFE0
7FFFFFFFFFFFFFFFE0
7FFFFFFFFFFFFFFFF0
FFFFFFFFFFFFFFFFF0
FFFFFFFF0FFFFFFFF0
FFFFFFFE03FFFFFFF0
FFFFFFFC03FFFFFFF0
FFFFFFFC01FFFFFFF0
FFFFFFF801FFFFFFF0
FFFFFFF801FFFFFFF0
FFFFFFF800FFFFFFF0
FFFFFFF800FFFFFFF8
FFFFFFF800FFFFFFF8
FFFFFFF800FFFFFFF8
FFFFFFF800FFFFFFF8
FFFFFFF800FFFFFFF8
FFFFFFF800FFFFFFF8
FFFFFFF800FFFFFFF8
FFFFFFF800FFFFFFF8
FFFFFFF800FFFFFFF8
FFFFFFF800FFFFFFF8
FFFFFFF800FFFFFFF8
FFFFFFF800FFFFFFF8
FFFFFFF800FFFFFFF8
FFFFFFF800FFFFFFF8
FFFFFFF800FFFFFFF8
FFFFFFF800FFFFFFF8
FFFFFFF800FFFFFFF8
FFFFFFF800FFFFFFF8
FFFFFFF800FFFFFFF8
FFFFFFF800FFFFFFF8
FFFFFFF800FFFFFFF8
FFFFFFF800FFFFFFF8
FFFFFFF800FFFFFFF8
FFFFFFF800FFFFFFF8
FFFFFFF800FFFFFFF8
FFFFFFF800FFFFFFF8
FFFFFFF800FFFFFFF8
FFFFFFF800FFFFFFF8
FFFFFFF800FFFFFFF8
FFFFFFF800FFFFFFF8
0000000000FFFFFFF8
0000000000FFFFFFF8
0000000000FFFFFFF8
0000000000FFFFFFF0
0000000000FFFFFFF0
0000000000FFFFFFF0
0000000000FFFFFFF0
0000000001FFFFFFF0
0000000001FFFFFFF0
0000000001FFFFFFF0
0000000001FFFFFFF0
0000000003FFFFFFE0
0000000007FFFFFFE0
000000001FFFFFFFE0
000001FFFFFFFFFFC0
000001FFFFFFFFFFC0
000001FFFFFFFFFFC0
000001FFFFFFFFFF80
000001FFFFFFFFFF00
000001FFFFFFFFFE00
000001FFFFFFFFFC00
000001FFFFFFFFF800
000001FFFFFFFFE000
000001FFFFFFFFC000
000001FFFFFFFE0000
000001FFFFFFF80000
000001FFFFFFFC0000
000001FFFFFFFF0000
000001FFFFFFFFE000
000001FFFFFFFFF800
000001FFFFFFFFFC00
000001FFFFFFFFFE00
000001FFFFFFFFFF00
000001FFFFFFFFFF80
000001FFFFFFFFFFC0
000001FFFFFFFFFFC0
000001FFFFFFFFFFE0
000001FFFFFFFFFFE0
000000001FFFFFFFE0
0000000007FFFFFFE0
0000000003FFFFFFF0
0000000001FFFFFFF0
0000000001FFFFFFF0
0000000001FFFFFFF0
0000000000FFFFFFF0
0000000000FFFFFFF0
0000000000FFFFFFF0
0000000000FFFFFFF0
0000000000FFFFFFF8
0000000000FFFFFFF8
0000000000FFFFFFF8
FFFFFFF800FFFFFFF8
FFFFFFF800FFFFFFF8
FFFFFFF800FFFFFFF8
FFFFFFF800FFFFFFF8
FFFFFFF800FFFFFFF8
FFFFFFF800FFFFFFF8
FFFFFFF800FFFFFFF8
FFFFFFF800FFFFFFF8
FFFFFFF800FFFFFFF8
FFFFFFF800FFFFFFF8
FFFFFFF800FFFFFFF8
FFFFFFF800FFFFFFF8
FFFFFFF800FFFFFFF8
FFFFFFF800FFFFFFF8
FFFFFFF800FFFFFFF8
FFFFFFF800FFFFFFF8
FFFFFFF800FFFFFFF8
FFFFFFF800FFFFFFF8
FFFFFFF800FFFFFFF8
FFFFFFF800FFFFFFF8
FFFFFFF800FFFFFFF8
FFFFFFF800FFFFFFF8
FFFFFFF800FFFFFFF8
FFFFFFF800FFFFFFF8
FFFFFFF800FFFFFFF8
FFFFFFF800FFFFFFF8
FFFFFFF800FFFFFFF8
FFFFFFF800FFFFFFF8
FFFFFFF800FFFFFFF8
FFFFFFF800FFFFFFF8
FFFFFFF800FFFFFFF8
FFFFFFF800FFFFFFF8
FFFFFFF800FFFFFFF8
FFFFFFF800FFFFFFF8
FFFFFFF800FFFFFFF8
FFFFFFF800FFFFFFF8
FFFFFFF800FFFFFFF8
FFFFFFF800FFFFFFF8
FFFFFFF800FFFFFFF8
FFFFFFF800FFFFFFF8
FFFFFFF800FFFFFFF8
FFFFFFF800FFFFFFF8
FFFFFFF800FFFFFFF8
FFFFFFF800FFFFFFF8
FFFFFFF800FFFFFFF8
FFFFFFF800FFFFFFF0
FFFFFFF801FFFFFFF0
FFFFFFF801FFFFFFF0
FFFFFFFC01FFFFFFF0
FFFFFFFC03FFFFFFF0
FFFFFFFF07FFFFFFF0
FFFFFFFFFFFFFFFFF0
FFFFFFFFFFFFFFFFF0
7FFFFFFFFFFFFFFFF0
7FFFFFFFFFFFFFFFF0
7FFFFFFFFFFFFFFFE0
7FFFFFFFFFFFFFFFE0
7FFFFFFFFFFFFFFFE0
3FFFFFFFFFFFFFFFE0
3FFFFFFFFFFFFFFFE0
3FFFFFFFFFFFFFFFC0
3FFFFFFFFFFFFFFFC0
1FFFFFFFFFFFFFFF80
1FFFFFFFFFFFFFFF80
0FFFFFFFFFFFFFFF80
0FFFFFFFFFFFFFFF00
07FFFFFFFFFFFFFE00
03FFFFFFFFFFFFFC00
00FFFFFFFFFFFFF800
007FFFFFFFFFFFE000
000FFFFFFFFFFF0000
0000FFFFFFFFF80000
000001FFFFFC000000
ENDCHAR
STARTCHAR 0034
ENCODING 52
SWIDTH 387 0
DWIDTH 86 0
BBX 75 182 5 -1
BITMAP
000001FFFFFFFFFFE000
000001FFFFFFFFFFE000
000001FFFFFFFFFFE000
000003FFFFFFFFFFE000
000003FFFFFFFFFFE000
000003FFFFFFFFFFE000
000003FFFFFFFFFFE000
000003FFFFFFFFFFE000
000007FFFFFFFFFFE000
000007FFFFFFFFFFE000
000007FFFFFFFFFFE000
000007FFFFFFFFFFE000
00000FFFFFFFFFFFE000
00000FFFFFFFFFFFE000
00000FFFFFFFFFFFE000
00000FFFFFFFFFFFE000
00000FFFFFFFFFFFE000
00001FFFFFFFFFFFE000
00001FFFFFFFFFFFE000
00001FFFFFFFFFFFE000
00001FFFFFFFFFFFE000
00003FFFFFFFFFFFE000
00003FFFFFFFFFFFE000
00003FFFFFFFFFFFE000
00003FFFFFFFFFFFE000
00003FFFFFFFFFFFE000
00007FFFFFFFFFFFE000
00007FFFFFFFFFFFE000
00007FFFFFFFFFFFE000
00007FFFFFFFFFFFE000
0000FFFFF0FFFFFFE000
0000FFFFE0FFFFFFE000
0000FFFFE0FFFFFFE000
0000FFFFE0FFFFFFE000
0000FFFFE0FFFFFFE000
0001FFFFE0FFFFFFE000
0001FFFFE0FFFFFFE000
0001FFFFE0FFFFFFE000
0001FFFFE0FFFFFFE000
0003FFFFC0FFFFFFE000
0003FFFFC0FFFFFFE000
0003FFFFC0FFFFFFE000
0003FFFFC0FFFFFFE000
0003FFFFC0FFFFFFE000
0007FFFFC0FFFFFFE000
0007FFFFC0FFFFFFE000
0007FFFF80FFFFFFE000
0007FFFF80FFFFFFE000
000FFFFF80FFFFFFE000
000FFFFF80FFFFFFE000
000FFFFF80FFFFFFE000
000FFFFF80FFFFFFE000
000FFFFF80FFFFFFE000
001FFFFF80FFFFFFE000
001FFFFF00FFFFFFE000
001FFFFF00FFFFFFE000
001FFFFF00FFFFFFE000
003FFFFF00FFFFFFE000
003FFFFF00FFFFFFE000
003FFFFF00FFFFFFE000
003FFFFF00FFFFFFE000
003FFFFE00FFFFFFE000
007FFFFE00FFFFFFE000
007FFFFE00FFFFFFE000
007FFFFE00FFFFFFE000
007FFFFE00FFFFFFE000
00FFFFFE00FFFFFFE000
00FFFFFE00FFFFFFE000
00FFFFFE00FFFFFFE000
00FFFFFC00FFFFFFE000
00FFFFFC00FFFFFFE000
01FFFFFC00FFFFFFE000
01FFFFFC00FFFFFFE000
01FFFFFC00FFFFFFE000
01FFFFFC00FFFFFFE000
01FFFFFC00FFFFFFE000
03FFFFFC00FFFFFFE000
03FFFFF800FFFFFFE000
03FFFFF800FFFFFFE000
03FFFFF800FFFFFFE000
07FFFFF800FFFFFFE000
07FFFFF800FFFFFFE000
07FFFFF800FFFFFFE000
07FFFFF800FFFFFFE000
07FFFFF000FFFFFFE000
0FFFFFF000FFFFFFE000
0FFFFFF000FFFFFFE000
0FFFFFF000FFFFFFE000
0FFFFFF000FFFFFFE000
1FFFFFF000FFFFFFE000
1FFFFFF000FFFFFFE000
1FFFFFF000FFFFFFE000
1FFFFFE000FFFFFFE000
1FFFFFE000FFFFFFE000
3FFFFFE000FFFFFFE000
3FFFFFE000FFFFFFE000
3FFFFFE000FFFFFFE000
3FFFFFE000FFFFFFE000
7FFFFFE000FFFFFFE000
7FFFFFC000FFFFFFE000
7FFFFFC000FFFFFFE000
7FFFFFC000FFFFFFE000
7FFFFFC000FFFFFFE000
FFFFFFC000FFFFFFE000
FFFFFFC000FFFFFFE000
FFFFFFC000FFFFFFE000
FFFFFFC000FFFFFFE000
FFFFFFFFFFFFFFFFFFE0
FFFFFFFFFFFFFFFFFFE0
FFFFFFFFFFFFFFFFFFE0
FFFFFFFFFFFFFFFFFFE0
FFFFFFFFFFFFFFFFFFE0
FFFFFFFFFFFFFFFFFFE0
FFFFFFFFFFFFFFFFFFE0
FFFFFFFFFFFFFFFFFFE0
FFFFFFFFFFFFFFFFFFE0
FFFFFFFFFFFFFFFFFFE0
FFFFFFFFFFFFFFFFFFE0
FFFFFFFFFFFFFFFFFFE0
FFFFFFFFFFFFFFFFFFE0
FFFFFFFFFFFFFFFFFFE0
FFFFFFFFFFFFFFFFFFE0
FFFFFFFFFFFFFFFFFFE0
FFFFFFFFFFFFFFFFFFE0
FFFFFFFFFFFFFFFFFFE0
FFFFFFFFFFFFFFFFFFE0
FFFFFFFFFFFFFFFFFFE0
FFFFFFFFFFFFFFFFFFE0
0000000003FFFFFFE000
0000000003FFFFFFE000
0000000003FFFFFFE000
0000000003FFFFFFE000
0000000003FFFFFFE000
0000000003FFFFFFE000
0000000003FFFFFFE000
0000000003FFFFFFE000
0000000003FFFFFFE000
0000000003FFFFFFE000
0000000003FFFFFFE000
0000000003FFFFFFE000
0000000003FFFFFFE000
0000000003FFFFFFE000
0000000003FFFFFFE000
0000000003FFFFFFE000
0000000003FFFFFFE000
0000000003FFFFFFE000
0000000003FFFFFFE000
0000000003FFFFFFE000
0000000003FFFFFFE000
0000000003FFFFFFE000
0000000003FFFFFFE000
0000000003FFFFFFE000
0000000003FFFFFFE000
0000000003FFFFFFE000
0000000003FFFFFFE000
0000000003FFFFFFE000
0000000003FFFFFFE000
0000000003FFFFFFE000
0000000003FFFFFFE000
0000000003FFFFFFE000
0000000003FFFFFFE000
0000000003FFFFFFE000
0000000003FFFFFFE000
0000000003FFFFFFE000
0000000003FFFFFFE000
0000000003FFFFFFE000
0000000003FFFFFFE000
0000000003FFFFFFE000
0000000003FFFFFFE000
0000000003FFFFFFE000
0000000003FFFFFFE000
0000000003FFFFFFE000
0000000003FFFFFFE000
0000000003FFFFFFE000
0000000003FFFFFFE000
0000000003FFFFFFE000
0000000003FFFFFFE000
0000000003FFFFFFE000
0000000003FFFFFFE000
0000000003FFFFFFE000
0000000003FFFFFFE000
0000000003FFFFFFE000
ENDCHAR
STARTCHAR 0035
ENCODING 53
SWIDTH 382 0
DWIDTH 85 0
BBX 69 182 8 -1
BITMAP
FFFFFFFFFFFFFFFFE0
FFFFFFFFFFFFFFFFE0
FFFFFFFFFFFFFFFFE0
FFFFFFFFFFFFFFFFE0
FFFFFFFFFFFFFFFFE0
FFFFFFFFFFFFFFFFE0
FFFFFFFFFFFFFFFFE0
FFFFFFFFFFFFFFFFE0
FFFFFFFFFFFFFFFFE0
FFFFFFFFFFFFFFFFE0
FFFFFFFFFFFFFFFFE0
FFFFFFFFFFFFFFFFE0
FFFFFFFFFFFFFFFFE0
FFFFFFFFFFFFFFFFE0
FFFFFFFFFFFFFFFFE0
FFFFFFFFFFFFFFFFE0
FFFFFFFFFFFFFFFFE0
FFFFFFFFFFFFFFFFE0
FFFFFFFFFFFFFFFFE0
FFFFFFFFFFFFFFFFE0
FFFFFFFFFFFFFFFFE0
FFFFFFF80000000000
FFFFFFF80000000000
FFFFFFF80000000000
FFFFFFF80000000000
FFFFFFF80000000000
FFFFFFF80000000000
FFFFFFF80000000000
FFFFFFF80000000000
FFFFFFF80000000000
FFFFFFF80000000000
FFFFFFF80000000000
FFFFFFF80000000000
FFFFFFF80000000000
FFFFFFF80000000000
FFFFFFF80000000000
FFFFFFF80000000000
FFFFFFF80000000000
FFFFFFF80000000000
FFFFFFF80000000000
FFFFFFF80000000000
FFFFFFF80000000000
FFFFFFF80000000000
FFFFFFF80000000000
FFFFFFF80000000000
FFFFFFF80000000000
FFFFFFF80000000000
FFFFFFF80000000000
FFFFFFF80000000000
FFFFFFF80000000000
FFFFFFF80003C00000
FFFFFFF8007FFF0000
FFFFFFF803FFFFC000
FFFFFFF80FFFFFF000
FFFFFFF83FFFFFF800
FFFFFFF87FFFFFFC00
FFFFFFF9FFFFFFFE00
FFFFFFFBFFFFFFFF00
FFFFFFFFFFFFFFFF80
FFFFFFFFFFFFFFFF80
FFFFFFFFFFFFFFFFC0
FFFFFFFFFFFFFFFFC0
FFFFFFFFFFFFFFFFE0
FFFFFFFFFFFFFFFFE0
FFFFFFFFFFFFFFFFE0
FFFFFFFFFFFFFFFFF0
FFFFFFFFFFFFFFFFF0
FFFFFFFFFFFFFFFFF0
FFFFFFFFFFFFFFFFF0
FFFFFFFFFFFFFFFFF0
FFFFFFFFFFFFFFFFF0
FFFFFFFFFFFFFFFFF8
FFFFFFFFFFFFFFFFF8
FFFFFFFFFFFFFFFFF8
FFFFFFFFFFFFFFFFF8
FFFFFFFF07FFFFFFF8
FFFFFFFE03FFFFFFF8
FFFFFFFC01FFFFFFF8
FFFFFFFC01FFFFFFF8
FFFFFFF800FFFFFFF8
FFFFFFF800FFFFFFF8
FFFFFFF800FFFFFFF8
FFFFFFF800FFFFFFF8
FFFFFFF800FFFFFFF8
FFFFFFF800FFFFFFF8
FFFFFFF800FFFFFFF8
FFFFFFF800FFFFFFF8
0000000000FFFFFFF8
0000000000FFFFFFF8
0000000000FFFFFFF8
0000000000FFFFFFF8
0000000000FFFFFFF8
0000000000FFFFFFF8
0000000000FFFFFFF8
0000000000FFFFFFF8
0000000000FFFFFFF8
0000000000FFFFFFF8
0000000000FFFFFFF8
0000000000FFFFFFF8
0000000000FFFFFFF8
0000000000FFFFFFF8
0000000000FFFFFFF8
0000000000FFFFFFF8
0000000000FFFFFFF8
0000000000FFFFFFF8
0000000000FFFFFFF8
0000000000FFFFFFF8
FFFFFFF800FFFFFFF8
FFFFFFF800FFFFFFF8
FFFFFFF800FFFFFFF8
FFFFFFF800FFFFFFF8
FFFFFFF800FFFFFFF8
FFFFFFF800FFFFFFF8
FFFFFFF800FFFFFFF8
FFFFFFF800FFFFFFF8
FFFFFFF800FFFFFFF8
FFFFFFF800FFFFFFF8
FFFFFFF800FFFFFFF8
FFFFFFF800FFFFFFF8
FFFFFFF800FFFFFFF8
FFFFFFF800FFFFFFF8
FFFFFFF800FFFFFFF8
FFFFFFF800FFFFFFF8
FFFFFFF800FFFFFFF8
FFFFFFF800FFFFFFF8
FFFFFFF800FFFFFFF8
FFFFFFF800FFFFFFF8
FFFFFFF800FFFFFFF8
FFFFFFF800FFFFFFF8
FFFFFFF800FFFFFFF8
FFFFFFF800FFFFFFF8
FFFFFFF800FFFFFFF8
FFFFFFF800FFFFFFF8
FFFFFFF800FFFFFFF8
FFFFFFF800FFFFFFF8
FFFFFFF800FFFFFFF8
FFFFFFF800FFFFFFF8
FFFFFFF800FFFFFFF8
FFFFFFF800FFFFFFF8
FFFFFFF800FFFFFFF8
FFFFFFF800FFFFFFF8
FFFFFFF800FFFFFFF8
FFFFFFF800FFFFFFF8
FFFFFFF800FFFFFFF8
FFFFFFF800FFFFFFF8
FFFFFFF800FFFFFFF8
FFFFFFF800FFFFFFF8
FFFFFFF800FFFFFFF8
FFFFFFF800FFFFFFF8
FFFFFFF800FFFFFFF8
FFFFFFF800FFFFFFF8
FFFFFFF800FFFFFFF8
FFFFFFF800FFFFFFF8
FFFFFFF800FFFFFFF8
FFFFFFF800FFFFFFF8
FFFFFFFC00FFFFFFF8
FFFFFFFC00FFFFFFF8
7FFFFFFC01FFFFFFF8
7FFFFFFE03FFFFFFF8
7FFFFFFF07FFFFFFF8
7FFFFFFFFFFFFFFFF0
7FFFFFFFFFFFFFFFF0
7FFFFFFFFFFFFFFFF0
7FFFFFFFFFFFFFFFF0
7FFFFFFFFFFFFFFFF0
3FFFFFFFFFFFFFFFF0
3FFFFFFFFFFFFFFFE0
3FFFFFFFFFFFFFFFE0
3FFFFFFFFFFFFFFFE0
1FFFFFFFFFFFFFFFE0
1FFFFFFFFFFFFFFFC0
1FFFFFFFFFFFFFFFC0
0FFFFFFFFFFFFFFF80
0FFFFFFFFFFFFFFF80
07FFFFFFFFFFFFFF00
03FFFFFFFFFFFFFF00
01FFFFFFFFFFFFFE00
00FFFFFFFFFFFFF800
003FFFFFFFFFFFE000
0007FFFFFFFFFF8000
00007FFFFFFFF80000
000000FFFFFC000000
ENDCHAR
STARTCHAR 0036
ENCODING 54
SWIDTH 382 0
DWIDTH 85 0
BBX 69 182 8 -1
BITMAP
000000FFFFFC000000
00007FFFFFFFF80000
0007FFFFFFFFFF8000
003FFFFFFFFFFFE000
00FFFFFFFFFFFFF800
01FFFFFFFFFFFFFC00
03FFFFFFFFFFFFFE00
07FFFFFFFFFFFFFF00
0FFFFFFFFFFFFFFF80
0FFFFFFFFFFFFFFF80
1FFFFFFFFFFFFFFFC0
1FFFFFFFFFFFFFFFC0
3FFFFFFFFFFFFFFFC0
3FFFFFFFFFFFFFFFE0
3FFFFFFFFFFFFFFFE0
3FFFFFFFFFFFFFFFE0
7FFFFFFFFFFFFFFFE0
7FFFFFFFFFFFFFFFF0
7FFFFFFFFFFFFFFFF0
7FFFFFFFFFFFFFFFF0
7FFFFFFFFFFFFFFFF0
7FFFFFFF07FFFFFFF0
FFFFFFFE03FFFFFFF0
FFFFFFFC01FFFFFFF0
FFFFFFFC01FFFFFFF0
FFFFFFF801FFFFFFF8
FFFFFFF800FFFFFFF8
FFFFFFF800FFFFFFF8
FFFFFFF800FFFFFFF8
FFFFFFF800FFFFFFF8
FFFFFFF800FFFFFFF8
FFFFFFF800FFFFFFF8
FFFFFFF800FFFFFFF8
FFFFFFF800FFFFFFF8
FFFFFFF800FFFFFFF8
FFFFFFF800FFFFFFF8
FFFFFFF800FFFFFFF8
FFFFFFF800FFFFFFF8
FFFFFFF800FFFFFFF8
FFFFFFF800FFFFFFF8
FFFFFFF800FFFFFFF8
FFFFFFF800FFFFFFF8
FFFFFFF800FFFFFFF8
FFFFFFF800FFFFFFF8
FFFFFFF800FFFFFFF8
FFFFFFF800FFFFFFF8
FFFFFFF800FFFFFFF8
FFFFFFF800FFFFFFF8
FFFFFFF800FFFFFFF8
FFFFFFF800FFFFFFF8
FFFFFFF800FFFFFFF8
FFFFFFF800FFFFFFF8
FFFFFFF800FFFFFFF8
FFFFFFF800FFFFFFF8
FFFFFFF800FFFFFFF8
FFFFFFF800FFFFFFF8
FFFFFFF800FFFFFFF8
FFFFFFF800FFFFFFF8
FFFFFFF800FFFFFFF8
FFFFFFF800FFFFFFF8
FFFFFFF800FFFFFFF8
FFFFFFF800FFFFFFF8
FFFFFFF80000000000
FFFFFFF80000000000
FFFFFFF80000000000
FFFFFFF80000000000
FFFFFFF80000000000
FFFFFFF80000000000
FFFFFFF80000000000
FFFFFFF80000000000
FFFFFFF80000000000
FFFFFFF80000000000
FFFFFFF80000000000
FFFFFFF8007FF80000
FFFFFFF803FFFF0000
FFFFFFF80FFFFFC000
FFFFFFF83FFFFFE000
FFFFFFF87FFFFFF800
FFFFFFF8FFFFFFFC00
FFFFFFF9FFFFFFFE00
FFFFFFFBFFFFFFFE00
FFFFFFFFFFFFFFFF00
FFFFFFFFFFFFFFFF80
FFFFFFFFFFFFFFFF80
FFFFFFFFFFFFFFFFC0
FFFFFFFFFFFFFFFFC0
FFFFFFFFFFFFFFFFC0
FFFFFFFFFFFFFFFFE0
FFFFFFFFFFFFFFFFE0
FFFFFFFFFFFFFFFFE0
FFFFFFFFFFFFFFFFF0
FFFFFFFFFFFFFFFFF0
FFFFFFFFFFFFFFFFF0
FFFFFFFFFFFFFFFFF0
FFFFFFFFFFFFFFFFF0
FFFFFFFFFFFFFFFFF0
FFFFFFFFFFFFFFFFF8
FFFFFFFFDFFFFFFFF8
FFFFFFFE03FFFFFFF8
FFFFFFFC01FFFFFFF8
FFFFFFFC01FFFFFFF8
FFFFFFF801FFFFFFF8
FFFFFFF800FFFFFFF8
FFFFFFF800FFFFFFF8
FFFFFFF800FFFFFFF8
FFFFFFF800FFFFFFF8
FFFFFFF800FFFFFFF8
FFFFFFF800FFFFFFF8
FFFFFFF800FFFFFFF8
FFFFFFF800FFFFFFF8
FFFFFFF800FFFFFFF8
FFFFFFF800FFFFFFF8
FFFFFFF800FFFFFFF8
FFFFFFF800FFFFFFF8
FFFFFFF800FFFFFFF8
FFFFFFF800FFFFFFF8
FFFFFFF800FFFFFFF8
FFFFFFF800FFFFFFF8
FFFFFFF800FFFFFFF8
FFFFFFF800FFFFFFF8
FFFFFFF800FFFFFFF8
FFFFFFF800FFFFFFF8
FFFFFFF800FFFFFFF8
FFFFFFF800FFFFFFF8
FFFFFFF800FFFFFFF8
FFFFFFF800FFFFFFF8
FFFFFFF800FFFFFFF8
FFFFFFF800FFFFFFF8
FFFFFFF800FFFFFFF8
FFFFFFF800FFFFFFF8
FFFFFFF800FFFFFFF8
FFFFFFF800FFFFFFF8
FFFFFFF800FFFFFFF8
FFFFFFF800FFFFFFF8
FFFFFFF800FFFFFFF8
FFFFFFF800FFFFFFF8
FFFFFFF800FFFFFFF8
FFFFFFF800FFFFFFF8
FFFFFFF800FFFFFFF8
FFFFFFF800FFFFFFF8
FFFFFFF800FFFFFFF8
FFFFFFF800FFFFFFF8
FFFFFFF800FFFFFFF8
FFFFFFF800FFFFFFF8
FFFFFFF800FFFFFFF8
FFFFFFF800FFFFFFF8
FFFFFFF800FFFFFFF8
FFFFFFF800FFFFFFF8
FFFFFFF800FFFFFFF8
FFFFFFF800FFFFFFF8
FFFFFFF800FFFFFFF8
FFFFFFF800FFFFFFF8
FFFFFFF800FFFFFFF8
FFFFFFF800FFFFFFF8
FFFFFFF800FFFFFFF8
FFFFFFF801FFFFFFF8
FFFFFFFC01FFFFFFF8
FFFFFFFC01FFFFFFF8
FFFFFFFE03FFFFFFF0
FFFFFFFF07FFFFFFF0
7FFFFFFFFFFFFFFFF0
7FFFFFFFFFFFFFFFF0
7FFFFFFFFFFFFFFFF0
7FFFFFFFFFFFFFFFF0
7FFFFFFFFFFFFFFFF0
7FFFFFFFFFFFFFFFE0
3FFFFFFFFFFFFFFFE0
3FFFFFFFFFFFFFFFE0
3FFFFFFFFFFFFFFFE0
3FFFFFFFFFFFFFFFC0
1FFFFFFFFFFFFFFFC0
1FFFFFFFFFFFFFFFC0
0FFFFFFFFFFFFFFF80
0FFFFFFFFFFFFFFF80
07FFFFFFFFFFFFFF00
03FFFFFFFFFFFFFE00
01FFFFFFFFFFFFFC00
00FFFFFFFFFFFFF800
003FFFFFFFFFFFE000
0007FFFFFFFFFF8000
00007FFFFFFFF80000
000000FFFFFC000000
ENDCHAR
STARTCHAR 0037
ENCODING 55
SWIDTH 342 0
DWIDTH 76 0
BBX 59 182 8 -1
BITMAP
FFFFFFFFFFFFFFE0
FFFFFFFFFFFFFFE0
FFFFFFFFFFFFFFE0
FFFFFFFFFFFFFFE0
FFFFFFFFFFFFFFE0
FFFFFFFFFFFFFFE0
FFFFFFFFFFFFFFE0
FFFFFFFFFFFFFFE0
FFFFFFFFFFFFFFE0
FFFFFFFFFFFFFFE0
FFFFFFFFFFFFFFE0
FFFFFFFFFFFFFFE0
FFFFFFFFFFFFFFE0
FFFFFFFFFFFFFFE0
FFFFFFFFFFFFFFE0
FFFFFFFFFFFFFFE0
FFFFFFFFFFFFFFE0
FFFFFFFFFFFFFFE0
FFFFFFFFFFFFFFE0
FFFFFFFFFFFFFFE0
FFFFFFFFFFFFFFE0
00000001FFFFFFE0
00000001FFFFFFE0
00000001FFFFFFE0
00000001FFFFFFE0
00000001FFFFFFE0
00000003FFFFFFE0
00000003FFFFFFE0
00000003FFFFFFC0
00000003FFFFFFC0
00000003FFFFFFC0
00000007FFFFFFC0
00000007FFFFFFC0
00000007FFFFFFC0
00000007FFFFFF80
00000007FFFFFF80
00000007FFFFFF80
0000000FFFFFFF80
0000000FFFFFFF80
0000000FFFFFFF00
0000000FFFFFFF00
0000000FFFFFFF00
0000001FFFFFFF00
0000001FFFFFFF00
0000001FFFFFFF00
0000001FFFFFFE00
0000001FFFFFFE00
0000001FFFFFFE00
0000003FFFFFFE00
0000003FFFFFFE00
0000003FFFFFFE00
0000003FFFFFFC00
0000003FFFFFFC00
0000007FFFFFFC00
0000007FFFFFFC00
0000007FFFFFFC00
0000007FFFFFFC00
0000007FFFFFF800
0000007FFFFFF800
000000FFFFFFF800
000000FFFFFFF800
000000FFFFFFF800
000000FFFFFFF800
000000FFFFFFF000
000001FFFFFFF000
000001FFFFFFF000
000001FFFFFFF000
000001FFFFFFF000
000001FFFFFFE000
000001FFFFFFE000
000003FFFFFFE000
000003FFFFFFE000
000003FFFFFFE000
000003FFFFFFE000
000003FFFFFFC000
000003FFFFFFC000
000007FFFFFFC000
000007FFFFFFC000
000007FFFFFFC000
000007FFFFFFC000
000007FFFFFF8000
00000FFFFFFF8000
00000FFFFFFF8000
00000FFFFFFF8000
00000FFFFFFF8000
00000FFFFFFF8000
00000FFFFFFF0000
00001FFFFFFF0000
00001FFFFFFF0000
00001FFFFFFF0000
00001FFFFFFF0000
00001FFFFFFE0000
00003FFFFFFE0000
00003FFFFFFE0000
00003FFFFFFE0000
00003FFFFFFE0000
00003FFFFFFE0000
00003FFFFFFC0000
00007FFFFFFC0000
00007FFFFFFC0000
00007FFFFFFC0000
00007FFFFFFC0000
00007FFFFFFC0000
0000FFFFFFF80000
0000FFFFFFF80000
0000FFFFFFF80000
0000FFFFFFF80000
0000FFFFFFF80000
0000FFFFFFF80000
0001FFFFFFF00000
0001FFFFFFF00000
0001FFFFFFF00000
0001FFFFFFF00000
0001FFFFFFF00000
0003FFFFFFF00000
0003FFFFFFE00000
0003FFFFFFE00000
0003FFFFFFE00000
0003FFFFFFE00000
0003FFFFFFE00000
0007FFFFFFC00000
0007FFFFFFC00000
0007FFFFFFC00000
0007FFFFFFC00000
0007FFFFFFC00000
0007FFFFFFC00000
000FFFFFFF800000
000FFFFFFF800000
000FFFFFFF800000
000FFFFFFF800000
000FFFFFFF800000
001FFFFFFF800000
001FFFFFFF000000
001FFFFFFF000000
001FFFFFFF000000
001FFFFFFF000000
001FFFFFFF000000
003FFFFFFF000000
003FFFFFFE000000
003FFFFFFE000000
003FFFFFFE000000
003FFFFFFE000000
007FFFFFFE000000
007FFFFFFC000000
007FFFFFFC000000
007FFFFFFC000000
007FFFFFFC000000
007FFFFFFC000000
00FFFFFFFC000000
00FFFFFFF8000000
00FFFFFFF8000000
00FFFFFFF8000000
00FFFFFFF8000000
01FFFFFFF8000000
01FFFFFFF8000000
01FFFFFFF0000000
01FFFFFFF0000000
01FFFFFFF0000000
01FFFFFFF0000000
03FFFFFFF0000000
03FFFFFFF0000000
03FFFFFFE0000000
03FFFFFFE0000000
03FFFFFFE0000000
07FFFFFFE0000000
07FFFFFFE0000000
07FFFFFFC0000000
07FFFFFFC0000000
07FFFFFFC0000000
07FFFFFFC0000000
0FFFFFFFC0000000
0FFFFFFFC0000000
0FFFFFFF80000000
0FFFFFFF80000000
0FFFFFFF80000000
0FFFFFFF80000000
1FFFFFFF80000000
1FFFFFFF80000000
1FFFFFFF00000000
1FFFFFFF00000000
1FFFFFFF00000000
3FFFFFFF00000000
ENDCHAR
STARTCHAR 0038
ENCODING 56
SWIDTH 382 0
DWIDTH 85 0
BBX 69 182 8 -1
BITMAP
000001FFFFF8000000
0000FFFFFFFFF00000
000FFFFFFFFFFF0000
003FFFFFFFFFFFE000
00FFFFFFFFFFFFF000
01FFFFFFFFFFFFFC00
03FFFFFFFFFFFFFE00
07FFFFFFFFFFFFFF00
0FFFFFFFFFFFFFFF00
0FFFFFFFFFFFFFFF80
1FFFFFFFFFFFFFFF80
1FFFFFFFFFFFFFFFC0
3FFFFFFFFFFFFFFFC0
3FFFFFFFFFFFFFFFE0
3FFFFFFFFFFFFFFFE0
3FFFFFFFFFFFFFFFE0
7FFFFFFFFFFFFFFFE0
7FFFFFFFFFFFFFFFE0
7FFFFFFFFFFFFFFFF0
7FFFFFFFFFFFFFFFF0
7FFFFFFFFFFFFFFFF0
7FFFFFFF07FFFFFFF0
FFFFFFFE03FFFFFFF0
FFFFFFFC01FFFFFFF0
FFFFFFFC01FFFFFFF0
FFFFFFF801FFFFFFF8
FFFFFFF800FFFFFFF8
FFFFFFF800FFFFFFF8
FFFFFFF800FFFFFFF8
FFFFFFF800FFFFFFF8
FFFFFFF800FFFFFFF8
FFFFFFF800FFFFFFF8
FFFFFFF800FFFFFFF8
FFFFFFF800FFFFFFF8
FFFFFFF800FFFFFFF8
FFFFFFF800FFFFFFF8
FFFFFFF800FFFFFFF8
FFFFFFF800FFFFFFF8
FFFFFFF800FFFFFFF8
FFFFFFF800FFFFFFF8
FFFFFFF800FFFFFFF8
FFFFFFF800FFFFFFF8
FFFFFFF800FFFFFFF8
FFFFFFF800FFFFFFF8
FFFFFFF800FFFFFFF8
FFFFFFF800FFFFFFF8
FFFFFFF800FFFFFFF8
FFFFFFF800FFFFFFF8
FFFFFFF800FFFFFFF8
FFFFFFF800FFFFFFF8
FFFFFFF800FFFFFFF8
FFFFFFF800FFFFFFF8
FFFFFFF800FFFFFFF8
FFFFFFF800FFFFFFF8
FFFFFFF800FFFFFFF8
FFFFFFF800FFFFFFF8
FFFFFFF800FFFFFFF8
FFFFFFF800FFFFFFF8
FFFFFFF800FFFFFFF8
FFFFFFF800FFFFFFF8
FFFFFFF800FFFFFFF8
FFFFFFF800FFFFFFF8
FFFFFFF800FFFFFFF8
FFFFFFF800FFFFFFF8
FFFFFFF800FFFFFFF8
FFFFFFF800FFFFFFF0
FFFFFFFC01FFFFFFF0
7FFFFFFC01FFFFFFF0
7FFFFFFE03FFFFFFF0
7FFFFFFF07FFFFFFF0
7FFFFFFFFFFFFFFFF0
7FFFFFFFFFFFFFFFE0
3FFFFFFFFFFFFFFFE0
3FFFFFFFFFFFFFFFE0
1FFFFFFFFFFFFFFFC0
1FFFFFFFFFFFFFFFC0
0FFFFFFFFFFFFFFF80
07FFFFFFFFFFFFFF00
03FFFFFFFFFFFFFE00
01FFFFFFFFFFFFF800
007FFFFFFFFFFFF000
000FFFFFFFFFFF8000
0001FFFFFFFFFC0000
00007FFFFFFFF80000
0003FFFFFFFFFE0000
001FFFFFFFFFFFC000
007FFFFFFFFFFFF000
00FFFFFFFFFFFFF800
03FFFFFFFFFFFFFE00
07FFFFFFFFFFFFFF00
0FFFFFFFFFFFFFFF80
1FFFFFFFFFFFFFFF80
1FFFFFFFFFFFFFFFC0
3FFFFFFFFFFFFFFFC0
3FFFFFFFFFFFFFFFE0
3FFFFFFF0FFFFFFFE0
7FFFFFFE03FFFFFFE0
7FFFFFFC01FFFFFFF0
7FFFFFFC01FFFFFFF0
7FFFFFF801FFFFFFF0
FFFFFFF800FFFFFFF0
FFFFFFF800FFFFFFF0
FFFFFFF800FFFFFFF8
FFFFFFF800FFFFFFF8
FFFFFFF800FFFFFFF8
FFFFFFF800FFFFFFF8
FFFFFFF800FFFFFFF8
FFFFFFF800FFFFFFF8
FFFFFFF800FFFFFFF8
FFFFFFF800FFFFFFF8
FFFFFFF800FFFFFFF8
FFFFFFF800FFFFFFF8
FFFFFFF800FFFFFFF8
FFFFFFF800FFFFFFF8
FFFFFFF800FFFFFFF8
FFFFFFF800FFFFFFF8
FFFFFFF800FFFFFFF8
FFFFFFF800FFFFFFF8
FFFFFFF800FFFFFFF8
FFFFFFF800FFFFFFF8
FFFFFFF800FFFFFFF8
FFFFFFF800FFFFFFF8
FFFFFFF800FFFFFFF8
FFFFFFF800FFFFFFF8
FFFFFFF800FFFFFFF8
FFFFFFF800FFFFFFF8
FFFFFFF800FFFFFFF8
FFFFFFF800FFFFFFF8
FFFFFFF800FFFFFFF8
FFFFFFF800FFFFFFF8
FFFFFFF800FFFFFFF8
FFFFFFF800FFFFFFF8
FFFFFFF800FFFFFFF8
FFFFFFF800FFFFFFF8
FFFFFFF800FFFFFFF8
FFFFFFF800FFFFFFF8
FFFFFFF800FFFFFFF8
FFFFFFF800FFFFFFF8
FFFFFFF800FFFFFFF8
FFFFFFF800FFFFFFF8
FFFFFFF800FFFFFFF8
FFFFFFF800FFFFFFF8
FFFFFFF800FFFFFFF8
FFFFFFF800FFFFFFF8
FFFFFFF800FFFFFFF8
FFFFFFF800FFFFFFF8
FFFFFFF800FFFFFFF8
FFFFFFF800FFFFFFF8
FFFFFFF800FFFFFFF8
FFFFFFF800FFFFFFF8
FFFFFFF800FFFFFFF8
FFFFFFF800FFFFFFF8
FFFFFFF800FFFFFFF8
FFFFFFF800FFFFFFF8
FFFFFFF800FFFFFFF8
FFFFFFF801FFFFFFF8
FFFFFFFC01FFFFFFF8
FFFFFFFC01FFFFFFF8
FFFFFFFE03FFFFFFF0
FFFFFFFF07FFFFFFF0
7FFFFFFFFFFFFFFFF0
7FFFFFFFFFFFFFFFF0
7FFFFFFFFFFFFFFFF0
7FFFFFFFFFFFFFFFF0
7FFFFFFFFFFFFFFFF0
7FFFFFFFFFFFFFFFE0
3FFFFFFFFFFFFFFFE0
3FFFFFFFFFFFFFFFE0
3FFFFFFFFFFFFFFFE0
3FFFFFFFFFFFFFFFC0
1FFFFFFFFFFFFFFFC0
1FFFFFFFFFFFFFFFC0
0FFFFFFFFFFFFFFF80
0FFFFFFFFFFFFFFF80
07FFFFFFFFFFFFFF00
03FFFFFFFFFFFFFE00
01FFFFFFFFFFFFFC00
00FFFFFFFFFFFFF800
003FFFFFFFFFFFE000
0007FFFFFFFFFF8000
0000FFFFFFFFF80000
000001FFFFFC000000
ENDCHAR
STARTCHAR 0039
ENCODING 57
SWIDTH 382 0
DWIDTH 85 0
BBX 69 182 8 -1
BITMAP
000001FFFFF8000000
0000FFFFFFFFF00000
000FFFFFFFFFFF0000
003FFFFFFFFFFFE000
00FFFFFFFFFFFFF800
03FFFFFFFFFFFFFC00
07FFFFFFFFFFFFFE00
07FFFFFFFFFFFFFF00
0FFFFFFFFFFFFFFF00
1FFFFFFFFFFFFFFF80
1FFFFFFFFFFFFFFF80
1FFFFFFFFFFFFFFFC0
3FFFFFFFFFFFFFFFC0
3FFFFFFFFFFFFFFFC0
3FFFFFFFFFFFFFFFE0
7FFFFFFFFFFFFFFFE0
7FFFFFFFFFFFFFFFE0
7FFFFFFFFFFFFFFFE0
7FFFFFFFFFFFFFFFF0
7FFFFFFFFFFFFFFFF0
FFFFFFFFFFFFFFFFF0
FFFFFFFF0FFFFFFFF0
FFFFFFFE03FFFFFFF0
FFFFFFFC03FFFFFFF0
FFFFFFF801FFFFFFF0
FFFFFFF801FFFFFFF0
FFFFFFF801FFFFFFF0
FFFFFFF800FFFFFFF0
FFFFFFF800FFFFFFF8
FFFFFFF800FFFFFFF8
FFFFFFF800FFFFFFF8
FFFFFFF800FFFFFFF8
FFFFFFF800FFFFFFF8
FFFFFFF800FFFFFFF8
FFFFFFF800FFFFFFF8
FFFFFFF800FFFFFFF8
FFFFFFF800FFFFFFF8
FFFFFFF800FFFFFFF8
FFFFFFF800FFFFFFF8
FFFFFFF800FFFFFFF8
FFFFFFF800FFFFFFF8
FFFFFFF800FFFFFFF8
FFFFFFF800FFFFFFF8
FFFFFFF800FFFFFFF8
FFFFFFF800FFFFFFF8
FFFFFFF800FFFFFFF8
FFFFFFF800FFFFFFF8
FFFFFFF800FFFFFFF8
FFFFFFF800FFFFFFF8
FFFFFFF800FFFFFFF8
FFFFFFF800FFFFFFF8
FFFFFFF800FFFFFFF8
FFFFFFF800FFFFFFF8
FFFFFFF800FFFFFFF8
FFFFFFF800FFFFFFF8
FFFFFFF800FFFFFFF8
FFFFFFF800FFFFFFF8
FFFFFFF800FFFFFFF8
FFFFFFF800FFFFFFF8
FFFFFFF800FFFFFFF8
FFFFFFF800FFFFFFF8
FFFFFFF800FFFFFFF8
FFFFFFF800FFFFFFF8
FFFFFFF800FFFFFFF8
FFFFFFF800FFFFFFF8
FFFFFFF800FFFFFFF8
FFFFFFF800FFFFFFF8
FFFFFFF800FFFFFFF8
FFFFFFF800FFFFFFF8
FFFFFFF800FFFFFFF8
FFFFFFF800FFFFFFF8
FFFFFFF800FFFFFFF8
FFFFFFF800FFFFFFF8
FFFFFFF800FFFFFFF8
FFFFFFF800FFFFFFF8
FFFFFFF800FFFFFFF8
FFFFFFF800FFFFFFF8
FFFFFFF800FFFFFFF8
FFFFFFF800FFFFFFF8
FFFFFFF801FFFFFFF8
FFFFFFF801FFFFFFF8
FFFFFFFC01FFFFFFF8
FFFFFFFC03FFFFFFF8
FFFFFFFE07FFFFFFF8
FFFFFFFFFFFFFFFFF8
FFFFFFFFFFFFFFFFF8
FFFFFFFFFFFFFFFFF8
FFFFFFFFFFFFFFFFF8
FFFFFFFFFFFFFFFFF8
7FFFFFFFFFFFFFFFF8
7FFFFFFFFFFFFFFFF8
7FFFFFFFFFFFFFFFF8
7FFFFFFFFFFFFFFFF8
7FFFFFFFFFFFFFFFF8
3FFFFFFFFFFFFFFFF8
3FFFFFFFFFFFFFFFF8
1FFFFFFFFFFFFFFFF8
1FFFFFFFFFFFFFFFF8
1FFFFFFFFFFFFFFFF8
0FFFFFFFFFFFFFFFF8
07FFFFFFFFFFFFFFF8
07FFFFFFFEFFFFFFF8
03FFFFFFFCFFFFFFF8
01FFFFFFF8FFFFFFF8
00FFFFFFE0FFFFFFF8
007FFFFFC0FFFFFFF8
001FFFFF00FFFFFFF8
0003FFFC00FFFFFFF8
00003F8000FFFFFFF8
0000000000FFFFFFF8
0000000000FFFFFFF8
0000000000FFFFFFF8
0000000000FFFFFFF8
0000000000FFFFFFF8
0000000000FFFFFFF8
0000000000FFFFFFF8
0000000000FFFFFFF8
0000000000FFFFFFF8
0000000000FFFFFFF8
0000000000FFFFFFF8
FFFFFFF800FFFFFFF8
FFFFFFF800FFFFFFF8
FFFFFFF800FFFFFFF8
FFFFFFF800FFFFFFF8
FFFFFFF800FFFFFFF8
FFFFFFF800FFFFFFF8
FFFFFFF800FFFFFFF8
FFFFFFF800FFFFFFF8
FFFFFFF800FFFFFFF8
FFFFFFF800FFFFFFF8
FFFFFFF800FFFFFFF8
FFFFFFF800FFFFFFF8
FFFFFFF800FFFFFFF8
FFFFFFF800FFFFFFF8
FFFFFFF800FFFFFFF8
FFFFFFF800FFFFFFF8
FFFFFFF800FFFFFFF8
FFFFFFF800FFFFFFF8
FFFFFFF800FFFFFFF8
FFFFFFF800FFFFFFF8
FFFFFFF800FFFFFFF8
FFFFFFF800FFFFFFF8
FFFFFFF800FFFFFFF8
FFFFFFF800FFFFFFF8
FFFFFFF800FFFFFFF8
FFFFFFF800FFFFFFF8
FFFFFFF800FFFFFFF8
FFFFFFF800FFFFFFF8
FFFFFFF800FFFFFFF8
FFFFFFF800FFFFFFF8
FFFFFFF800FFFFFFF8
FFFFFFF800FFFFFFF8
FFFFFFF800FFFFFFF8
FFFFFFF800FFFFFFF8
FFFFFFF800FFFFFFF0
FFFFFFF801FFFFFFF0
FFFFFFF801FFFFFFF0
FFFFFFFC01FFFFFFF0
FFFFFFFC01FFFFFFF0
FFFFFFFE03FFFFFFF0
FFFFFFFF07FFFFFFF0
7FFFFFFFFFFFFFFFF0
7FFFFFFFFFFFFFFFF0
7FFFFFFFFFFFFFFFF0
7FFFFFFFFFFFFFFFE0
7FFFFFFFFFFFFFFFE0
7FFFFFFFFFFFFFFFE0
3FFFFFFFFFFFFFFFE0
3FFFFFFFFFFFFFFFC0
3FFFFFFFFFFFFFFFC0
1FFFFFFFFFFFFFFFC0
1FFFFFFFFFFFFFFF80
1FFFFFFFFFFFFFFF80
0FFFFFFFFFFFFFFF00
0FFFFFFFFFFFFFFF00
07FFFFFFFFFFFFFE00
03FFFFFFFFFFFFFC00
00FFFFFFFFFFFFF800
007FFFFFFFFFFFE000
000FFFFFFFFFFF0000
0000FFFFFFFFF00000
000001FFFFF8000000
ENDCHAR
STARTCHAR 003A
ENCODING 58
SWIDTH 202 0
DWIDTH 45 0
BBX 24 139 11 -1
BITMAP
FFFFFF
FFFFFF
FFFFFF
FFFFFF
FFFFFF
FFFFFF
FFFFFF
FFFFFF
FFFFFF
FFFFFF
FFFFFF
FFFFFF
FFFFFF
FFFFFF
FFFFFF
FFFFFF
FFFFFF
FFFFFF
FFFFFF
FFFFFF
FFFFFF
FFFFFF
FFFFFF
FFFFFF
FFFFFF
FFFFFF
FFFFFF
FFFFFF
FFFFFF
FFFFFF
000000
000000
000000
000000
000000
000000
000000
000000
000000
000000
000000
000000
000000
000000
000000
000000
000000
000000
000000
000000
000000
000000
000000
000000
000000
000000
000000
000000
000000
000000
000000
000000
000000
000000
000000
000000
000000
000000
000000
000000
000000
000000
000000
000000
000000
000000
000000
000000
000000
000000
000000
000000
000000
000000
000000
000000
000000
000000
000000
000000
000000
000000
000000
000000
000000
000000
000000
000000
000000
000000
000000
000000
000000
000000
000000
000000
000000
000000
000000
FFFFFF
FFFFFF
FFFFFF
FFFFFF
FFFFFF
FFFFFF
FFFFFF
FFFFFF
FFFFFF
FFFFFF
FFFFFF
FFFFFF
FFFFFF
FFFFFF
FFFFFF
FFFFFF
FFFFFF
FFFFFF
FFFFFF
FFFFFF
FFFFFF
FFFFFF
FFFFFF
FFFFFF
FFFFFF
FFFFFF
FFFFFF
FFFFFF
FFFFFF
FFFFFF
ENDCHAR
STARTCHAR 003B
ENCODING 59
SWIDTH 202 0
DWIDTH 45 0
BBX 24 169 11 -31
BITMAP
FFFFFF
FFFFFF
FFFFFF
FFFFFF
FFFFFF
FFFFFF
FFFFFF
FFFFFF
FFFFFF
FFFFFF
FFFFFF
FFFFFF
FFFFFF
FFFFFF
FFFFFF
FFFFFF
FFFFFF
FFFFFF
FFFFFF
FFFFFF
FFFFFF
FFFFFF
FFFFFF
FFFFFF
FFFFFF
FFFFFF
FFFFFF
FFFFFF
FFFFFF
FFFFFF
000000
000000
000000
000000
000000
000000
000000
000000
000000
000000
000000
000000
000000
000000
000000
000000
000000
000000
000000
000000
000000
000000
000000
000000
000000
000000
000000
000000
000000
000000
000000
000000
000000
000000
000000
000000
000000
000000
000000
000000
000000
000000
000000
000000
000000
000000
000000
000000
000000
000000
000000
000000
000000
000000
000000
000000
000000
000000
000000
000000
000000
000000
000000
000000
000000
000000
000000
000000
000000
000000
000000
000000
000000
000000
000000
000000
000000
000000
FFFFFF
FFFFFF
FFFFFF
FFFFFF
FFFFFF
FFFFFF
FFFFFF
FFFFFF
FFFFFF
FFFFFF
FFFFFF
FFFFFF
FFFFFF
FFFFFF
FFFFFF
FFFFFF
FFFFFF
FFFFFF
FFFFFF
FFFFFF
FFFFFF
FFFFFF
FFFFFF
FFFFFF
FFFFFF
FFFFFF
FFFFFF
FFFFFF
FFFFFF
FFFFFF
001FFF
001FFF
001FFF
001FFF
001FFF
001FFF
001FFF
001FFE
003FFE
003FFE
003FFE
003FFE
007FFE
007FFE
00FFFC
01FFFC
03FFFC
0FFFFC
FFFFF8
FFFFF8
FFFFF0
FFFFF0
FFFFE0
FFFFC0
FFFFC0
FFFF80
FFFE00
FFFC00
FFF000
FF8000
F80000
ENDCHAR
STARTCHAR 003C
ENCODING 60
SWIDTH 832 0
DWIDTH 185 0
BBX 125 121 30 6
BITMAP
00000000000000000000000000000008
00000000000000000000000000000038
000000000000000000000000000001F8
000000000000000000000000000007F8
00000000000000000000000000001FF8
0000000000000000000000000000FFF8
0000000000000000000000000003FFF8
000000000000000000000000001FFFF8
000000000000000000000000007FFFF8
00000000000000000000000001FFFFF8
0000000000000000000000000FFFFFF8
0000000000000000000000003FFFFFF8
000000000000000000000001FFFFFFF8
000000000000000000000007FFFFFFF8
00000000000000000000001FFFFFFFF8
0000000000000000000000FFFFFFFFF8
0000000000000000000003FFFFFFFFF8
000000000000000000000FFFFFFFFFF8
000000000000000000007FFFFFFFFFF8
00000000000000000001FFFFFFFFFFF8
0000000000000000000FFFFFFFFFFFE0
0000000000000000003FFFFFFFFFFF00
000000000000000000FFFFFFFFFFFC00
000000000000000007FFFFFFFFFFF000
00000000000000001FFFFFFFFFFF8000
00000000000000007FFFFFFFFFFE0000
0000000000000003FFFFFFFFFFF00000
000000000000000FFFFFFFFFFFC00000
000000000000007FFFFFFFFFFE000000
00000000000001FFFFFFFFFFF8000000
00000000000007FFFFFFFFFFC0000000
0000000000003FFFFFFFFFFF00000000
000000000000FFFFFFFFFFFC00000000
000000000007FFFFFFFFFFE000000000
00000000001FFFFFFFFFFF8000000000
00000000007FFFFFFFFFFC0000000000
0000000003FFFFFFFFFFF00000000000
000000000FFFFFFFFFFF800000000000
000000003FFFFFFFFFFE000000000000
00000001FFFFFFFFFFF0000000000000
00000007FFFFFFFFFFC0000000000000
0000003FFFFFFFFFFF00000000000000
000000FFFFFFFFFFF800000000000000
000003FFFFFFFFFFE000000000000000
00001FFFFFFFFFFF0000000000000000
00007FFFFFFFFFFC0000000000000000
0001FFFFFFFFFFE00000000000000000
000FFFFFFFFFFF800000000000000000
003FFFFFFFFFFE000000000000000000
01FFFFFFFFFFF0000000000000000000
07FFFFFFFFFFC0000000000000000000
1FFFFFFFFFFE00000000000000000000
FFFFFFFFFFF800000000000000000000
FFFFFFFFFFC000000000000000000000
FFFFFFFFFF0000000000000000000000
FFFFFFFFF80000000000000000000000
FFFFFFFFE00000000000000000000000
FFFFFFFF800000000000000000000000
FFFFFFFC000000000000000000000000
FFFFFFF0000000000000000000000000
FFFFFF80000000000000000000000000
FFFFFFC0000000000000000000000000
FFFFFFF8000000000000000000000000
FFFFFFFE000000000000000000000000
FFFFFFFF800000000000000000000000
FFFFFFFFF00000000000000000000000
FFFFFFFFFC0000000000000000000000
FFFFFFFFFF8000000000000000000000
FFFFFFFFFFE000000000000000000000
7FFFFFFFFFF800000000000000000000
0FFFFFFFFFFF00000000000000000000
03FFFFFFFFFFC0000000000000000000
00FFFFFFFFFFF8000000000000000000
001FFFFFFFFFFE000000000000000000
0007FFFFFFFFFFC00000000000000000
0000FFFFFFFFFFF00000000000000000
00003FFFFFFFFFFC0000000000000000
00000FFFFFFFFFFF8000000000000000
000001FFFFFFFFFFE000000000000000
0000007FFFFFFFFFFC00000000000000
0000000FFFFFFFFFFF00000000000000
00000003FFFFFFFFFFC0000000000000
00000000FFFFFFFFFFF8000000000000
000000001FFFFFFFFFFE000000000000
0000000007FFFFFFFFFFC00000000000
0000000000FFFFFFFFFFF00000000000
00000000003FFFFFFFFFFC0000000000
000000000007FFFFFFFFFF8000000000
000000000001FFFFFFFFFFE000000000
0000000000007FFFFFFFFFFC00000000
0000000000000FFFFFFFFFFF00000000
00000000000003FFFFFFFFFFC0000000
000000000000007FFFFFFFFFF8000000
000000000000001FFFFFFFFFFE000000
0000000000000007FFFFFFFFFFC00000
0000000000000000FFFFFFFFFFF00000
00000000000000003FFFFFFFFFFE0000
000000000000000007FFFFFFFFFF8000
000000000000000001FFFFFFFFFFE000
0000000000000000007FFFFFFFFFFC00
0000000000000000000FFFFFFFFFFF00
00000000000000000003FFFFFFFFFFE0
000000000000000000007FFFFFFFFFF8
000000000000000000001FFFFFFFFFF8
0000000000000000000007FFFFFFFFF8
0000000000000000000000FFFFFFFFF8
00000000000000000000003FFFFFFFF8
000000000000000000000007FFFFFFF8
000000000000000000000001FFFFFFF8
0000000000000000000000003FFFFFF8
0000000000000000000000000FFFFFF8
00000000000000000000000003FFFFF8
000000000000000000000000007FFFF8
000000000000000000000000001FFFF8
0000000000000000000000000003FFF8
0000000000000000000000000000FFF8
00000000000000000000000000003FF8
000000000000000000000000000007F8
000000000000000000000000000001F8
00000000000000000000000000000038
00000000000000000000000000000008
ENDCHAR
STARTCHAR 003D
ENCODING 61
SWIDTH 832 0
DWIDTH 185 0
BBX 127 63 29 35
BITMAP
FFFFFFFFFFFFFFFFFFFFFFFFFFFFFFFE
FFFFFFFFFFFFFFFFFFFFFFFFFFFFFFFE
FFFFFFFFFFFFFFFFFFFFFFFFFFFFFFFE
FFFFFFFFFFFFFFFFFFFFFFFFFFFFFFFE
FFFFFFFFFFFFFFFFFFFFFFFFFFFFFFFE
FFFFFFFFFFFFFFFFFFFFFFFFFFFFFFFE
FFFFFFFFFFFFFFFFFFFFFFFFFFFFFFFE
FFFFFFFFFFFFFFFFFFFFFFFFFFFFFFFE
FFFFFFFFFFFFFFFFFFFFFFFFFFFFFFFE
FFFFFFFFFFFFFFFFFFFFFFFFFFFFFFFE
FFFFFFFFFFFFFFFFFFFFFFFFFFFFFFFE
FFFFFFFFFFFFFFFFFFFFFFFFFFFFFFFE
FFFFFFFFFFFFFFFFFFFFFFFFFFFFFFFE
FFFFFFFFFFFFFFFFFFFFFFFFFFFFFFFE
FFFFFFFFFFFFFFFFFFFFFFFFFFFFFFFE
FFFFFFFFFFFFFFFFFFFFFFFFFFFFFFFE
FFFFFFFFFFFFFFFFFFFFFFFFFFFFFFFE
00000000000000000000000000000000
00000000000000000000000000000000
00000000000000000000000000000000
00000000000000000000000000000000
00000000000000000000000000000000
00000000000000000000000000000000
00000000000000000000000000000000
00000000000000000000000000000000
00000000000000000000000000000000
00000000000000000000000000000000
00000000000000000000000000000000
00000000000000000000000000000000
00000000000000000000000000000000
00000000000000000000000000000000
00000000000000000000000000000000
00000000000000000000000000000000
00000000000000000000000000000000
00000000000000000000000000000000
00000000000000000000000000000000
00000000000000000000000000000000
00000000000000000000000000000000
00000000000000000000000000000000
00000000000000000000000000000000
00000000000000000000000000000000
00000000000000000000000000000000
00000000000000000000000000000000
00000000000000000000000000000000
00000000000000000000000000000000
00000000000000000000000000000000
00000000000000000000000000000000
FFFFFFFFFFFFFFFFFFFFFFFFFFFFFFFE
FFFFFFFFFFFFFFFFFFFFFFFFFFFFFFFE
FFFFFFFFFFFFFFFFFFFFFFFFFFFFFFFE
FFFFFFFFFFFFFFFFFFFFFFFFFFFFFFFE
FFFFFFFFFFFFFFFFFFFFFFFFFFFFFFFE
FFFFFFFFFFFFFFFFFFFFFFFFFFFFFFFE
FFFFFFFFFFFFFFFFFFFFFFFFFFFFFFFE
FFFFFFFFFFFFFFFFFFFFFFFFFFFFFFFE
FFFFFFFFFFFFFFFFFFFFFFFFFFFFFFFE
FFFFFFFFFFFFFFFFFFFFFFFFFFFFFFFE
FFFFFFFFFFFFFFFFFFFFFFFFFFFFFFFE
FFFFFFFFFFFFFFFFFFFFFFFFFFFFFFFE
FFFFFFFFFFFFFFFFFFFFFFFFFFFFFFFE
FFFFFFFFFFFFFFFFFFFFFFFFFFFFFFFE
FFFFFFFFFFFFFFFFFFFFFFFFFFFFFFFE
FFFFFFFFFFFFFFFFFFFFFFFFFFFFFFFE
ENDCHAR
STARTCHAR 003E
ENCODING 62
SWIDTH 832 0
DWIDTH 185 0
BBX 125 121 30 6
BITMAP
80000000000000000000000000000000
E0000000000000000000000000000000
FC000000000000000000000000000000
FF000000000000000000000000000000
FFC00000000000000000000000000000
FFF80000000000000000000000000000
FFFE0000000000000000000000000000
FFFFC000000000000000000000000000
FFFFF000000000000000000000000000
FFFFFC00000000000000000000000000
FFFFFF80000000000000000000000000
FFFFFFE0000000000000000000000000
FFFFFFF8000000000000000000000000
FFFFFFFF000000000000000000000000
FFFFFFFFC00000000000000000000000
FFFFFFFFF80000000000000000000000
FFFFFFFFFE0000000000000000000000
FFFFFFFFFF8000000000000000000000
FFFFFFFFFFF000000000000000000000
3FFFFFFFFFFC00000000000000000000
07FFFFFFFFFF00000000000000000000
01FFFFFFFFFFE0000000000000000000
003FFFFFFFFFF8000000000000000000
000FFFFFFFFFFF000000000000000000
0001FFFFFFFFFFC00000000000000000
00007FFFFFFFFFF00000000000000000
00001FFFFFFFFFFE0000000000000000
000003FFFFFFFFFF8000000000000000
000000FFFFFFFFFFF000000000000000
0000001FFFFFFFFFFC00000000000000
00000007FFFFFFFFFF00000000000000
00000000FFFFFFFFFFE0000000000000
000000003FFFFFFFFFF8000000000000
000000000FFFFFFFFFFE000000000000
0000000001FFFFFFFFFFC00000000000
00000000007FFFFFFFFFF00000000000
00000000000FFFFFFFFFFE0000000000
000000000003FFFFFFFFFF8000000000
0000000000007FFFFFFFFFE000000000
0000000000001FFFFFFFFFFC00000000
00000000000003FFFFFFFFFF00000000
00000000000000FFFFFFFFFFC0000000
000000000000003FFFFFFFFFF8000000
0000000000000007FFFFFFFFFE000000
0000000000000001FFFFFFFFFFC00000
00000000000000003FFFFFFFFFF00000
00000000000000000FFFFFFFFFFC0000
000000000000000001FFFFFFFFFF8000
0000000000000000007FFFFFFFFFE000
0000000000000000000FFFFFFFFFF800
00000000000000000003FFFFFFFFFF00
00000000000000000000FFFFFFFFFFC0
000000000000000000001FFFFFFFFFF8
0000000000000000000007FFFFFFFFF8
0000000000000000000000FFFFFFFFF8
00000000000000000000003FFFFFFFF8
000000000000000000000007FFFFFFF8
000000000000000000000001FFFFFFF8
0000000000000000000000003FFFFFF8
0000000000000000000000000FFFFFF8
00000000000000000000000007FFFFF8
0000000000000000000000001FFFFFF8
000000000000000000000000FFFFFFF8
000000000000000000000003FFFFFFF8
00000000000000000000001FFFFFFFF8
00000000000000000000007FFFFFFFF8
0000000000000000000001FFFFFFFFF8
000000000000000000000FFFFFFFFFF8
000000000000000000003FFFFFFFFFF8
00000000000000000001FFFFFFFFFFF0
00000000000000000007FFFFFFFFFF80
0000000000000000001FFFFFFFFFFE00
000000000000000000FFFFFFFFFFF800
000000000000000003FFFFFFFFFFC000
00000000000000001FFFFFFFFFFF0000
00000000000000007FFFFFFFFFF80000
0000000000000001FFFFFFFFFFE00000
000000000000000FFFFFFFFFFF800000
000000000000003FFFFFFFFFFC000000
00000000000001FFFFFFFFFFF0000000
00000000000007FFFFFFFFFF80000000
0000000000003FFFFFFFFFFE00000000
000000000000FFFFFFFFFFF000000000
000000000003FFFFFFFFFFC000000000
00000000001FFFFFFFFFFF0000000000
00000000007FFFFFFFFFF80000000000
0000000003FFFFFFFFFFE00000000000
000000000FFFFFFFFFFF000000000000
000000003FFFFFFFFFFC000000000000
00000001FFFFFFFFFFF0000000000000
00000007FFFFFFFFFF80000000000000
0000003FFFFFFFFFFE00000000000000
000000FFFFFFFFFFF000000000000000
000003FFFFFFFFFFC000000000000000
00001FFFFFFFFFFF0000000000000000
00007FFFFFFFFFF80000000000000000
0003FFFFFFFFFFE00000000000000000
000FFFFFFFFFFF000000000000000000
003FFFFFFFFFFC000000000000000000
01FFFFFFFFFFF0000000000000000000
07FFFFFFFFFF80000000000000000000
3FFFFFFFFFFE00000000000000000000
FFFFFFFFFFF000000000000000000000
FFFFFFFFFFC000000000000000000000
FFFFFFFFFE0000000000000000000000
FFFFFFFFF80000000000000000000000
FFFFFFFFE00000000000000000000000
FFFFFFFF000000000000000000000000
FFFFFFFC000000000000000000000000
FFFFFFE0000000000000000000000000
FFFFFF80000000000000000000000000
FFFFFE00000000000000000000000000
FFFFF000000000000000000000000000
FFFFC000000000000000000000000000
FFFE0000000000000000000000000000
FFF80000000000000000000000000000
FFE00000000000000000000000000000
FF000000000000000000000000000000
FC000000000000000000000000000000
E0000000000000000000000000000000
80000000000000000000000000000000
ENDCHAR
STARTCHAR 003F
ENCODING 63
SWIDTH 378 0
DWIDTH 84 0
BBX 69 182 7 -1
BITMAP
000001FFFFF8000000
0000FFFFFFFFF00000
0007FFFFFFFFFF0000
003FFFFFFFFFFFE000
00FFFFFFFFFFFFF800
01FFFFFFFFFFFFFC00
03FFFFFFFFFFFFFE00
07FFFFFFFFFFFFFF00
07FFFFFFFFFFFFFF80
0FFFFFFFFFFFFFFF80
0FFFFFFFFFFFFFFFC0
1FFFFFFFFFFFFFFFC0
1FFFFFFFFFFFFFFFE0
3FFFFFFFFFFFFFFFE0
3FFFFFFFFFFFFFFFE0
3FFFFFFFFFFFFFFFF0
3FFFFFFFFFFFFFFFF0
3FFFFFFFFFFFFFFFF0
7FFFFFFFFFFFFFFFF0
7FFFFFFFFFFFFFFFF0
7FFFFFFFFFFFFFFFF8
7FFFFFFF07FFFFFFF8
7FFFFFFE03FFFFFFF8
7FFFFFFC01FFFFFFF8
7FFFFFFC01FFFFFFF8
7FFFFFFC00FFFFFFF8
7FFFFFFC00FFFFFFF8
FFFFFFF800FFFFFFF8
FFFFFFF800FFFFFFF8
FFFFFFF800FFFFFFF8
FFFFFFF800FFFFFFF8
FFFFFFF800FFFFFFF8
FFFFFFF800FFFFFFF8
FFFFFFF800FFFFFFF8
FFFFFFF800FFFFFFF8
FFFFFFF800FFFFFFF8
FFFFFFF800FFFFFFF8
FFFFFFF800FFFFFFF8
FFFFFFF800FFFFFFF8
FFFFFFF800FFFFFFF8
FFFFFFF800FFFFFFF8
FFFFFFF800FFFFFFF8
FFFFFFF800FFFFFFF8
FFFFFFF800FFFFFFF8
FFFFFFF800FFFFFFF8
FFFFFFF800FFFFFFF8
FFFFFFF800FFFFFFF8
FFFFFFF800FFFFFFF8
FFFFFFF800FFFFFFF8
FFFFFFF800FFFFFFF8
FFFFFFF800FFFFFFF8
FFFFFFF800FFFFFFF8
FFFFFFF800FFFFFFF8
FFFFFFF800FFFFFFF8
FFFFFFF800FFFFFFF8
FFFFFFF800FFFFFFF8
FFFFFFF800FFFFFFF8
FFFFFFF800FFFFFFF8
FFFFFFF800FFFFFFF8
FFFFFFF800FFFFFFF8
FFFFFFF800FFFFFFF8
FFFFFFF800FFFFFFF8
0000000000FFFFFFF8
0000000000FFFFFFF8
0000000000FFFFFFF8
0000000000FFFFFFF8
0000000000FFFFFFF0
0000000001FFFFFFF0
0000000001FFFFFFF0
0000000001FFFFFFF0
0000000003FFFFFFF0
0000000003FFFFFFE0
0000000007FFFFFFE0
0000000007FFFFFFE0
000000000FFFFFFFE0
000000000FFFFFFFC0
000000001FFFFFFFC0
000000001FFFFFFFC0
000000003FFFFFFF80
000000003FFFFFFF80
000000007FFFFFFF80
000000007FFFFFFF00
00000000FFFFFFFF00
00000000FFFFFFFE00
00000001FFFFFFFE00
00000001FFFFFFFC00
00000003FFFFFFFC00
00000003FFFFFFF800
00000007FFFFFFF800
00000007FFFFFFF000
0000000FFFFFFFF000
0000000FFFFFFFE000
0000001FFFFFFFE000
0000001FFFFFFFC000
0000003FFFFFFFC000
0000003FFFFFFF8000
0000007FFFFFFF8000
0000007FFFFFFF0000
000000FFFFFFFF0000
000000FFFFFFFE0000
000000FFFFFFFE0000
000001FFFFFFFC0000
000001FFFFFFFC0000
000003FFFFFFF80000
000003FFFFFFF80000
000003FFFFFFF00000
000007FFFFFFF00000
000007FFFFFFF00000
000007FFFFFFE00000
000007FFFFFFE00000
000007FFFFFFE00000
000007FFFFFFC00000
00000FFFFFFFC00000
00000FFFFFFFC00000
00000FFFFFFFC00000
00000FFFFFFFC00000
00000FFFFFFF800000
00000FFFFFFF800000
00000FFFFFFF800000
00000FFFFFFF800000
00000FFFFFFF800000
00000FFFFFFF800000
00000FFFFFFF800000
00000FFFFFFF800000
00000FFFFFFF800000
00000FFFFFFF800000
00000FFFFFFF800000
00000FFFFFFF800000
00000FFFFFFF800000
00000FFFFFFF800000
00000FFFFFFF800000
00000FFFFFFF800000
00000FFFFFFF800000
00000FFFFFFF800000
00000FFFFFFF800000
00000FFFFFFF800000
00000FFFFFFF800000
00000FFFFFFF800000
00000FFFFFFF800000
000000000000000000
000000000000000000
000000000000000000
000000000000000000
000000000000000000
000000000000000000
000000000000000000
000000000000000000
000000000000000000
000000000000000000
000000000000000000
000000000000000000
000000000000000000
000000000000000000
000000000000000000
00000FFFFFFF800000
00000FFFFFFF800000
00000FFFFFFF800000
00000FFFFFFF800000
00000FFFFFFF800000
00000FFFFFFF800000
00000FFFFFFF800000
00000FFFFFFF800000
00000FFFFFFF800000
00000FFFFFFF800000
00000FFFFFFF800000
00000FFFFFFF800000
00000FFFFFFF800000
00000FFFFFFF800000
00000FFFFFFF800000
00000FFFFFFF800000
00000FFFFFFF800000
00000FFFFFFF800000
00000FFFFFFF800000
00000FFFFFFF800000
00000FFFFFFF800000
00000FFFFFFF800000
00000FFFFFFF800000
00000FFFFFFF800000
00000FFFFFFF800000
00000FFFFFFF800000
00000FFFFFFF800000
00000FFFFFFF800000
ENDCHAR
STARTCHAR 0040
ENCODING 64
SWIDTH 999 0
DWIDTH 222 0
BBX 198 193 12 -33
BITMAP
0000000000000000000000007FFFFF00000000000000000000
0000000000000000000000FFFFFFFFFF000000000000000000
000000000000000000001FFFFFFFFFFFF80000000000000000
00000000000000000003FFFFFFFFFFFFFFC000000000000000
0000000000000000003FFFFFFFFFFFFFFFF800000000000000
000000000000000001FFFFFFFFFFFFFFFFFF80000000000000
00000000000000000FFFFFFFFFFFFFFFFFFFF0000000000000
00000000000000007FFFFFFFFFFFFFFFFFFFFC000000000000
0000000000000001FFFFFFFFFFFFFFFFFFFFFF800000000000
000000000000000FFFFFFFFFFFFFFFFFFFFFFFE00000000000
000000000000003FFFFFFFFFFFFFFFFFFFFFFFF80000000000
00000000000000FFFFFFFFFFFFFFFFFFFFFFFFFE0000000000
00000000000003FFFFFFFFFFFFFFFFFFFFFFFFFF8000000000
0000000000000FFFFFFFFFFF800003FFFFFFFFFFE000000000
0000000000001FFFFFFFFF8000000003FFFFFFFFF000000000
0000000000007FFFFFFFF000000000001FFFFFFFFC00000000
000000000001FFFFFFFF00000000000001FFFFFFFE00000000
000000000003FFFFFFF8000000000000003FFFFFFF00000000
00000000000FFFFFFFC00000000000000007FFFFFFC0000000
00000000001FFFFFFE000000000000000001FFFFFFE0000000
00000000007FFFFFF80000000000000000003FFFFFF0000000
0000000000FFFFFFC00000000000000000000FFFFFF8000000
0000000001FFFFFF0000000000000000000003FFFFFC000000
0000000003FFFFFC0000000000000000000001FFFFFE000000
000000000FFFFFF800000000000000000000007FFFFF000000
000000001FFFFFE000000000000000000000001FFFFF800000
000000003FFFFF8000000000000000000000000FFFFFC00000
000000007FFFFF00000000000000000000000003FFFFE00000
00000000FFFFFC00000000000000000000000001FFFFF00000
00000001FFFFF800000000000000000000000000FFFFF80000
00000003FFFFF0000000000000000000000000007FFFFC0000
00000007FFFFC0000000000000000000000000003FFFFE0000
0000000FFFFF80000000000000000000000000001FFFFF0000
0000001FFFFF00000000000000000000000000000FFFFF0000
0000003FFFFE000000000000000000000000000007FFFF8000
0000007FFFF8000000000000000000000000000003FFFFC000
000000FFFFF0000000000000000000000000000001FFFFC000
000001FFFFE0000000000000000000000000000000FFFFE000
000001FFFFC00000000000000000000000000000007FFFF000
000003FFFF800000000000000000000000000000003FFFF000
000007FFFF000000000000000000000000000000001FFFF800
00000FFFFE000000000000000000000000000000001FFFF800
00001FFFFC000000000000000000000000000000000FFFFC00
00001FFFF80000000000000000000000000000000007FFFE00
00003FFFF00000000000000000000000000000000007FFFE00
00007FFFF00000000000000000000000000000000003FFFE00
00007FFFE00000000000000000000000000000000003FFFF00
0000FFFFC00000000000000000000000000000000001FFFF00
0001FFFF800000000000000000000000000000000001FFFF80
0001FFFF000000000000000000000000000000000000FFFF80
0003FFFF000000000000000000000000000000000000FFFFC0
0007FFFE0000000000000007FFC000000000000000007FFFC0
0007FFFC00000000000000FFFFFE00000000000000007FFFC0
000FFFFC00000000000007FFFFFF80000000000000003FFFE0
000FFFF80000000000003FFFFFFFE0000000000000003FFFE0
001FFFF0000000000000FFFFFFFFF80007FFE00000003FFFE0
001FFFF0000000000003FFFFFFFFFC000FFFE00000001FFFE0
003FFFE000000000000FFFFFFFFFFE000FFFE00000001FFFF0
003FFFE000000000001FFFFFFFFFFF001FFFE00000001FFFF0
007FFFC000000000007FFFFFFFFFFF801FFFE00000000FFFF0
007FFFC00000000000FFFFFFFFFFFFC03FFFC00000000FFFF0
00FFFF800000000001FFFFFFFFFFFFC03FFFC00000000FFFF0
00FFFF800000000003FFFFFF801FFFE07FFFC00000000FFFF8
01FFFF000000000007FFFFFC0003FFF07FFFC000000007FFF8
01FFFF00000000000FFFFFE00000FFF0FFFF8000000007FFF8
01FFFE00000000001FFFFF8000003FF8FFFF8000000007FFF8
03FFFE00000000003FFFFF0000001FFDFFFF8000000007FFF8
03FFFC00000000007FFFFC0000000FFDFFFF8000000007FFF8
07FFFC0000000000FFFFF800000007FFFFFF0000000007FFF8
07FFFC0000000001FFFFF000000003FFFFFF0000000007FFFC
07FFF80000000001FFFFE000000001FFFFFF0000000003FFFC
0FFFF80000000003FFFFC000000001FFFFFF0000000003FFFC
0FFFF00000000007FFFF8000000000FFFFFE0000000003FFFC
0FFFF00000000007FFFF0000000000FFFFFE0000000003FFFC
0FFFF0000000000FFFFF00000000007FFFFE0000000003FFFC
1FFFF0000000001FFFFE00000000007FFFFE0000000003FFFC
1FFFE0000000001FFFFC00000000003FFFFC0000000003FFFC
1FFFE0000000003FFFF800000000003FFFFC0000000003FFFC
1FFFE0000000003FFFF800000000003FFFFC0000000003FFFC
3FFFC0000000007FFFF000000000003FFFFC0000000003FFFC
3FFFC0000000007FFFE000000000001FFFF80000000003FFFC
3FFFC000000000FFFFE000000000001FFFF80000000003FFFC
3FFFC000000000FFFFC000000000001FFFF80000000003FFFC
3FFFC000000001FFFFC000000000001FFFF80000000003FFFC
7FFF8000000001FFFF8000000000001FFFF00000000007FFF8
7FFF8000000003FFFF8000000000001FFFF00000000007FFF8
7FFF8000000003FFFF8000000000003FFFF00000000007FFF8
7FFF8000000003FFFF0000000000003FFFF00000000007FFF8
7FFF8000000007FFFF0000000000003FFFF00000000007FFF8
7FFF8000000007FFFE0000000000003FFFE00000000007FFF8
7FFF8000000007FFFE0000000000007FFFE00000000007FFF8
FFFF000000000FFFFE0000000000007FFFE0000000000FFFF8
FFFF000000000FFFFC0000000000007FFFE0000000000FFFF0
FFFF000000000FFFFC0000000000007FFFC0000000000FFFF0
FFFF000000000FFFFC0000000000007FFFC0000000000FFFF0
FFFF000000001FFFFC000000000000FFFFC0000000001FFFF0
FFFF000000001FFFF8000000000000FFFFC0000000001FFFF0
FFFF000000001FFFF8000000000000FFFF80000000001FFFE0
FFFF000000001FFFF8000000000000FFFF80000000001FFFE0
FFFF000000001FFFF8000000000001FFFF80000000003FFFE0
FFFF000000001FFFF8000000000001FFFF80000000003FFFC0
FFFF000000003FFFF8000000000001FFFF00000000003FFFC0
FFFF000000003FFFF0000000000001FFFF00000000007FFFC0
FFFF000000003FFFF0000000000003FFFF00000000007FFF80
FFFF000000003FFFF0000000000003FFFF0000000000FFFF80
FFFF000000003FFFF0000000000003FFFE0000000000FFFF80
FFFF000000003FFFF0000000000003FFFE0000000001FFFF00
FFFF000000003FFFF0000000000007FFFE0000000001FFFF00
FFFF000000003FFFF0000000000007FFFE0000000003FFFE00
FFFF000000003FFFF0000000000007FFFC0000000003FFFE00
FFFF000000003FFFF0000000000007FFFC0000000007FFFC00
FFFF000000003FFFF000000000000FFFFC0000000007FFFC00
FFFF000000003FFFF000000000000FFFFC000000000FFFF800
FFFF000000003FFFF000000000000FFFF8000000001FFFF800
FFFF000000003FFFF000000000001FFFF8000000001FFFF000
FFFF800000003FFFF000000000001FFFF8000000003FFFF000
7FFF800000003FFFF000000000003FFFF8000000007FFFE000
7FFF800000003FFFF000000000003FFFF0000000007FFFE000
7FFF800000003FFFF000000000007FFFF000000000FFFFC000
7FFF800000003FFFF000000000007FFFF000000001FFFF8000
7FFF800000003FFFF80000000000FFFFF000000003FFFF8000
7FFFC00000001FFFF80000000000FFFFF000000007FFFF0000
3FFFC00000001FFFF80000000001FFFFE00000000FFFFE0000
3FFFC00000001FFFF80000000003FFFFE00000001FFFFE0000
3FFFC00000001FFFFC0000000007FFFFE00000003FFFFC0000
3FFFE00000000FFFFC0000000007FFFFE00000007FFFF80000
3FFFE00000000FFFFE000000000FFFFFE0000000FFFFF00000
1FFFE00000000FFFFE000000001FFFFFF0000001FFFFE00000
1FFFE000000007FFFF000000003FEFFFF0000003FFFFC00000
1FFFF000000007FFFF000000007FCFFFF800000FFFFF800000
1FFFF000000007FFFF80000001FFC7FFFC00001FFFFF000000
0FFFF000000003FFFFC0000003FF87FFFE00007FFFFE000000
0FFFF800000003FFFFE000000FFF07FFFF0001FFFFFC000000
0FFFF800000001FFFFF800001FFE07FFFFE01FFFFFF8000000
07FFFC00000000FFFFFE0000FFFC07FFFFFFFFFFFFF0000000
07FFFC00000000FFFFFFC007FFFC07FFFFFFFFFFFFE0000000
07FFFC000000007FFFFFFFFFFFF803FFFFFFFFFFFF80000000
03FFFE000000003FFFFFFFFFFFF003FFFFFFFFFFFF00000000
03FFFE000000001FFFFFFFFFFFE003FFFFFFFFFFFC00000000
01FFFF000000000FFFFFFFFFFFC001FFFFFFFFFFF800000000
01FFFF0000000007FFFFFFFFFF0001FFFFFFFFFFE000000000
01FFFF8000000003FFFFFFFFFE0000FFFFFFFFFF8000000000
00FFFFC000000000FFFFFFFFF800007FFFFFFFFE0000000000
00FFFFC0000000003FFFFFFFE000001FFFFFFFF80000000000
007FFFE0000000000FFFFFFF8000000FFFFFFFC00000000000
007FFFE00000000001FFFFFC00000001FFFFFC000000000000
003FFFF000000000000FFF80000000001FFF80000000000000
003FFFF8000000000000000000000000000000000000000000
001FFFFC000000000000000000000000000000000000000000
000FFFFC000000000000000000000000000000000000000000
000FFFFE000000000000000000000000000000000000000000
0007FFFF000000000000000000000000000000000000000000
0003FFFF800000000000000000000000000000000000000000
0003FFFFC00000000000000000000000000000000000000000
0001FFFFC00000000000000000000000000000000000000000
0000FFFFE00000000000000000000000000000000000000000
0000FFFFF00000000000000000000000000000000000000000
00007FFFF80000000000000000000000000000000000000000
00003FFFFE0000000000000000000000000000000000000000
00001FFFFF0000000000000000000000000000000000000000
00000FFFFF8000000000000000000000000000000600000000
000007FFFFC000000000000000000000000000001E00000000
000003FFFFE000000000000000000000000000003F00000000
000001FFFFF00000000000000000000000000000FF80000000
000000FFFFFC0000000000000000000000000003FF80000000
0000007FFFFE0000000000000000000000000007FFC0000000
0000003FFFFF800000000000000000000000001FFFE0000000
0000001FFFFFC00000000000000000000000007FFFE0000000
0000000FFFFFF0000000000000000000000001FFFFF0000000
00000007FFFFFC000000000000000000000007FFFFE0000000
00000003FFFFFF00000000000000000000001FFFFFC0000000
00000000FFFFFFC0000000000000000000007FFFFF00000000
000000007FFFFFF000000000000000000003FFFFFE00000000
000000003FFFFFFC0000000000000000001FFFFFF800000000
000000000FFFFFFF800000000000000000FFFFFFF000000000
0000000007FFFFFFF00000000000000007FFFFFFC000000000
0000000001FFFFFFFE000000000000007FFFFFFF8000000000
0000000000FFFFFFFFF0000000000007FFFFFFFE0000000000
00000000003FFFFFFFFF8000000000FFFFFFFFF80000000000
00000000001FFFFFFFFFFF800001FFFFFFFFFFF00000000000
000000000007FFFFFFFFFFFFFFFFFFFFFFFFFFC00000000000
000000000001FFFFFFFFFFFFFFFFFFFFFFFFFF000000000000
0000000000007FFFFFFFFFFFFFFFFFFFFFFFFC000000000000
0000000000001FFFFFFFFFFFFFFFFFFFFFFFE0000000000000
00000000000003FFFFFFFFFFFFFFFFFFFFFF80000000000000
00000000000000FFFFFFFFFFFFFFFFFFFFFE00000000000000
000000000000001FFFFFFFFFFFFFFFFFFFF000000000000000
0000000000000003FFFFFFFFFFFFFFFFFF8000000000000000
00000000000000007FFFFFFFFFFFFFFFFC0000000000000000
000000000000000007FFFFFFFFFFFFFFC00000000000000000
0000000000000000003FFFFFFFFFFFFC000000000000000000
00000000000000000001FFFFFFFFFF00000000000000000000
0000000000000000000000FFFFFF0000000000000000000000
ENDCHAR
STARTCHAR 0041
ENCODING 65
SWIDTH 382 0
DWIDTH 85 0
BBX 75 182 5 -1
BITMAP
00007FFFFFFFFF800000
00007FFFFFFFFF800000
00007FFFFFFFFF800000
00007FFFFFFFFF800000
00007FFFFFFFFF800000
00007FFFFFFFFF800000
00007FFFFFFFFF800000
00007FFFFFFFFF800000
00007FFFFFFFFFC00000
0000FFFFFFFFFFC00000
0000FFFFFFFFFFC00000
0000FFFFFFFFFFC00000
0000FFFFFFFFFFC00000
0000FFFFFFFFFFC00000
0000FFFFFFFFFFC00000
0000FFFFFFFFFFC00000
0000FFFFFFFFFFC00000
0000FFFFFFFFFFC00000
0000FFFFFFFFFFE00000
0001FFFFFFFFFFE00000
0001FFFFFFFFFFE00000
0001FFFFFFFFFFE00000
0001FFFFFFFFFFE00000
0001FFFFFFFFFFE00000
0001FFFFFFFFFFE00000
0001FFFFFFFFFFE00000
0001FFFFFFFFFFE00000
0001FFFFFFFFFFE00000
0001FFFFFFFFFFF00000
0001FFFFFFFFFFF00000
0003FFFFFFFFFFF00000
0003FFFFFFFFFFF00000
0003FFFFFFFFFFF00000
0003FFFFFFFFFFF00000
0003FFFFF1FFFFF00000
0003FFFFF1FFFFF00000
0003FFFFF1FFFFF00000
0003FFFFF1FFFFF00000
0003FFFFF1FFFFF80000
0003FFFFF1FFFFF80000
0007FFFFF1FFFFF80000
0007FFFFE1FFFFF80000
0007FFFFE1FFFFF80000
0007FFFFE1FFFFF80000
0007FFFFE1FFFFF80000
0007FFFFE1FFFFF80000
0007FFFFE1FFFFF80000
0007FFFFE0FFFFF80000
0007FFFFE0FFFFFC0000
0007FFFFE0FFFFFC0000
000FFFFFE0FFFFFC0000
000FFFFFE0FFFFFC0000
000FFFFFE0FFFFFC0000
000FFFFFE0FFFFFC0000
000FFFFFE0FFFFFC0000
000FFFFFE0FFFFFC0000
000FFFFFE0FFFFFC0000
000FFFFFE0FFFFFC0000
000FFFFFC0FFFFFE0000
000FFFFFC0FFFFFE0000
000FFFFFC0FFFFFE0000
001FFFFFC0FFFFFE0000
001FFFFFC0FFFFFE0000
001FFFFFC0FFFFFE0000
001FFFFFC07FFFFE0000
001FFFFFC07FFFFE0000
001FFFFFC07FFFFE0000
001FFFFFC07FFFFE0000
001FFFFFC07FFFFE0000
001FFFFFC07FFFFF0000
001FFFFFC07FFFFF0000
003FFFFFC07FFFFF0000
003FFFFFC07FFFFF0000
003FFFFFC07FFFFF0000
003FFFFFC07FFFFF0000
003FFFFF807FFFFF0000
003FFFFF807FFFFF0000
003FFFFF807FFFFF0000
003FFFFF807FFFFF0000
003FFFFF807FFFFF8000
003FFFFF807FFFFF8000
007FFFFF803FFFFF8000
007FFFFF803FFFFF8000
007FFFFF803FFFFF8000
007FFFFF803FFFFF8000
007FFFFF803FFFFF8000
007FFFFF803FFFFF8000
007FFFFF803FFFFF8000
007FFFFF803FFFFF8000
007FFFFF803FFFFFC000
007FFFFF803FFFFFC000
007FFFFF003FFFFFC000
00FFFFFF003FFFFFC000
00FFFFFF003FFFFFC000
00FFFFFF003FFFFFC000
00FFFFFF003FFFFFC000
00FFFFFF003FFFFFC000
00FFFFFF003FFFFFC000
00FFFFFF001FFFFFC000
00FFFFFF001FFFFFE000
00FFFFFF001FFFFFE000
00FFFFFF001FFFFFE000
01FFFFFF001FFFFFE000
01FFFFFF001FFFFFE000
01FFFFFF001FFFFFE000
01FFFFFF001FFFFFE000
01FFFFFF001FFFFFE000
01FFFFFF001FFFFFE000
01FFFFFE001FFFFFE000
01FFFFFE001FFFFFF000
01FFFFFE001FFFFFF000
01FFFFFE001FFFFFF000
03FFFFFE001FFFFFF000
03FFFFFE001FFFFFF000
03FFFFFE001FFFFFF000
03FFFFFE000FFFFFF000
03FFFFFE000FFFFFF000
03FFFFFE000FFFFFF000
03FFFFFE000FFFFFF000
03FFFFFE000FFFFFF800
03FFFFFFFFFFFFFFF800
03FFFFFFFFFFFFFFF800
03FFFFFFFFFFFFFFF800
07FFFFFFFFFFFFFFF800
07FFFFFFFFFFFFFFF800
07FFFFFFFFFFFFFFF800
07FFFFFFFFFFFFFFF800
07FFFFFFFFFFFFFFF800
07FFFFFFFFFFFFFFF800
07FFFFFFFFFFFFFFFC00
07FFFFFFFFFFFFFFFC00
07FFFFFFFFFFFFFFFC00
07FFFFFFFFFFFFFFFC00
0FFFFFFFFFFFFFFFFC00
0FFFFFFFFFFFFFFFFC00
0FFFFFFFFFFFFFFFFC00
0FFFFFFFFFFFFFFFFC00
0FFFFFFFFFFFFFFFFC00
0FFFFFFFFFFFFFFFFC00
0FFFFFFFFFFFFFFFFE00
0FFFFFFFFFFFFFFFFE00
0FFFFFFFFFFFFFFFFE00
0FFFFFFC0007FFFFFE00
1FFFFFFC0007FFFFFE00
1FFFFFFC0007FFFFFE00
1FFFFFFC0007FFFFFE00
1FFFFFFC0007FFFFFE00
1FFFFFFC0007FFFFFE00
1FFFFFFC0007FFFFFE00
1FFFFFFC0007FFFFFF00
1FFFFFFC0007FFFFFF00
1FFFFFF80007FFFFFF00
1FFFFFF80007FFFFFF00
1FFFFFF80007FFFFFF00
3FFFFFF80007FFFFFF00
3FFFFFF80007FFFFFF00
3FFFFFF80007FFFFFF00
3FFFFFF80007FFFFFF00
3FFFFFF80007FFFFFF00
3FFFFFF80003FFFFFF80
3FFFFFF80003FFFFFF80
3FFFFFF80003FFFFFF80
3FFFFFF80003FFFFFF80
3FFFFFF80003FFFFFF80
7FFFFFF80003FFFFFF80
7FFFFFF80003FFFFFF80
7FFFFFF80003FFFFFF80
7FFFFFF80003FFFFFF80
7FFFFFF80003FFFFFF80
7FFFFFF00003FFFFFFC0
7FFFFFF00003FFFFFFC0
7FFFFFF00003FFFFFFC0
7FFFFFF00003FFFFFFC0
7FFFFFF00003FFFFFFC0
FFFFFFF00003FFFFFFC0
FFFFFFF00003FFFFFFC0
FFFFFFF00003FFFFFFC0
FFFFFFF00001FFFFFFC0
FFFFFFF00001FFFFFFC0
FFFFFFF00001FFFFFFE0
FFFFFFF00001FFFFFFE0
FFFFFFF00001FFFFFFE0
ENDCHAR
STARTCHAR 0042
ENCODING 66
SWIDTH 387 0
DWIDTH 86 0
BBX 69 182 9 -1
BITMAP
FFFFFFFFFFFC000000
FFFFFFFFFFFFF00000
FFFFFFFFFFFFFF0000
FFFFFFFFFFFFFFC000
FFFFFFFFFFFFFFF000
FFFFFFFFFFFFFFF800
FFFFFFFFFFFFFFFE00
FFFFFFFFFFFFFFFE00
FFFFFFFFFFFFFFFF00
FFFFFFFFFFFFFFFF80
FFFFFFFFFFFFFFFF80
FFFFFFFFFFFFFFFFC0
FFFFFFFFFFFFFFFFC0
FFFFFFFFFFFFFFFFE0
FFFFFFFFFFFFFFFFE0
FFFFFFFFFFFFFFFFE0
FFFFFFFFFFFFFFFFE0
FFFFFFFFFFFFFFFFF0
FFFFFFFFFFFFFFFFF0
FFFFFFFFFFFFFFFFF0
FFFFFFFFFFFFFFFFF0
FFFFFFF80FFFFFFFF0
FFFFFFF803FFFFFFF0
FFFFFFF801FFFFFFF8
FFFFFFF801FFFFFFF8
FFFFFFF801FFFFFFF8
FFFFFFF800FFFFFFF8
FFFFFFF800FFFFFFF8
FFFFFFF800FFFFFFF8
FFFFFFF800FFFFFFF8
FFFFFFF800FFFFFFF8
FFFFFFF800FFFFFFF8
FFFFFFF800FFFFFFF8
FFFFFFF800FFFFFFF8
FFFFFFF800FFFFFFF8
FFFFFFF800FFFFFFF8
FFFFFFF800FFFFFFF8
FFFFFFF800FFFFFFF8
FFFFFFF800FFFFFFF8
FFFFFFF800FFFFFFF8
FFFFFFF800FFFFFFF8
FFFFFFF800FFFFFFF8
FFFFFFF800FFFFFFF8
FFFFFFF800FFFFFFF8
FFFFFFF800FFFFFFF8
FFFFFFF800FFFFFFF8
FFFFFFF800FFFFFFF8
FFFFFFF800FFFFFFF8
FFFFFFF800FFFFFFF8
FFFFFFF800FFFFFFF8
FFFFFFF800FFFFFFF8
FFFFFFF800FFFFFFF8
FFFFFFF800FFFFFFF8
FFFFFFF800FFFFFFF8
FFFFFFF800FFFFFFF8
FFFFFFF800FFFFFFF8
FFFFFFF800FFFFFFF8
FFFFFFF800FFFFFFF8
FFFFFFF800FFFFFFF8
FFFFFFF800FFFFFFF8
FFFFFFF800FFFFFFF8
FFFFFFF800FFFFFFF8
FFFFFFF800FFFFFFF8
FFFFFFF800FFFFFFF8
FFFFFFF800FFFFFFF0
FFFFFFF800FFFFFFF0
FFFFFFF801FFFFFFF0
FFFFFFF801FFFFFFF0
FFFFFFF801FFFFFFF0
FFFFFFF803FFFFFFF0
FFFFFFF807FFFFFFE0
FFFFFFF81FFFFFFFE0
FFFFFFFFFFFFFFFFE0
FFFFFFFFFFFFFFFFC0
FFFFFFFFFFFFFFFFC0
FFFFFFFFFFFFFFFF80
FFFFFFFFFFFFFFFF00
FFFFFFFFFFFFFFFE00
FFFFFFFFFFFFFFFC00
FFFFFFFFFFFFFFF800
FFFFFFFFFFFFFFF000
FFFFFFFFFFFFFFC000
FFFFFFFFFFFFFF0000
FFFFFFFFFFFFFC0000
FFFFFFFFFFFFFF0000
FFFFFFFFFFFFFFC000
FFFFFFFFFFFFFFE000
FFFFFFFFFFFFFFF800
FFFFFFFFFFFFFFFC00
FFFFFFFFFFFFFFFE00
FFFFFFFFFFFFFFFF00
FFFFFFFFFFFFFFFF80
FFFFFFFFFFFFFFFF80
FFFFFFFFFFFFFFFFC0
FFFFFFFFFFFFFFFFE0
FFFFFFFFFFFFFFFFE0
FFFFFFFFFFFFFFFFE0
FFFFFFF80FFFFFFFE0
FFFFFFF807FFFFFFF0
FFFFFFF803FFFFFFF0
FFFFFFF801FFFFFFF0
FFFFFFF801FFFFFFF0
FFFFFFF800FFFFFFF0
FFFFFFF800FFFFFFF0
FFFFFFF800FFFFFFF8
FFFFFFF800FFFFFFF8
FFFFFFF800FFFFFFF8
FFFFFFF800FFFFFFF8
FFFFFFF800FFFFFFF8
FFFFFFF800FFFFFFF8
FFFFFFF800FFFFFFF8
FFFFFFF800FFFFFFF8
FFFFFFF800FFFFFFF8
FFFFFFF800FFFFFFF8
FFFFFFF800FFFFFFF8
FFFFFFF800FFFFFFF8
FFFFFFF800FFFFFFF8
FFFFFFF800FFFFFFF8
FFFFFFF800FFFFFFF8
FFFFFFF800FFFFFFF8
FFFFFFF800FFFFFFF8
FFFFFFF800FFFFFFF8
FFFFFFF800FFFFFFF8
FFFFFFF800FFFFFFF8
FFFFFFF800FFFFFFF8
FFFFFFF800FFFFFFF8
FFFFFFF800FFFFFFF8
FFFFFFF800FFFFFFF8
FFFFFFF800FFFFFFF8
FFFFFFF800FFFFFFF8
FFFFFFF800FFFFFFF8
FFFFFFF800FFFFFFF8
FFFFFFF800FFFFFFF8
FFFFFFF800FFFFFFF8
FFFFFFF800FFFFFFF8
FFFFFFF800FFFFFFF8
FFFFFFF800FFFFFFF8
FFFFFFF800FFFFFFF8
FFFFFFF800FFFFFFF8
FFFFFFF800FFFFFFF8
FFFFFFF800FFFFFFF8
FFFFFFF800FFFFFFF8
FFFFFFF800FFFFFFF8
FFFFFFF800FFFFFFF8
FFFFFFF800FFFFFFF8
FFFFFFF800FFFFFFF8
FFFFFFF800FFFFFFF8
FFFFFFF800FFFFFFF8
FFFFFFF800FFFFFFF8
FFFFFFF800FFFFFFF8
FFFFFFF800FFFFFFF8
FFFFFFF800FFFFFFF8
FFFFFFF800FFFFFFF8
FFFFFFF800FFFFFFF8
FFFFFFF800FFFFFFF8
FFFFFFF801FFFFFFF8
FFFFFFF801FFFFFFF0
FFFFFFF801FFFFFFF0
FFFFFFF803FFFFFFF0
FFFFFFF807FFFFFFF0
FFFFFFF81FFFFFFFF0
FFFFFFFFFFFFFFFFF0
FFFFFFFFFFFFFFFFF0
FFFFFFFFFFFFFFFFF0
FFFFFFFFFFFFFFFFE0
FFFFFFFFFFFFFFFFE0
FFFFFFFFFFFFFFFFE0
FFFFFFFFFFFFFFFFE0
FFFFFFFFFFFFFFFFC0
FFFFFFFFFFFFFFFFC0
FFFFFFFFFFFFFFFFC0
FFFFFFFFFFFFFFFF80
FFFFFFFFFFFFFFFF80
FFFFFFFFFFFFFFFF00
FFFFFFFFFFFFFFFE00
FFFFFFFFFFFFFFFC00
FFFFFFFFFFFFFFF800
FFFFFFFFFFFFFFF000
FFFFFFFFFFFFFFC000
FFFFFFFFFFFFFE0000
FFFFFFFFFFFFE00000
FFFFFFFFFFF8000000
ENDCHAR
STARTCHAR 0043
ENCODING 67
SWIDTH 378 0
DWIDTH 84 0
BBX 69 182 8 -1
BITMAP
000001FFFFFC000000
0000FFFFFFFFF80000
000FFFFFFFFFFF8000
007FFFFFFFFFFFE000
00FFFFFFFFFFFFF800
03FFFFFFFFFFFFFE00
07FFFFFFFFFFFFFF00
07FFFFFFFFFFFFFF00
0FFFFFFFFFFFFFFF80
1FFFFFFFFFFFFFFF80
1FFFFFFFFFFFFFFFC0
1FFFFFFFFFFFFFFFC0
3FFFFFFFFFFFFFFFC0
3FFFFFFFFFFFFFFFE0
3FFFFFFFFFFFFFFFE0
7FFFFFFFFFFFFFFFE0
7FFFFFFFFFFFFFFFE0
7FFFFFFFFFFFFFFFF0
7FFFFFFFFFFFFFFFF0
7FFFFFFFFFFFFFFFF0
7FFFFFFFFFFFFFFFF0
7FFFFFFF0FFFFFFFF0
FFFFFFFE03FFFFFFF0
FFFFFFFC01FFFFFFF0
FFFFFFFC01FFFFFFF8
FFFFFFF801FFFFFFF8
FFFFFFF800FFFFFFF8
FFFFFFF800FFFFFFF8
FFFFFFF800FFFFFFF8
FFFFFFF800FFFFFFF8
FFFFFFF800FFFFFFF8
FFFFFFF800FFFFFFF8
FFFFFFF800FFFFFFF8
FFFFFFF800FFFFFFF8
FFFFFFF800FFFFFFF8
FFFFFFF800FFFFFFF8
FFFFFFF800FFFFFFF8
FFFFFFF800FFFFFFF8
FFFFFFF800FFFFFFF8
FFFFFFF800FFFFFFF8
FFFFFFF800FFFFFFF8
FFFFFFF800FFFFFFF8
FFFFFFF800FFFFFFF8
FFFFFFF800FFFFFFF8
FFFFFFF800FFFFFFF8
FFFFFFF800FFFFFFF8
FFFFFFF800FFFFFFF8
FFFFFFF800FFFFFFF8
FFFFFFF800FFFFFFF8
FFFFFFF800FFFFFFF8
FFFFFFF800FFFFFFF8
FFFFFFF800FFFFFFF8
FFFFFFF800FFFFFFF8
FFFFFFF800FFFFFFF8
FFFFFFF800FFFFFFF8
FFFFFFF800FFFFFFF8
FFFFFFF800FFFFFFF8
FFFFFFF800FFFFFFF8
FFFFFFF800FFFFFFF8
FFFFFFF800FFFFFFF8
FFFFFFF800FFFFFFF8
FFFFFFF80000000000
FFFFFFF80000000000
FFFFFFF80000000000
FFFFFFF80000000000
FFFFFFF80000000000
FFFFFFF80000000000
FFFFFFF80000000000
FFFFFFF80000000000
FFFFFFF80000000000
FFFFFFF80000000000
FFFFFFF80000000000
FFFFFFF80000000000
FFFFFFF80000000000
FFFFFFF80000000000
FFFFFFF80000000000
FFFFFFF80000000000
FFFFFFF80000000000
FFFFFFF80000000000
FFFFFFF80000000000
FFFFFFF80000000000
FFFFFFF80000000000
FFFFFFF80000000000
FFFFFFF80000000000
FFFFFFF80000000000
FFFFFFF80000000000
FFFFFFF80000000000
FFFFFFF80000000000
FFFFFFF80000000000
FFFFFFF80000000000
FFFFFFF80000000000
FFFFFFF80000000000
FFFFFFF80000000000
FFFFFFF80000000000
FFFFFFF80000000000
FFFFFFF80000000000
FFFFFFF80000000000
FFFFFFF80000000000
FFFFFFF80000000000
FFFFFFF80000000000
FFFFFFF80000000000
FFFFFFF80000000000
FFFFFFF80000000000
FFFFFFF80000000000
FFFFFFF80000000000
FFFFFFF80000000000
FFFFFFF800FFFFFFF8
FFFFFFF800FFFFFFF8
FFFFFFF800FFFFFFF8
FFFFFFF800FFFFFFF8
FFFFFFF800FFFFFFF8
FFFFFFF800FFFFFFF8
FFFFFFF800FFFFFFF8
FFFFFFF800FFFFFFF8
FFFFFFF800FFFFFFF8
FFFFFFF800FFFFFFF8
FFFFFFF800FFFFFFF8
FFFFFFF800FFFFFFF8
FFFFFFF800FFFFFFF8
FFFFFFF800FFFFFFF8
FFFFFFF800FFFFFFF8
FFFFFFF800FFFFFFF8
FFFFFFF800FFFFFFF8
FFFFFFF800FFFFFFF8
FFFFFFF800FFFFFFF8
FFFFFFF800FFFFFFF8
FFFFFFF800FFFFFFF8
FFFFFFF800FFFFFFF8
FFFFFFF800FFFFFFF8
FFFFFFF800FFFFFFF8
FFFFFFF800FFFFFFF8
FFFFFFF800FFFFFFF8
FFFFFFF800FFFFFFF8
FFFFFFF800FFFFFFF8
FFFFFFF800FFFFFFF8
FFFFFFF800FFFFFFF8
FFFFFFF800FFFFFFF8
FFFFFFF800FFFFFFF8
FFFFFFF800FFFFFFF8
FFFFFFF800FFFFFFF8
FFFFFFF800FFFFFFF8
FFFFFFF800FFFFFFF8
FFFFFFF800FFFFFFF8
FFFFFFF800FFFFFFF8
FFFFFFF800FFFFFFF8
FFFFFFF800FFFFFFF8
FFFFFFF800FFFFFFF8
FFFFFFF800FFFFFFF8
FFFFFFF800FFFFFFF8
FFFFFFF800FFFFFFF8
FFFFFFF800FFFFFFF8
FFFFFFF800FFFFFFF8
FFFFFFF800FFFFFFF8
FFFFFFF800FFFFFFF8
FFFFFFF800FFFFFFF8
FFFFFFF800FFFFFFF8
FFFFFFFC01FFFFFFF8
FFFFFFFC01FFFFFFF8
FFFFFFFE03FFFFFFF0
7FFFFFFF87FFFFFFF0
7FFFFFFFFFFFFFFFF0
7FFFFFFFFFFFFFFFF0
7FFFFFFFFFFFFFFFF0
7FFFFFFFFFFFFFFFF0
7FFFFFFFFFFFFFFFF0
7FFFFFFFFFFFFFFFE0
3FFFFFFFFFFFFFFFE0
3FFFFFFFFFFFFFFFE0
3FFFFFFFFFFFFFFFE0
1FFFFFFFFFFFFFFFC0
1FFFFFFFFFFFFFFFC0
1FFFFFFFFFFFFFFFC0
0FFFFFFFFFFFFFFF80
0FFFFFFFFFFFFFFF80
07FFFFFFFFFFFFFF00
03FFFFFFFFFFFFFE00
01FFFFFFFFFFFFFE00
00FFFFFFFFFFFFF800
003FFFFFFFFFFFE000
0007FFFFFFFFFF8000
00007FFFFFFFF80000
000000FFFFFC000000
ENDCHAR
STARTCHAR 0044
ENCODING 68
SWIDTH 387 0
DWIDTH 86 0
BBX 69 182 9 -1
BITMAP
FFFFFFFFFFFE000000
FFFFFFFFFFFFFC0000
FFFFFFFFFFFFFF8000
FFFFFFFFFFFFFFF000
FFFFFFFFFFFFFFF800
FFFFFFFFFFFFFFFE00
FFFFFFFFFFFFFFFF00
FFFFFFFFFFFFFFFF00
FFFFFFFFFFFFFFFF80
FFFFFFFFFFFFFFFF80
FFFFFFFFFFFFFFFFC0
FFFFFFFFFFFFFFFFC0
FFFFFFFFFFFFFFFFE0
FFFFFFFFFFFFFFFFE0
FFFFFFFFFFFFFFFFE0
FFFFFFFFFFFFFFFFE0
FFFFFFFFFFFFFFFFE0
FFFFFFFFFFFFFFFFF0
FFFFFFFFFFFFFFFFF0
FFFFFFFFFFFFFFFFF0
FFFFFFFFFFFFFFFFF0
FFFFFFF80FFFFFFFF0
FFFFFFF803FFFFFFF0
FFFFFFF801FFFFFFF0
FFFFFFF801FFFFFFF0
FFFFFFF801FFFFFFF8
FFFFFFF801FFFFFFF8
FFFFFFF800FFFFFFF8
FFFFFFF800FFFFFFF8
FFFFFFF800FFFFFFF8
FFFFFFF800FFFFFFF8
FFFFFFF800FFFFFFF8
FFFFFFF800FFFFFFF8
FFFFFFF800FFFFFFF8
FFFFFFF800FFFFFFF8
FFFFFFF800FFFFFFF8
FFFFFFF800FFFFFFF8
FFFFFFF800FFFFFFF8
FFFFFFF800FFFFFFF8
FFFFFFF800FFFFFFF8
FFFFFFF800FFFFFFF8
FFFFFFF800FFFFFFF8
FFFFFFF800FFFFFFF8
FFFFFFF800FFFFFFF8
FFFFFFF800FFFFFFF8
FFFFFFF800FFFFFFF8
FFFFFFF800FFFFFFF8
FFFFFFF800FFFFFFF8
FFFFFFF800FFFFFFF8
FFFFFFF800FFFFFFF8
FFFFFFF800FFFFFFF8
FFFFFFF800FFFFFFF8
FFFFFFF800FFFFFFF8
FFFFFFF800FFFFFFF8
FFFFFFF800FFFFFFF8
FFFFFFF800FFFFFFF8
FFFFFFF800FFFFFFF8
FFFFFFF800FFFFFFF8
FFFFFFF800FFFFFFF8
FFFFFFF800FFFFFFF8
FFFFFFF800FFFFFFF8
FFFFFFF800FFFFFFF8
FFFFFFF800FFFFFFF8
FFFFFFF800FFFFFFF8
FFFFFFF800FFFFFFF8
FFFFFFF800FFFFFFF8
FFFFFFF800FFFFFFF8
FFFFFFF800FFFFFFF8
FFFFFFF800FFFFFFF8
FFFFFFF800FFFFFFF8
FFFFFFF800FFFFFFF8
FFFFFFF800FFFFFFF8
FFFFFFF800FFFFFFF8
FFFFFFF800FFFFFFF8
FFFFFFF800FFFFFFF8
FFFFFFF800FFFFFFF8
FFFFFFF800FFFFFFF8
FFFFFFF800FFFFFFF8
FFFFFFF800FFFFFFF8
FFFFFFF800FFFFFFF8
FFFFFFF800FFFFFFF8
FFFFFFF800FFFFFFF8
FFFFFFF800FFFFFFF8
FFFFFFF800FFFFFFF8
FFFFFFF800FFFFFFF8
FFFFFFF800FFFFFFF8
FFFFFFF800FFFFFFF8
FFFFFFF800FFFFFFF8
FFFFFFF800FFFFFFF8
FFFFFFF800FFFFFFF8
FFFFFFF800FFFFFFF8
FFFFFFF800FFFFFFF8
FFFFFFF800FFFFFFF8
FFFFFFF800FFFFFFF8
FFFFFFF800FFFFFFF8
FFFFFFF800FFFFFFF8
FFFFFFF800FFFFFFF8
FFFFFFF800FFFFFFF8
FFFFFFF800FFFFFFF8
FFFFFFF800FFFFFFF8
FFFFFFF800FFFFFFF8
FFFFFFF800FFFFFFF8
FFFFFFF800FFFFFFF8
FFFFFFF800FFFFFFF8
FFFFFFF800FFFFFFF8
FFFFFFF800FFFFFFF8
FFFFFFF800FFFFFFF8
FFFFFFF800FFFFFFF8
FFFFFFF800FFFFFFF8
FFFFFFF800FFFFFFF8
FFFFFFF800FFFFFFF8
FFFFFFF800FFFFFFF8
FFFFFFF800FFFFFFF8
FFFFFFF800FFFFFFF8
FFFFFFF800FFFFFFF8
FFFFFFF800FFFFFFF8
FFFFFFF800FFFFFFF8
FFFFFFF800FFFFFFF8
FFFFFFF800FFFFFFF8
FFFFFFF800FFFFFFF8
FFFFFFF800FFFFFFF8
FFFFFFF800FFFFFFF8
FFFFFFF800FFFFFFF8
FFFFFFF800FFFFFFF8
FFFFFFF800FFFFFFF8
FFFFFFF800FFFFFFF8
FFFFFFF800FFFFFFF8
FFFFFFF800FFFFFFF8
FFFFFFF800FFFFFFF8
FFFFFFF800FFFFFFF8
FFFFFFF800FFFFFFF8
FFFFFFF800FFFFFFF8
FFFFFFF800FFFFFFF8
FFFFFFF800FFFFFFF8
FFFFFFF800FFFFFFF8
FFFFFFF800FFFFFFF8
FFFFFFF800FFFFFFF8
FFFFFFF800FFFFFFF8
FFFFFFF800FFFFFFF8
FFFFFFF800FFFFFFF8
FFFFFFF800FFFFFFF8
FFFFFFF800FFFFFFF8
FFFFFFF800FFFFFFF8
FFFFFFF800FFFFFFF8
FFFFFFF800FFFFFFF8
FFFFFFF800FFFFFFF8
FFFFFFF800FFFFFFF8
FFFFFFF800FFFFFFF8
FFFFFFF800FFFFFFF8
FFFFFFF800FFFFFFF8
FFFFFFF800FFFFFFF8
FFFFFFF800FFFFFFF8
FFFFFFF800FFFFFFF8
FFFFFFF800FFFFFFF8
FFFFFFF800FFFFFFF8
FFFFFFF800FFFFFFF8
FFFFFFF801FFFFFFF8
FFFFFFF801FFFFFFF0
FFFFFFF801FFFFFFF0
FFFFFFF803FFFFFFF0
FFFFFFF80FFFFFFFF0
FFFFFFFFFFFFFFFFF0
FFFFFFFFFFFFFFFFF0
FFFFFFFFFFFFFFFFF0
FFFFFFFFFFFFFFFFF0
FFFFFFFFFFFFFFFFE0
FFFFFFFFFFFFFFFFE0
FFFFFFFFFFFFFFFFE0
FFFFFFFFFFFFFFFFE0
FFFFFFFFFFFFFFFFC0
FFFFFFFFFFFFFFFFC0
FFFFFFFFFFFFFFFFC0
FFFFFFFFFFFFFFFF80
FFFFFFFFFFFFFFFF80
FFFFFFFFFFFFFFFF00
FFFFFFFFFFFFFFFF00
FFFFFFFFFFFFFFFE00
FFFFFFFFFFFFFFF800
FFFFFFFFFFFFFFF000
FFFFFFFFFFFFFF8000
FFFFFFFFFFFFFC0000
FFFFFFFFFFFE000000
ENDCHAR
STARTCHAR 0045
ENCODING 69
SWIDTH 288 0
DWIDTH 64 0
BBX 47 182 9 -1
BITMAP
FFFFFFFFFFFE
FFFFFFFFFFFE
FFFFFFFFFFFE
FFFFFFFFFFFE
FFFFFFFFFFFE
FFFFFFFFFFFE
FFFFFFFFFFFE
FFFFFFFFFFFE
FFFFFFFFFFFE
FFFFFFFFFFFE
FFFFFFFFFFFE
FFFFFFFFFFFE
FFFFFFFFFFFE
FFFFFFFFFFFE
FFFFFFFFFFFE
FFFFFFFFFFFE
FFFFFFFFFFFE
FFFFFFFFFFFE
FFFFFFFFFFFE
FFFFFFFFFFFE
FFFFFFFFFFFE
FFFFFFF80000
FFFFFFF80000
FFFFFFF80000
FFFFFFF80000
FFFFFFF80000
FFFFFFF80000
FFFFFFF80000
FFFFFFF80000
FFFFFFF80000
FFFFFFF80000
FFFFFFF80000
FFFFFFF80000
FFFFFFF80000
FFFFFFF80000
FFFFFFF80000
FFFFFFF80000
FFFFFFF80000
FFFFFFF80000
FFFFFFF80000
FFFFFFF80000
FFFFFFF80000
FFFFFFF80000
FFFFFFF80000
FFFFFFF80000
FFFFFFF80000
FFFFFFF80000
FFFFFFF80000
FFFFFFF80000
FFFFFFF80000
FFFFFFF80000
FFFFFFF80000
FFFFFFF80000
FFFFFFF80000
FFFFFFF80000
FFFFFFF80000
FFFFFFF80000
FFFFFFF80000
FFFFFFF80000
FFFFFFF80000
FFFFFFF80000
FFFFFFF80000
FFFFFFF80000
FFFFFFF80000
FFFFFFF80000
FFFFFFF80000
FFFFFFF80000
FFFFFFF80000
FFFFFFF80000
FFFFFFF80000
FFFFFFF80000
FFFFFFFFFFFE
FFFFFFFFFFFE
FFFFFFFFFFFE
FFFFFFFFFFFE
FFFFFFFFFFFE
FFFFFFFFFFFE
FFFFFFFFFFFE
FFFFFFFFFFFE
FFFFFFFFFFFE
FFFFFFFFFFFE
FFFFFFFFFFFE
FFFFFFFFFFFE
FFFFFFFFFFFE
FFFFFFFFFFFE
FFFFFFFFFFFE
FFFFFFFFFFFE
FFFFFFFFFFFE
FFFFFFFFFFFE
FFFFFFFFFFFE
FFFFFFFFFFFE
FFFFFFFFFFFE
FFFFFFF80000
FFFFFFF80000
FFFFFFF80000
FFFFFFF80000
FFFFFFF80000
FFFFFFF80000
FFFFFFF80000
FFFFFFF80000
FFFFFFF80000
FFFFFFF80000
FFFFFFF80000
FFFFFFF80000
FFFFFFF80000
FFFFFFF80000
FFFFFFF80000
FFFFFFF80000
FFFFFFF80000
FFFFFFF80000
FFFFFFF80000
FFFFFFF80000
FFFFFFF80000
FFFFFFF80000
FFFFFFF80000
FFFFFFF80000
FFFFFFF80000
FFFFFFF80000
FFFFFFF80000
FFFFFFF80000
FFFFFFF80000
FFFFFFF80000
FFFFFFF80000
FFFFFFF80000
FFFFFFF80000
FFFFFFF80000
FFFFFFF80000
FFFFFFF80000
FFFFFFF80000
FFFFFFF80000
FFFFFFF80000
FFFFFFF80000
FFFFFFF80000
FFFFFFF80000
FFFFFFF80000
FFFFFFF80000
FFFFFFF80000
FFFFFFF80000
FFFFFFF80000
FFFFFFF80000
FFFFFFF80000
FFFFFFF80000
FFFFFFF80000
FFFFFFF80000
FFFFFFF80000
FFFFFFF80000
FFFFFFF80000
FFFFFFF80000
FFFFFFF80000
FFFFFFF80000
FFFFFFF80000
FFFFFFF80000
FFFFFFF80000
FFFFFFF80000
FFFFFFF80000
FFFFFFF80000
FFFFFFF80000
FFFFFFF80000
FFFFFFF80000
FFFFFFF80000
FFFFFFF80000
FFFFFFFFFFFE
FFFFFFFFFFFE
FFFFFFFFFFFE
FFFFFFFFFFFE
FFFFFFFFFFFE
FFFFFFFFFFFE
FFFFFFFFFFFE
FFFFFFFFFFFE
FFFFFFFFFFFE
FFFFFFFFFFFE
FFFFFFFFFFFE
FFFFFFFFFFFE
FFFFFFFFFFFE
FFFFFFFFFFFE
FFFFFFFFFFFE
FFFFFFFFFFFE
FFFFFFFFFFFE
FFFFFFFFFFFE
FFFFFFFFFFFE
FFFFFFFFFFFE
FFFFFFFFFFFE
ENDCHAR
STARTCHAR 0046
ENCODING 70
SWIDTH 283 0
DWIDTH 63 0
BBX 47 182 9 -1
BITMAP
FFFFFFFFFFFE
FFFFFFFFFFFE
FFFFFFFFFFFE
FFFFFFFFFFFE
FFFFFFFFFFFE
FFFFFFFFFFFE
FFFFFFFFFFFE
FFFFFFFFFFFE
FFFFFFFFFFFE
FFFFFFFFFFFE
FFFFFFFFFFFE
FFFFFFFFFFFE
FFFFFFFFFFFE
FFFFFFFFFFFE
FFFFFFFFFFFE
FFFFFFFFFFFE
FFFFFFFFFFFE
FFFFFFFFFFFE
FFFFFFFFFFFE
FFFFFFFFFFFE
FFFFFFFFFFFE
FFFFFFF80000
FFFFFFF80000
FFFFFFF80000
FFFFFFF80000
FFFFFFF80000
FFFFFFF80000
FFFFFFF80000
FFFFFFF80000
FFFFFFF80000
FFFFFFF80000
FFFFFFF80000
FFFFFFF80000
FFFFFFF80000
FFFFFFF80000
FFFFFFF80000
FFFFFFF80000
FFFFFFF80000
FFFFFFF80000
FFFFFFF80000
FFFFFFF80000
FFFFFFF80000
FFFFFFF80000
FFFFFFF80000
FFFFFFF80000
FFFFFFF80000
FFFFFFF80000
FFFFFFF80000
FFFFFFF80000
FFFFFFF80000
FFFFFFF80000
FFFFFFF80000
FFFFFFF80000
FFFFFFF80000
FFFFFFF80000
FFFFFFF80000
FFFFFFF80000
FFFFFFF80000
FFFFFFF80000
FFFFFFF80000
FFFFFFF80000
FFFFFFF80000
FFFFFFF80000
FFFFFFF80000
FFFFFFF80000
FFFFFFF80000
FFFFFFF80000
FFFFFFF80000
FFFFFFF80000
FFFFFFF80000
FFFFFFF80000
FFFFFFFFFFFE
FFFFFFFFFFFE
FFFFFFFFFFFE
FFFFFFFFFFFE
FFFFFFFFFFFE
FFFFFFFFFFFE
FFFFFFFFFFFE
FFFFFFFFFFFE
FFFFFFFFFFFE
FFFFFFFFFFFE
FFFFFFFFFFFE
FFFFFFFFFFFE
FFFFFFFFFFFE
FFFFFFFFFFFE
FFFFFFFFFFFE
FFFFFFFFFFFE
FFFFFFFFFFFE
FFFFFFFFFFFE
FFFFFFFFFFFE
FFFFFFFFFFFE
FFFFFFFFFFFE
FFFFFFF80000
FFFFFFF80000
FFFFFFF80000
FFFFFFF80000
FFFFFFF80000
FFFFFFF80000
FFFFFFF80000
FFFFFFF80000
FFFFFFF80000
FFFFFFF80000
FFFFFFF80000
FFFFFFF80000
FFFFFFF80000
FFFFFFF80000
FFFFFFF80000
FFFFFFF80000
FFFFFFF80000
FFFFFFF80000
FFFFFFF80000
FFFFFFF80000
FFFFFFF80000
FFFFFFF80000
FFFFFFF80000
FFFFFFF80000
FFFFFFF80000
FFFFFFF80000
FFFFFFF80000
FFFFFFF80000
FFFFFFF80000
FFFFFFF80000
FFFFFFF80000
FFFFFFF80000
FFFFFFF80000
FFFFFFF80000
FFFFFFF80000
FFFFFFF80000
FFFFFFF80000
FFFFFFF80000
FFFFFFF80000
FFFFFFF80000
FFFFFFF80000
FFFFFFF80000
FFFFFFF80000
FFFFFFF80000
FFFFFFF80000
FFFFFFF80000
FFFFFFF80000
FFFFFFF80000
FFFFFFF80000
FFFFFFF80000
FFFFFFF80000
FFFFFFF80000
FFFFFFF80000
FFFFFFF80000
FFFFFFF80000
FFFFFFF80000
FFFFFFF80000
FFFFFFF80000
FFFFFFF80000
FFFFFFF80000
FFFFFFF80000
FFFFFFF80000
FFFFFFF80000
FFFFFFF80000
FFFFFFF80000
FFFFFFF80000
FFFFFFF80000
FFFFFFF80000
FFFFFFF80000
FFFFFFF80000
FFFFFFF80000
FFFFFFF80000
FFFFFFF80000
FFFFFFF80000
FFFFFFF80000
FFFFFFF80000
FFFFFFF80000
FFFFFFF80000
FFFFFFF80000
FFFFFFF80000
FFFFFFF80000
FFFFFFF80000
FFFFFFF80000
FFFFFFF80000
FFFFFFF80000
FFFFFFF80000
FFFFFFF80000
FFFFFFF80000
FFFFFFF80000
FFFFFFF80000
ENDCHAR
STARTCHAR 0047
ENCODING 71
SWIDTH 387 0
DWIDTH 86 0
BBX 70 182 8 -1
BITMAP
000000FFFFFE000000
00007FFFFFFFFC0000
0007FFFFFFFFFF8000
003FFFFFFFFFFFF000
00FFFFFFFFFFFFFC00
01FFFFFFFFFFFFFE00
03FFFFFFFFFFFFFF00
07FFFFFFFFFFFFFF80
0FFFFFFFFFFFFFFFC0
0FFFFFFFFFFFFFFFC0
1FFFFFFFFFFFFFFFE0
1FFFFFFFFFFFFFFFE0
1FFFFFFFFFFFFFFFE0
3FFFFFFFFFFFFFFFF0
3FFFFFFFFFFFFFFFF0
3FFFFFFFFFFFFFFFF0
7FFFFFFFFFFFFFFFF0
7FFFFFFFFFFFFFFFF8
7FFFFFFFFFFFFFFFF8
7FFFFFFFFFFFFFFFF8
7FFFFFFFFFFFFFFFF8
7FFFFFFF03FFFFFFF8
FFFFFFFE01FFFFFFF8
FFFFFFFC00FFFFFFF8
FFFFFFFC00FFFFFFF8
FFFFFFF800FFFFFFFC
FFFFFFF8007FFFFFFC
FFFFFFF8007FFFFFFC
FFFFFFF8007FFFFFFC
FFFFFFF8007FFFFFFC
FFFFFFF8007FFFFFFC
FFFFFFF8007FFFFFFC
FFFFFFF8007FFFFFFC
FFFFFFF8007FFFFFFC
FFFFFFF8007FFFFFFC
FFFFFFF8007FFFFFFC
FFFFFFF8007FFFFFFC
FFFFFFF8007FFFFFFC
FFFFFFF8007FFFFFFC
FFFFFFF8007FFFFFFC
FFFFFFF8007FFFFFFC
FFFFFFF8007FFFFFFC
FFFFFFF8007FFFFFFC
FFFFFFF8007FFFFFFC
FFFFFFF8007FFFFFFC
FFFFFFF8007FFFFFFC
FFFFFFF8007FFFFFFC
FFFFFFF8007FFFFFFC
FFFFFFF8007FFFFFFC
FFFFFFF8007FFFFFFC
FFFFFFF8007FFFFFFC
FFFFFFF8007FFFFFFC
FFFFFFF8007FFFFFFC
FFFFFFF8007FFFFFFC
FFFFFFF8007FFFFFFC
FFFFFFF8007FFFFFFC
FFFFFFF8007FFFFFFC
FFFFFFF8007FFFFFFC
FFFFFFF8007FFFFFFC
FFFFFFF8007FFFFFFC
FFFFFFF8007FFFFFFC
FFFFFFF80000000000
FFFFFFF80000000000
FFFFFFF80000000000
FFFFFFF80000000000
FFFFFFF80000000000
FFFFFFF80000000000
FFFFFFF80000000000
FFFFFFF80000000000
FFFFFFF80000000000
FFFFFFF80000000000
FFFFFFF80000000000
FFFFFFF80000000000
FFFFFFF80000000000
FFFFFFF80000000000
FFFFFFF80000000000
FFFFFFF80000000000
FFFFFFF80000000000
FFFFFFF80000000000
FFFFFFF80000000000
FFFFFFF80000000000
FFFFFFF80000000000
FFFFFFF80000000000
FFFFFFF80000000000
FFFFFFF80000000000
FFFFFFF80000000000
FFFFFFF80000000000
FFFFFFF80000000000
FFFFFFF80000000000
FFFFFFF807FFFFFFFC
FFFFFFF807FFFFFFFC
FFFFFFF807FFFFFFFC
FFFFFFF807FFFFFFFC
FFFFFFF807FFFFFFFC
FFFFFFF807FFFFFFFC
FFFFFFF807FFFFFFFC
FFFFFFF807FFFFFFFC
FFFFFFF807FFFFFFFC
FFFFFFF807FFFFFFFC
FFFFFFF807FFFFFFFC
FFFFFFF807FFFFFFFC
FFFFFFF807FFFFFFFC
FFFFFFF807FFFFFFFC
FFFFFFF807FFFFFFFC
FFFFFFF807FFFFFFFC
FFFFFFF807FFFFFFFC
FFFFFFF807FFFFFFFC
FFFFFFF807FFFFFFFC
FFFFFFF807FFFFFFFC
FFFFFFF807FFFFFFFC
FFFFFFF8007FFFFFFC
FFFFFFF8007FFFFFFC
FFFFFFF8007FFFFFFC
FFFFFFF8007FFFFFFC
FFFFFFF8007FFFFFFC
FFFFFFF8007FFFFFFC
FFFFFFF8007FFFFFFC
FFFFFFF8007FFFFFFC
FFFFFFF8007FFFFFFC
FFFFFFF8007FFFFFFC
FFFFFFF8007FFFFFFC
FFFFFFF8007FFFFFFC
FFFFFFF8007FFFFFFC
FFFFFFF8007FFFFFFC
FFFFFFF8007FFFFFFC
FFFFFFF8007FFFFFFC
FFFFFFF8007FFFFFFC
FFFFFFF8007FFFFFFC
FFFFFFF8007FFFFFFC
FFFFFFF8007FFFFFFC
FFFFFFF8007FFFFFFC
FFFFFFF8007FFFFFFC
FFFFFFF8007FFFFFFC
FFFFFFF8007FFFFFFC
FFFFFFF8007FFFFFFC
FFFFFFF8007FFFFFFC
FFFFFFF8007FFFFFFC
FFFFFFF8007FFFFFFC
FFFFFFF8007FFFFFFC
FFFFFFF8007FFFFFFC
FFFFFFF8007FFFFFFC
FFFFFFF8007FFFFFFC
FFFFFFF8007FFFFFFC
FFFFFFF8007FFFFFFC
FFFFFFF8007FFFFFFC
FFFFFFF8007FFFFFFC
FFFFFFF8007FFFFFFC
FFFFFFF8007FFFFFFC
FFFFFFF8007FFFFFFC
FFFFFFF8007FFFFFFC
FFFFFFF8007FFFFFFC
FFFFFFF8007FFFFFFC
FFFFFFF8007FFFFFFC
FFFFFFF8007FFFFFFC
FFFFFFF8007FFFFFFC
FFFFFFF800FFFFFFFC
FFFFFFFC00FFFFFFFC
FFFFFFFC00FFFFFFFC
FFFFFFFE01FFFFFFFC
FFFFFFFF03FFFFFFFC
FFFFFFFFFFFFFFFFFC
7FFFFFFFFFFFFFFFFC
7FFFFFFFFFFFFFFFFC
7FFFFFFFFFFFFFFFFC
7FFFFFFFFFFFFFFFFC
7FFFFFFFFFFFFFFFFC
3FFFFFFFFFFFFFFFFC
3FFFFFFFFFFFFFFFFC
3FFFFFFFFFFFFFFFFC
1FFFFFFFFFFFFFFFFC
1FFFFFFFFFFFF3FFFC
0FFFFFFFFFFFE3FFFC
0FFFFFFFFFFFC1FFFC
07FFFFFFFFFFC1FFFC
03FFFFFFFFFF01FFFC
01FFFFFFFFFE00FFFC
00FFFFFFFFFC00FFFC
007FFFFFFFF8007FFC
001FFFFFFFE0007FFC
0007FFFFFF80003FFC
0001FFFFFC00003FFC
00000FFF8000003FFC
ENDCHAR
STARTCHAR 0048
ENCODING 72
SWIDTH 391 0
DWIDTH 87 0
BBX 69 182 9 -1
BITMAP
FFFFFFF800FFFFFFF8
FFFFFFF800FFFFFFF8
FFFFFFF800FFFFFFF8
FFFFFFF800FFFFFFF8
FFFFFFF800FFFFFFF8
FFFFFFF800FFFFFFF8
FFFFFFF800FFFFFFF8
FFFFFFF800FFFFFFF8
FFFFFFF800FFFFFFF8
FFFFFFF800FFFFFFF8
FFFFFFF800FFFFFFF8
FFFFFFF800FFFFFFF8
FFFFFFF800FFFFFFF8
FFFFFFF800FFFFFFF8
FFFFFFF800FFFFFFF8
FFFFFFF800FFFFFFF8
FFFFFFF800FFFFFFF8
FFFFFFF800FFFFFFF8
FFFFFFF800FFFFFFF8
FFFFFFF800FFFFFFF8
FFFFFFF800FFFFFFF8
FFFFFFF800FFFFFFF8
FFFFFFF800FFFFFFF8
FFFFFFF800FFFFFFF8
FFFFFFF800FFFFFFF8
FFFFFFF800FFFFFFF8
FFFFFFF800FFFFFFF8
FFFFFFF800FFFFFFF8
FFFFFFF800FFFFFFF8
FFFFFFF800FFFFFFF8
FFFFFFF800FFFFFFF8
FFFFFFF800FFFFFFF8
FFFFFFF800FFFFFFF8
FFFFFFF800FFFFFFF8
FFFFFFF800FFFFFFF8
FFFFFFF800FFFFFFF8
FFFFFFF800FFFFFFF8
FFFFFFF800FFFFFFF8
FFFFFFF800FFFFFFF8
FFFFFFF800FFFFFFF8
FFFFFFF800FFFFFFF8
FFFFFFF800FFFFFFF8
FFFFFFF800FFFFFFF8
FFFFFFF800FFFFFFF8
FFFFFFF800FFFFFFF8
FFFFFFF800FFFFFFF8
FFFFFFF800FFFFFFF8
FFFFFFF800FFFFFFF8
FFFFFFF800FFFFFFF8
FFFFFFF800FFFFFFF8
FFFFFFF800FFFFFFF8
FFFFFFF800FFFFFFF8
FFFFFFF800FFFFFFF8
FFFFFFF800FFFFFFF8
FFFFFFF800FFFFFFF8
FFFFFFF800FFFFFFF8
FFFFFFF800FFFFFFF8
FFFFFFF800FFFFFFF8
FFFFFFF800FFFFFFF8
FFFFFFF800FFFFFFF8
FFFFFFF800FFFFFFF8
FFFFFFF800FFFFFFF8
FFFFFFF800FFFFFFF8
FFFFFFF800FFFFFFF8
FFFFFFF800FFFFFFF8
FFFFFFF800FFFFFFF8
FFFFFFF800FFFFFFF8
FFFFFFF800FFFFFFF8
FFFFFFF800FFFFFFF8
FFFFFFF800FFFFFFF8
FFFFFFFFFFFFFFFFF8
FFFFFFFFFFFFFFFFF8
FFFFFFFFFFFFFFFFF8
FFFFFFFFFFFFFFFFF8
FFFFFFFFFFFFFFFFF8
FFFFFFFFFFFFFFFFF8
FFFFFFFFFFFFFFFFF8
FFFFFFFFFFFFFFFFF8
FFFFFFFFFFFFFFFFF8
FFFFFFFFFFFFFFFFF8
FFFFFFFFFFFFFFFFF8
FFFFFFFFFFFFFFFFF8
FFFFFFFFFFFFFFFFF8
FFFFFFFFFFFFFFFFF8
FFFFFFFFFFFFFFFFF8
FFFFFFFFFFFFFFFFF8
FFFFFFFFFFFFFFFFF8
FFFFFFFFFFFFFFFFF8
FFFFFFFFFFFFFFFFF8
FFFFFFFFFFFFFFFFF8
FFFFFFFFFFFFFFFFF8
FFFFFFF800FFFFFFF8
FFFFFFF800FFFFFFF8
FFFFFFF800FFFFFFF8
FFFFFFF800FFFFFFF8
FFFFFFF800FFFFFFF8
FFFFFFF800FFFFFFF8
FFFFFFF800FFFFFFF8
FFFFFFF800FFFFFFF8
FFFFFFF800FFFFFFF8
FFFFFFF800FFFFFFF8
FFFFFFF800FFFFFFF8
FFFFFFF800FFFFFFF8
FFFFFFF800FFFFFFF8
FFFFFFF800FFFFFFF8
FFFFFFF800FFFFFFF8
FFFFFFF800FFFFFFF8
FFFFFFF800FFFFFFF8
FFFFFFF800FFFFFFF8
FFFFFFF800FFFFFFF8
FFFFFFF800FFFFFFF8
FFFFFFF800FFFFFFF8
FFFFFFF800FFFFFFF8
FFFFFFF800FFFFFFF8
FFFFFFF800FFFFFFF8
FFFFFFF800FFFFFFF8
FFFFFFF800FFFFFFF8
FFFFFFF800FFFFFFF8
FFFFFFF800FFFFFFF8
FFFFFFF800FFFFFFF8
FFFFFFF800FFFFFFF8
FFFFFFF800FFFFFFF8
FFFFFFF800FFFFFFF8
FFFFFFF800FFFFFFF8
FFFFFFF800FFFFFFF8
FFFFFFF800FFFFFFF8
FFFFFFF800FFFFFFF8
FFFFFFF800FFFFFFF8
FFFFFFF800FFFFFFF8
FFFFFFF800FFFFFFF8
FFFFFFF800FFFFFFF8
FFFFFFF800FFFFFFF8
FFFFFFF800FFFFFFF8
FFFFFFF800FFFFFFF8
FFFFFFF800FFFFFFF8
FFFFFFF800FFFFFFF8
FFFFFFF800FFFFFFF8
FFFFFFF800FFFFFFF8
FFFFFFF800FFFFFFF8
FFFFFFF800FFFFFFF8
FFFFFFF800FFFFFFF8
FFFFFFF800FFFFFFF8
FFFFFFF800FFFFFFF8
FFFFFFF800FFFFFFF8
FFFFFFF800FFFFFFF8
FFFFFFF800FFFFFFF8
FFFFFFF800FFFFFFF8
FFFFFFF800FFFFFFF8
FFFFFFF800FFFFFFF8
FFFFFFF800FFFFFFF8
FFFFFFF800FFFFFFF8
FFFFFFF800FFFFFFF8
FFFFFFF800FFFFFFF8
FFFFFFF800FFFFFFF8
FFFFFFF800FFFFFFF8
FFFFFFF800FFFFFFF8
FFFFFFF800FFFFFFF8
FFFFFFF800FFFFFFF8
FFFFFFF800FFFFFFF8
FFFFFFF800FFFFFFF8
FFFFFFF800FFFFFFF8
FFFFFFF800FFFFFFF8
FFFFFFF800FFFFFFF8
FFFFFFF800FFFFFFF8
FFFFFFF800FFFFFFF8
FFFFFFF800FFFFFFF8
FFFFFFF800FFFFFFF8
FFFFFFF800FFFFFFF8
FFFFFFF800FFFFFFF8
FFFFFFF800FFFFFFF8
FFFFFFF800FFFFFFF8
FFFFFFF800FFFFFFF8
FFFFFFF800FFFFFFF8
FFFFFFF800FFFFFFF8
FFFFFFF800FFFFFFF8
FFFFFFF800FFFFFFF8
FFFFFFF800FFFFFFF8
FFFFFFF800FFFFFFF8
FFFFFFF800FFFFFFF8
FFFFFFF800FFFFFFF8
FFFFFFF800FFFFFFF8
FFFFFFF800FFFFFFF8
ENDCHAR
STARTCHAR 0049
ENCODING 73
SWIDTH 207 0
DWIDTH 46 0
BBX 29 182 9 -1
BITMAP
FFFFFFF8
FFFFFFF8
FFFFFFF8
FFFFFFF8
FFFFFFF8
FFFFFFF8
FFFFFFF8
FFFFFFF8
FFFFFFF8
FFFFFFF8
FFFFFFF8
FFFFFFF8
FFFFFFF8
FFFFFFF8
FFFFFFF8
FFFFFFF8
FFFFFFF8
FFFFFFF8
FFFFFFF8
FFFFFFF8
FFFFFFF8
FFFFFFF8
FFFFFFF8
FFFFFFF8
FFFFFFF8
FFFFFFF8
FFFFFFF8
FFFFFFF8
FFFFFFF8
FFFFFFF8
FFFFFFF8
FFFFFFF8
FFFFFFF8
FFFFFFF8
FFFFFFF8
FFFFFFF8
FFFFFFF8
FFFFFFF8
FFFFFFF8
FFFFFFF8
FFFFFFF8
FFFFFFF8
FFFFFFF8
FFFFFFF8
FFFFFFF8
FFFFFFF8
FFFFFFF8
FFFFFFF8
FFFFFFF8
FFFFFFF8
FFFFFFF8
FFFFFFF8
FFFFFFF8
FFFFFFF8
FFFFFFF8
FFFFFFF8
FFFFFFF8
FFFFFFF8
FFFFFFF8
FFFFFFF8
FFFFFFF8
FFFFFFF8
FFFFFFF8
FFFFFFF8
FFFFFFF8
FFFFFFF8
FFFFFFF8
FFFFFFF8
FFFFFFF8
FFFFFFF8
FFFFFFF8
FFFFFFF8
FFFFFFF8
FFFFFFF8
FFFFFFF8
FFFFFFF8
FFFFFFF8
FFFFFFF8
FFFFFFF8
FFFFFFF8
FFFFFFF8
FFFFFFF8
FFFFFFF8
FFFFFFF8
FFFFFFF8
FFFFFFF8
FFFFFFF8
FFFFFFF8
FFFFFFF8
FFFFFFF8
FFFFFFF8
FFFFFFF8
FFFFFFF8
FFFFFFF8
FFFFFFF8
FFFFFFF8
FFFFFFF8
FFFFFFF8
FFFFFFF8
FFFFFFF8
FFFFFFF8
FFFFFFF8
FFFFFFF8
FFFFFFF8
FFFFFFF8
FFFFFFF8
FFFFFFF8
FFFFFFF8
FFFFFFF8
FFFFFFF8
FFFFFFF8
FFFFFFF8
FFFFFFF8
FFFFFFF8
FFFFFFF8
FFFFFFF8
FFFFFFF8
FFFFFFF8
FFFFFFF8
FFFFFFF8
FFFFFFF8
FFFFFFF8
FFFFFFF8
FFFFFFF8
FFFFFFF8
FFFFFFF8
FFFFFFF8
FFFFFFF8
FFFFFFF8
FFFFFFF8
FFFFFFF8
FFFFFFF8
FFFFFFF8
FFFFFFF8
FFFFFFF8
FFFFFFF8
FFFFFFF8
FFFFFFF8
FFFFFFF8
FFFFFFF8
FFFFFFF8
FFFFFFF8
FFFFFFF8
FFFFFFF8
FFFFFFF8
FFFFFFF8
FFFFFFF8
FFFFFFF8
FFFFFFF8
FFFFFFF8
FFFFFFF8
FFFFFFF8
FFFFFFF8
FFFFFFF8
FFFFFFF8
FFFFFFF8
FFFFFFF8
FFFFFFF8
FFFFFFF8
FFFFFFF8
FFFFFFF8
FFFFFFF8
FFFFFFF8
FFFFFFF8
FFFFFFF8
FFFFFFF8
FFFFFFF8
FFFFFFF8
FFFFFFF8
FFFFFFF8
FFFFFFF8
FFFFFFF8
FFFFFFF8
FFFFFFF8
FFFFFFF8
FFFFFFF8
FFFFFFF8
FFFFFFF8
FFFFFFF8
FFFFFFF8
FFFFFFF8
FFFFFFF8
ENDCHAR
STARTCHAR 004A
ENCODING 74
SWIDTH 369 0
DWIDTH 82 0
BBX 66 182 6 -1
BITMAP
0000000007FFFFFFC0
0000000007FFFFFFC0
0000000007FFFFFFC0
0000000007FFFFFFC0
0000000007FFFFFFC0
0000000007FFFFFFC0
0000000007FFFFFFC0
0000000007FFFFFFC0
0000000007FFFFFFC0
0000000007FFFFFFC0
0000000007FFFFFFC0
0000000007FFFFFFC0
0000000007FFFFFFC0
0000000007FFFFFFC0
0000000007FFFFFFC0
0000000007FFFFFFC0
0000000007FFFFFFC0
0000000007FFFFFFC0
0000000007FFFFFFC0
0000000007FFFFFFC0
0000000007FFFFFFC0
0000000007FFFFFFC0
0000000007FFFFFFC0
0000000007FFFFFFC0
0000000007FFFFFFC0
0000000007FFFFFFC0
0000000007FFFFFFC0
0000000007FFFFFFC0
0000000007FFFFFFC0
0000000007FFFFFFC0
0000000007FFFFFFC0
0000000007FFFFFFC0
0000000007FFFFFFC0
0000000007FFFFFFC0
0000000007FFFFFFC0
0000000007FFFFFFC0
0000000007FFFFFFC0
0000000007FFFFFFC0
0000000007FFFFFFC0
0000000007FFFFFFC0
0000000007FFFFFFC0
0000000007FFFFFFC0
0000000007FFFFFFC0
0000000007FFFFFFC0
0000000007FFFFFFC0
0000000007FFFFFFC0
0000000007FFFFFFC0
0000000007FFFFFFC0
0000000007FFFFFFC0
0000000007FFFFFFC0
0000000007FFFFFFC0
0000000007FFFFFFC0
0000000007FFFFFFC0
0000000007FFFFFFC0
0000000007FFFFFFC0
0000000007FFFFFFC0
0000000007FFFFFFC0
0000000007FFFFFFC0
0000000007FFFFFFC0
0000000007FFFFFFC0
0000000007FFFFFFC0
0000000007FFFFFFC0
0000000007FFFFFFC0
0000000007FFFFFFC0
0000000007FFFFFFC0
0000000007FFFFFFC0
0000000007FFFFFFC0
0000000007FFFFFFC0
0000000007FFFFFFC0
0000000007FFFFFFC0
0000000007FFFFFFC0
0000000007FFFFFFC0
0000000007FFFFFFC0
0000000007FFFFFFC0
0000000007FFFFFFC0
0000000007FFFFFFC0
0000000007FFFFFFC0
0000000007FFFFFFC0
0000000007FFFFFFC0
0000000007FFFFFFC0
0000000007FFFFFFC0
0000000007FFFFFFC0
0000000007FFFFFFC0
0000000007FFFFFFC0
0000000007FFFFFFC0
0000000007FFFFFFC0
0000000007FFFFFFC0
0000000007FFFFFFC0
0000000007FFFFFFC0
0000000007FFFFFFC0
0000000007FFFFFFC0
0000000007FFFFFFC0
0000000007FFFFFFC0
0000000007FFFFFFC0
0000000007FFFFFFC0
0000000007FFFFFFC0
0000000007FFFFFFC0
0000000007FFFFFFC0
0000000007FFFFFFC0
0000000007FFFFFFC0
0000000007FFFFFFC0
0000000007FFFFFFC0
0000000007FFFFFFC0
0000000007FFFFFFC0
0000000007FFFFFFC0
0000000007FFFFFFC0
0000000007FFFFFFC0
FFFFFFC007FFFFFFC0
FFFFFFC007FFFFFFC0
FFFFFFC007FFFFFFC0
FFFFFFC007FFFFFFC0
FFFFFFC007FFFFFFC0
FFFFFFC007FFFFFFC0
FFFFFFC007FFFFFFC0
FFFFFFC007FFFFFFC0
FFFFFFC007FFFFFFC0
FFFFFFC007FFFFFFC0
FFFFFFC007FFFFFFC0
FFFFFFC007FFFFFFC0
FFFFFFC007FFFFFFC0
FFFFFFC007FFFFFFC0
FFFFFFC007FFFFFFC0
FFFFFFC007FFFFFFC0
FFFFFFC007FFFFFFC0
FFFFFFC007FFFFFFC0
FFFFFFC007FFFFFFC0
FFFFFFC007FFFFFFC0
FFFFFFC007FFFFFFC0
FFFFFFC007FFFFFFC0
FFFFFFC007FFFFFFC0
FFFFFFC007FFFFFFC0
FFFFFFC007FFFFFFC0
FFFFFFC007FFFFFFC0
FFFFFFC007FFFFFFC0
FFFFFFC007FFFFFFC0
FFFFFFC007FFFFFFC0
FFFFFFC007FFFFFFC0
FFFFFFC007FFFFFFC0
FFFFFFC007FFFFFFC0
FFFFFFC007FFFFFFC0
FFFFFFC007FFFFFFC0
FFFFFFC007FFFFFFC0
FFFFFFC007FFFFFFC0
FFFFFFC007FFFFFFC0
FFFFFFC007FFFFFFC0
FFFFFFC007FFFFFFC0
FFFFFFC007FFFFFFC0
FFFFFFC007FFFFFFC0
FFFFFFC007FFFFFFC0
FFFFFFC007FFFFFFC0
FFFFFFC007FFFFFFC0
FFFFFFC007FFFFFFC0
FFFFFFC007FFFFFFC0
FFFFFFC007FFFFFFC0
FFFFFFC007FFFFFFC0
FFFFFFC007FFFFFFC0
FFFFFFE00FFFFFFFC0
FFFFFFE00FFFFFFFC0
FFFFFFF01FFFFFFFC0
7FFFFFFC3FFFFFFF80
7FFFFFFFFFFFFFFF80
7FFFFFFFFFFFFFFF80
7FFFFFFFFFFFFFFF80
7FFFFFFFFFFFFFFF80
7FFFFFFFFFFFFFFF80
7FFFFFFFFFFFFFFF80
3FFFFFFFFFFFFFFF00
3FFFFFFFFFFFFFFF00
3FFFFFFFFFFFFFFF00
3FFFFFFFFFFFFFFE00
1FFFFFFFFFFFFFFE00
1FFFFFFFFFFFFFFE00
0FFFFFFFFFFFFFFC00
0FFFFFFFFFFFFFFC00
07FFFFFFFFFFFFF800
07FFFFFFFFFFFFF000
03FFFFFFFFFFFFE000
00FFFFFFFFFFFFC000
007FFFFFFFFFFF0000
000FFFFFFFFFFC0000
0001FFFFFFFFC00000
000003FFFFE0000000
ENDCHAR
STARTCHAR 004B
ENCODING 75
SWIDTH 382 0
DWIDTH 85 0
BBX 72 182 9 -1
BITMAP
FFFFFFF0003FFFFFFC
FFFFFFF0003FFFFFFC
FFFFFFF0003FFFFFFC
FFFFFFF0003FFFFFF8
FFFFFFF0007FFFFFF8
FFFFFFF0007FFFFFF8
FFFFFFF0007FFFFFF8
FFFFFFF0007FFFFFF8
FFFFFFF0007FFFFFF0
FFFFFFF0007FFFFFF0
FFFFFFF000FFFFFFF0
FFFFFFF000FFFFFFF0
FFFFFFF000FFFFFFE0
FFFFFFF000FFFFFFE0
FFFFFFF000FFFFFFE0
FFFFFFF000FFFFFFE0
FFFFFFF000FFFFFFE0
FFFFFFF001FFFFFFC0
FFFFFFF001FFFFFFC0
FFFFFFF001FFFFFFC0
FFFFFFF001FFFFFFC0
FFFFFFF001FFFFFF80
FFFFFFF001FFFFFF80
FFFFFFF003FFFFFF80
FFFFFFF003FFFFFF80
FFFFFFF003FFFFFF80
FFFFFFF003FFFFFF00
FFFFFFF003FFFFFF00
FFFFFFF003FFFFFF00
FFFFFFF003FFFFFF00
FFFFFFF007FFFFFF00
FFFFFFF007FFFFFE00
FFFFFFF007FFFFFE00
FFFFFFF007FFFFFE00
FFFFFFF007FFFFFE00
FFFFFFF007FFFFFC00
FFFFFFF007FFFFFC00
FFFFFFF00FFFFFFC00
FFFFFFF00FFFFFFC00
FFFFFFF00FFFFFFC00
FFFFFFF00FFFFFF800
FFFFFFF00FFFFFF800
FFFFFFF00FFFFFF800
FFFFFFF01FFFFFF800
FFFFFFF01FFFFFF800
FFFFFFF01FFFFFF000
FFFFFFF01FFFFFF000
FFFFFFF01FFFFFF000
FFFFFFF01FFFFFF000
FFFFFFF01FFFFFE000
FFFFFFF03FFFFFE000
FFFFFFF03FFFFFE000
FFFFFFF03FFFFFE000
FFFFFFF03FFFFFE000
FFFFFFF03FFFFFC000
FFFFFFF03FFFFFC000
FFFFFFF03FFFFFC000
FFFFFFF07FFFFFC000
FFFFFFF07FFFFFC000
FFFFFFF07FFFFF8000
FFFFFFF07FFFFF8000
FFFFFFF07FFFFF8000
FFFFFFF07FFFFF8000
FFFFFFF0FFFFFF0000
FFFFFFF0FFFFFF0000
FFFFFFF0FFFFFF0000
FFFFFFF0FFFFFF0000
FFFFFFF0FFFFFF0000
FFFFFFF0FFFFFE0000
FFFFFFF0FFFFFE0000
FFFFFFF1FFFFFE0000
FFFFFFF1FFFFFE0000
FFFFFFF1FFFFFC0000
FFFFFFF7FFFFFC0000
FFFFFFFFFFFFFC0000
FFFFFFFFFFFFFC0000
FFFFFFFFFFFFFC0000
FFFFFFFFFFFFF80000
FFFFFFFFFFFFF80000
FFFFFFFFFFFFF80000
FFFFFFFFFFFFF80000
FFFFFFFFFFFFF80000
FFFFFFFFFFFFF80000
FFFFFFFFFFFFF80000
FFFFFFFFFFFFFC0000
FFFFFFFFFFFFFC0000
FFFFFFFFFFFFFC0000
FFFFFFFFFFFFFC0000
FFFFFFFFFFFFFC0000
FFFFFFFFFFFFFE0000
FFFFFFFFFFFFFE0000
FFFFFFFFFFFFFE0000
FFFFFFF1FFFFFE0000
FFFFFFF1FFFFFE0000
FFFFFFF1FFFFFE0000
FFFFFFF1FFFFFF0000
FFFFFFF0FFFFFF0000
FFFFFFF0FFFFFF0000
FFFFFFF0FFFFFF0000
FFFFFFF0FFFFFF0000
FFFFFFF0FFFFFF8000
FFFFFFF0FFFFFF8000
FFFFFFF0FFFFFF8000
FFFFFFF07FFFFF8000
FFFFFFF07FFFFF8000
FFFFFFF07FFFFFC000
FFFFFFF07FFFFFC000
FFFFFFF07FFFFFC000
FFFFFFF07FFFFFC000
FFFFFFF07FFFFFC000
FFFFFFF03FFFFFE000
FFFFFFF03FFFFFE000
FFFFFFF03FFFFFE000
FFFFFFF03FFFFFE000
FFFFFFF03FFFFFE000
FFFFFFF03FFFFFF000
FFFFFFF03FFFFFF000
FFFFFFF01FFFFFF000
FFFFFFF01FFFFFF000
FFFFFFF01FFFFFF000
FFFFFFF01FFFFFF000
FFFFFFF01FFFFFF800
FFFFFFF01FFFFFF800
FFFFFFF01FFFFFF800
FFFFFFF00FFFFFF800
FFFFFFF00FFFFFF800
FFFFFFF00FFFFFFC00
FFFFFFF00FFFFFFC00
FFFFFFF00FFFFFFC00
FFFFFFF00FFFFFFC00
FFFFFFF00FFFFFFC00
FFFFFFF007FFFFFE00
FFFFFFF007FFFFFE00
FFFFFFF007FFFFFE00
FFFFFFF007FFFFFE00
FFFFFFF007FFFFFE00
FFFFFFF007FFFFFF00
FFFFFFF007FFFFFF00
FFFFFFF003FFFFFF00
FFFFFFF003FFFFFF00
FFFFFFF003FFFFFF00
FFFFFFF003FFFFFF80
FFFFFFF003FFFFFF80
FFFFFFF003FFFFFF80
FFFFFFF003FFFFFF80
FFFFFFF001FFFFFF80
FFFFFFF001FFFFFF80
FFFFFFF001FFFFFFC0
FFFFFFF001FFFFFFC0
FFFFFFF001FFFFFFC0
FFFFFFF001FFFFFFC0
FFFFFFF001FFFFFFC0
FFFFFFF000FFFFFFE0
FFFFFFF000FFFFFFE0
FFFFFFF000FFFFFFE0
FFFFFFF000FFFFFFE0
FFFFFFF000FFFFFFE0
FFFFFFF000FFFFFFF0
FFFFFFF000FFFFFFF0
FFFFFFF0007FFFFFF0
FFFFFFF0007FFFFFF0
FFFFFFF0007FFFFFF0
FFFFFFF0007FFFFFF8
FFFFFFF0007FFFFFF8
FFFFFFF0007FFFFFF8
FFFFFFF0007FFFFFF8
FFFFFFF0003FFFFFF8
FFFFFFF0003FFFFFFC
FFFFFFF0003FFFFFFC
FFFFFFF0003FFFFFFC
FFFFFFF0003FFFFFFC
FFFFFFF0003FFFFFFC
FFFFFFF0003FFFFFFC
FFFFFFF0001FFFFFFE
FFFFFFF0001FFFFFFE
FFFFFFF0001FFFFFFE
FFFFFFF0001FFFFFFE
FFFFFFF0001FFFFFFE
FFFFFFF0001FFFFFFF
FFFFFFF0001FFFFFFF
FFFFFFF0000FFFFFFF
FFFFFFF0000FFFFFFF
ENDCHAR
STARTCHAR 004C
ENCODING 76
SWIDTH 270 0
DWIDTH 60 0
BBX 47 182 9 -1
BITMAP
FFFFFFF80000
FFFFFFF80000
FFFFFFF80000
FFFFFFF80000
FFFFFFF80000
FFFFFFF80000
FFFFFFF80000
FFFFFFF80000
FFFFFFF80000
FFFFFFF80000
FFFFFFF80000
FFFFFFF80000
FFFFFFF80000
FFFFFFF80000
FFFFFFF80000
FFFFFFF80000
FFFFFFF80000
FFFFFFF80000
FFFFFFF80000
FFFFFFF80000
FFFFFFF80000
FFFFFFF80000
FFFFFFF80000
FFFFFFF80000
FFFFFFF80000
FFFFFFF80000
FFFFFFF80000
FFFFFFF80000
FFFFFFF80000
FFFFFFF80000
FFFFFFF80000
FFFFFFF80000
FFFFFFF80000
FFFFFFF80000
FFFFFFF80000
FFFFFFF80000
FFFFFFF80000
FFFFFFF80000
FFFFFFF80000
FFFFFFF80000
FFFFFFF80000
FFFFFFF80000
FFFFFFF80000
FFFFFFF80000
FFFFFFF80000
FFFFFFF80000
FFFFFFF80000
FFFFFFF80000
FFFFFFF80000
FFFFFFF80000
FFFFFFF80000
FFFFFFF80000
FFFFFFF80000
FFFFFFF80000
FFFFFFF80000
FFFFFFF80000
FFFFFFF80000
FFFFFFF80000
FFFFFFF80000
FFFFFFF80000
FFFFFFF80000
FFFFFFF80000
FFFFFFF80000
FFFFFFF80000
FFFFFFF80000
FFFFFFF80000
FFFFFFF80000
FFFFFFF80000
FFFFFFF80000
FFFFFFF80000
FFFFFFF80000
FFFFFFF80000
FFFFFFF80000
FFFFFFF80000
FFFFFFF80000
FFFFFFF80000
FFFFFFF80000
FFFFFFF80000
FFFFFFF80000
FFFFFFF80000
FFFFFFF80000
FFFFFFF80000
FFFFFFF80000
FFFFFFF80000
FFFFFFF80000
FFFFFFF80000
FFFFFFF80000
FFFFFFF80000
FFFFFFF80000
FFFFFFF80000
FFFFFFF80000
FFFFFFF80000
FFFFFFF80000
FFFFFFF80000
FFFFFFF80000
FFFFFFF80000
FFFFFFF80000
FFFFFFF80000
FFFFFFF80000
FFFFFFF80000
FFFFFFF80000
FFFFFFF80000
FFFFFFF80000
FFFFFFF80000
FFFFFFF80000
FFFFFFF80000
FFFFFFF80000
FFFFFFF80000
FFFFFFF80000
FFFFFFF80000
FFFFFFF80000
FFFFFFF80000
FFFFFFF80000
FFFFFFF80000
FFFFFFF80000
FFFFFFF80000
FFFFFFF80000
FFFFFFF80000
FFFFFFF80000
FFFFFFF80000
FFFFFFF80000
FFFFFFF80000
FFFFFFF80000
FFFFFFF80000
FFFFFFF80000
FFFFFFF80000
FFFFFFF80000
FFFFFFF80000
FFFFFFF80000
FFFFFFF80000
FFFFFFF80000
FFFFFFF80000
FFFFFFF80000
FFFFFFF80000
FFFFFFF80000
FFFFFFF80000
FFFFFFF80000
FFFFFFF80000
FFFFFFF80000
FFFFFFF80000
FFFFFFF80000
FFFFFFF80000
FFFFFFF80000
FFFFFFF80000
FFFFFFF80000
FFFFFFF80000
FFFFFFF80000
FFFFFFF80000
FFFFFFF80000
FFFFFFF80000
FFFFFFF80000
FFFFFFF80000
FFFFFFF80000
FFFFFFF80000
FFFFFFF80000
FFFFFFF80000
FFFFFFF80000
FFFFFFF80000
FFFFFFF80000
FFFFFFF80000
FFFFFFF80000
FFFFFFFFFFFE
FFFFFFFFFFFE
FFFFFFFFFFFE
FFFFFFFFFFFE
FFFFFFFFFFFE
FFFFFFFFFFFE
FFFFFFFFFFFE
FFFFFFFFFFFE
FFFFFFFFFFFE
FFFFFFFFFFFE
FFFFFFFFFFFE
FFFFFFFFFFFE
FFFFFFFFFFFE
FFFFFFFFFFFE
FFFFFFFFFFFE
FFFFFFFFFFFE
FFFFFFFFFFFE
FFFFFFFFFFFE
FFFFFFFFFFFE
FFFFFFFFFFFE
FFFFFFFFFFFE
ENDCHAR
STARTCHAR 004D
ENCODING 77
SWIDTH 504 0
DWIDTH 112 0
BBX 94 182 9 -1
BITMAP
FFFFFFFF8000001FFFFFFFFC
FFFFFFFFC000001FFFFFFFFC
FFFFFFFFC000001FFFFFFFFC
FFFFFFFFC000001FFFFFFFFC
FFFFFFFFC000001FFFFFFFFC
FFFFFFFFC000001FFFFFFFFC
FFFFFFFFC000001FFFFFFFFC
FFFFFFFFC000003FFFFFFFFC
FFFFFFFFC000003FFFFFFFFC
FFFFFFFFE000003FFFFFFFFC
FFFFFFFFE000003FFFFFFFFC
FFFFFFFFE000003FFFFFFFFC
FFFFFFFFE000003FFFFFFFFC
FFFFFFFFE000003FFFFFFFFC
FFFFFFFFE000003FFFFFFFFC
FFFFFFFFE000007FFFFFFFFC
FFFFFFFFE000007FFFFFFFFC
FFFFFFFFF000007FFFFFFFFC
FFFFFFFFF000007FFFFFFFFC
FFFFFFFFF000007FFFFFFFFC
FFFFFFFFF000007FFFFFFFFC
FFFFFFFFF000007FFFFFFFFC
FFFFFFFFF00000FFFFFFFFFC
FFFFFFFFF00000FFFFFFFFFC
FFFFFFFFF00000FFFFFFFFFC
FFFFFFFFF80000FFFFFFFFFC
FFFFFFFFF80000FFFFFFFFFC
FFFFFFFFF80000FFFFFFFFFC
FFFFFFFFF80000FFFFFFFFFC
FFFFFFFFF80000FFFFFFFFFC
FFFFFFFFF80001FFFFFFFFFC
FFFFFFFFF80001FFFFFFFFFC
FFFFFFFFFC0001FFFFFFFFFC
FFFFFFFFFC0001FFFFFFFFFC
FFFFFFFFFC0001FFFFFFFFFC
FFFFFFFFFC0001FFFFFFFFFC
FFFFFFFFFC0001FFFFFFFFFC
FFFFFFFFFC0001FFFFFFFFFC
FFFFFFFFFC0003FFFFFFFFFC
FFFFFFFFFC0003FFFFFFFFFC
FFFFFFFFFE0003FFFFFFFFFC
FFFFFFFFFE0003FFFFFFFFFC
FFFFFFFFFE0003FFFFFFFFFC
FFFFFFFFFE0003FFFFFFFFFC
FFFFFFFFFE0003FFFFFFFFFC
FFFFFFFFFE0003FFFFFFFFFC
FFFFFFFFFE0007FFFFFFFFFC
FFFFFFFFFE0007FFFFFFFFFC
FFFFFFFFFF0007FFFFFFFFFC
FFFFFFFFFF0007FFFFFFFFFC
FFFFFFFFFF0007FFFFFFFFFC
FFFFFFFFFF0007FFFFFFFFFC
FFFFFFFFFF0007FFFFFFFFFC
FFFFFFFFFF000FFFFFFFFFFC
FFFFFFFFFF000FFFFFFFFFFC
FFFFFFFFFF800FFFFFFFFFFC
FFFFFFFFFF800FFFFFFFFFFC
FFFFFFFFFF800FFFFFFFFFFC
FFFFFFFFFF800FFFFFFFFFFC
FFFFFFFFFF800FFFFFFFFFFC
FFFFFFFFFF800FFFFFFFFFFC
FFFFFFFFFF801FFFFFFFFFFC
FFFFFFFFFF801FFFFFFFFFFC
FFFFFFFFFFC01FFFFFFFFFFC
FFFFFFFFFFC01FFFFFFFFFFC
FFFFFFFFFFC01FFFFFFFFFFC
FFFFFFFFFFC01FFFFFFFFFFC
FFFFFFFFFFC01FFFFFFFFFFC
FFFFFFFFFFC01FFFFFFFFFFC
FFFFFFFFFFC03FFFFFFFFFFC
FFFFFFFFFFC03FFFFFFFFFFC
FFFFFFFFFFE03FFFFFFFFFFC
FFFFFF0FFFE03FFFC3FFFFFC
FFFFFF0FFFE03FFFC3FFFFFC
FFFFFF0FFFE03FFFC3FFFFFC
FFFFFF0FFFE03FFF83FFFFFC
FFFFFF0FFFE07FFF83FFFFFC
FFFFFF07FFE07FFF83FFFFFC
FFFFFF07FFF07FFF83FFFFFC
FFFFFF07FFF07FFF83FFFFFC
FFFFFF07FFF07FFF83FFFFFC
FFFFFF07FFF07FFF83FFFFFC
FFFFFF07FFF07FFF83FFFFFC
FFFFFF07FFF07FFF83FFFFFC
FFFFFF07FFF0FFFF03FFFFFC
FFFFFF07FFF0FFFF03FFFFFC
FFFFFF03FFF8FFFF03FFFFFC
FFFFFF03FFF8FFFF03FFFFFC
FFFFFF03FFFFFFFF03FFFFFC
FFFFFF03FFFFFFFF03FFFFFC
FFFFFF03FFFFFFFF03FFFFFC
FFFFFF03FFFFFFFF03FFFFFC
FFFFFF03FFFFFFFF03FFFFFC
FFFFFF03FFFFFFFF03FFFFFC
FFFFFF03FFFFFFFE03FFFFFC
FFFFFF03FFFFFFFE03FFFFFC
FFFFFF01FFFFFFFE03FFFFFC
FFFFFF01FFFFFFFE07FFFFFC
FFFFFF01FFFFFFFE07FFFFFC
FFFFFF01FFFFFFFE07FFFFFC
FFFFFF01FFFFFFFE07FFFFFC
FFFFFF01FFFFFFFE07FFFFFC
FFFFFF01FFFFFFFE07FFFFFC
FFFFFF01FFFFFFFC07FFFFFC
FFFFFF01FFFFFFFC07FFFFFC
FFFFFF00FFFFFFFC07FFFFFC
FFFFFF00FFFFFFFC07FFFFFC
FFFFFF00FFFFFFFC07FFFFFC
FFFFFF00FFFFFFFC07FFFFFC
FFFFFF00FFFFFFFC07FFFFFC
FFFFFF00FFFFFFFC07FFFFFC
FFFFFF00FFFFFFFC07FFFFFC
FFFFFF00FFFFFFF807FFFFFC
FFFFFF00FFFFFFF807FFFFFC
FFFFFF007FFFFFF807FFFFFC
FFFFFF007FFFFFF807FFFFFC
FFFFFF007FFFFFF807FFFFFC
FFFFFF007FFFFFF807FFFFFC
FFFFFF007FFFFFF807FFFFFC
FFFFFF007FFFFFF807FFFFFC
FFFFFF007FFFFFF807FFFFFC
FFFFFF007FFFFFF807FFFFFC
FFFFFF007FFFFFF007FFFFFC
FFFFFF803FFFFFF007FFFFFC
FFFFFF803FFFFFF007FFFFFC
FFFFFF803FFFFFF007FFFFFC
FFFFFF803FFFFFF007FFFFFC
FFFFFF803FFFFFF007FFFFFC
FFFFFF803FFFFFF007FFFFFC
FFFFFF803FFFFFF007FFFFFC
FFFFFF803FFFFFF007FFFFFC
FFFFFF803FFFFFE007FFFFFC
FFFFFF803FFFFFE007FFFFFC
FFFFFF801FFFFFE007FFFFFC
FFFFFF801FFFFFE007FFFFFC
FFFFFF801FFFFFE007FFFFFC
FFFFFF801FFFFFE007FFFFFC
FFFFFF801FFFFFE007FFFFFC
FFFFFF801FFFFFE007FFFFFC
FFFFFF801FFFFFE007FFFFFC
FFFFFF801FFFFFC007FFFFFC
FFFFFF801FFFFFC007FFFFFC
FFFFFF800FFFFFC007FFFFFC
FFFFFF800FFFFFC007FFFFFC
FFFFFF800FFFFFC007FFFFFC
FFFFFF800FFFFFC007FFFFFC
FFFFFF800FFFFFC007FFFFFC
FFFFFF800FFFFFC007FFFFFC
FFFFFF800FFFFFC007FFFFFC
FFFFFF800FFFFF8007FFFFFC
FFFFFF800FFFFF8007FFFFFC
FFFFFF8007FFFF8007FFFFFC
FFFFFF8007FFFF8007FFFFFC
FFFFFF8007FFFF8007FFFFFC
FFFFFF8007FFFF8007FFFFFC
FFFFFF8007FFFF8007FFFFFC
FFFFFF8007FFFF8007FFFFFC
FFFFFF8007FFFF8007FFFFFC
FFFFFF8007FFFF8007FFFFFC
FFFFFF8007FFFF0007FFFFFC
FFFFFF8007FFFF0007FFFFFC
FFFFFF8003FFFF0007FFFFFC
FFFFFF8003FFFF0007FFFFFC
FFFFFF8003FFFF0007FFFFFC
FFFFFF8003FFFF0007FFFFFC
FFFFFF8003FFFF0007FFFFFC
FFFFFF8003FFFF0007FFFFFC
FFFFFF8003FFFF0007FFFFFC
FFFFFF8003FFFE0007FFFFFC
FFFFFF8003FFFE0007FFFFFC
FFFFFF8001FFFE0007FFFFFC
FFFFFF8001FFFE0007FFFFFC
FFFFFF8001FFFE0007FFFFFC
FFFFFF8001FFFE0007FFFFFC
FFFFFF8001FFFE0007FFFFFC
FFFFFF8001FFFE0007FFFFFC
FFFFFF8001FFFE0007FFFFFC
FFFFFF8001FFFC0007FFFFFC
FFFFFF8001FFFC0007FFFFFC
FFFFFF8000FFFC0007FFFFFC
FFFFFF8000FFFC0007FFFFFC
FFFFFF8000FFFC0007FFFFFC
ENDCHAR
STARTCHAR 004E
ENCODING 78
SWIDTH 396 0
DWIDTH 88 0
BBX 70 182 9 -1
BITMAP
FFFFFFC00007FFFFFC
FFFFFFC00007FFFFFC
FFFFFFC00007FFFFFC
FFFFFFC00007FFFFFC
FFFFFFC00007FFFFFC
FFFFFFC00007FFFFFC
FFFFFFE00007FFFFFC
FFFFFFE00007FFFFFC
FFFFFFE00007FFFFFC
FFFFFFE00007FFFFFC
FFFFFFE00007FFFFFC
FFFFFFF00007FFFFFC
FFFFFFF00007FFFFFC
FFFFFFF00007FFFFFC
FFFFFFF00007FFFFFC
FFFFFFF00007FFFFFC
FFFFFFF80007FFFFFC
FFFFFFF80007FFFFFC
FFFFFFF80007FFFFFC
FFFFFFF80007FFFFFC
FFFFFFF80007FFFFFC
FFFFFFF80007FFFFFC
FFFFFFFC0007FFFFFC
FFFFFFFC0007FFFFFC
FFFFFFFC0007FFFFFC
FFFFFFFC0007FFFFFC
FFFFFFFC0007FFFFFC
FFFFFFFE0007FFFFFC
FFFFFFFE0007FFFFFC
FFFFFFFE0007FFFFFC
FFFFFFFE0007FFFFFC
FFFFFFFE0007FFFFFC
FFFFFFFE0007FFFFFC
FFFFFFFF0007FFFFFC
FFFFFFFF0007FFFFFC
FFFFFFFF0007FFFFFC
FFFFFFFF0007FFFFFC
FFFFFFFF0007FFFFFC
FFFFFFFF8007FFFFFC
FFFFFFFF8003FFFFFC
FFFFFFFF8003FFFFFC
FFFFFFFF8003FFFFFC
FFFFFFFF8003FFFFFC
FFFFFFFF8003FFFFFC
FFFFFFFFC003FFFFFC
FFFFFFFFC003FFFFFC
FFFFFFFFC003FFFFFC
FFFFFFFFC003FFFFFC
FFFFFFFFC003FFFFFC
FFFFFFFFE003FFFFFC
FFFFFFFFE003FFFFFC
FFFFFFFFE003FFFFFC
FFFFFFFFE003FFFFFC
FFFFFFFFE003FFFFFC
FFFFFFFFF003FFFFFC
FFFFFFFFF003FFFFFC
FFFFFFFFF003FFFFFC
FFFFFFFFF003FFFFFC
FFFFFFFFF003FFFFFC
FFFFFFFFF003FFFFFC
FFFFFFFFF803FFFFFC
FFFFFFFFF803FFFFFC
FFFFFFFFF803FFFFFC
FFFFFFFFF803FFFFFC
FFFFFFFFF803FFFFFC
FFFFFFFFFC03FFFFFC
FFFFFFFFFC03FFFFFC
FFFFFFFFFC03FFFFFC
FFFFFFFFFC03FFFFFC
FFFFFFFFFC03FFFFFC
FFFFFFFFFC03FFFFFC
FFFFFFFFFE03FFFFFC
FFFFFFFFFE03FFFFFC
FFFFFFFFFE03FFFFFC
FFFFFFFFFE03FFFFFC
FFFFFFFFFE03FFFFFC
FFFFFFFFFF03FFFFFC
FFFFFFFFFF03FFFFFC
FFFFFFFFFF03FFFFFC
FFFFFFFFFF03FFFFFC
FFFFFFFFFF03FFFFFC
FFFFFFFFFF83FFFFFC
FFFFFFFFFF83FFFFFC
FFFFFFFFFF83FFFFFC
FFFFFFFFFF83FFFFFC
FFFFFFFFFF83FFFFFC
FFFFFFFFFF83FFFFFC
FFFFFFFFFFC3FFFFFC
FFFFFF0FFFC3FFFFFC
FFFFFF0FFFC3FFFFFC
FFFFFF0FFFC3FFFFFC
FFFFFF0FFFC3FFFFFC
FFFFFF0FFFFFFFFFFC
FFFFFF0FFFFFFFFFFC
FFFFFF07FFFFFFFFFC
FFFFFF07FFFFFFFFFC
FFFFFF07FFFFFFFFFC
FFFFFF07FFFFFFFFFC
FFFFFF07FFFFFFFFFC
FFFFFF03FFFFFFFFFC
FFFFFF03FFFFFFFFFC
FFFFFF03FFFFFFFFFC
FFFFFF03FFFFFFFFFC
FFFFFF03FFFFFFFFFC
FFFFFF03FFFFFFFFFC
FFFFFF01FFFFFFFFFC
FFFFFF01FFFFFFFFFC
FFFFFF01FFFFFFFFFC
FFFFFF01FFFFFFFFFC
FFFFFF01FFFFFFFFFC
FFFFFF00FFFFFFFFFC
FFFFFF00FFFFFFFFFC
FFFFFF00FFFFFFFFFC
FFFFFF00FFFFFFFFFC
FFFFFF00FFFFFFFFFC
FFFFFF007FFFFFFFFC
FFFFFF007FFFFFFFFC
FFFFFF007FFFFFFFFC
FFFFFF007FFFFFFFFC
FFFFFF007FFFFFFFFC
FFFFFF007FFFFFFFFC
FFFFFF003FFFFFFFFC
FFFFFF003FFFFFFFFC
FFFFFF003FFFFFFFFC
FFFFFF003FFFFFFFFC
FFFFFF003FFFFFFFFC
FFFFFF001FFFFFFFFC
FFFFFF001FFFFFFFFC
FFFFFF001FFFFFFFFC
FFFFFF001FFFFFFFFC
FFFFFF001FFFFFFFFC
FFFFFF001FFFFFFFFC
FFFFFF000FFFFFFFFC
FFFFFF000FFFFFFFFC
FFFFFF000FFFFFFFFC
FFFFFF000FFFFFFFFC
FFFFFF000FFFFFFFFC
FFFFFF0007FFFFFFFC
FFFFFF0007FFFFFFFC
FFFFFF0007FFFFFFFC
FFFFFF0007FFFFFFFC
FFFFFF0007FFFFFFFC
FFFFFF0003FFFFFFFC
FFFFFF0003FFFFFFFC
FFFFFF0003FFFFFFFC
FFFFFF0003FFFFFFFC
FFFFFF0003FFFFFFFC
FFFFFF0003FFFFFFFC
FFFFFF0001FFFFFFFC
FFFFFF0001FFFFFFFC
FFFFFF0001FFFFFFFC
FFFFFF0001FFFFFFFC
FFFFFF0001FFFFFFFC
FFFFFF0000FFFFFFFC
FFFFFF0000FFFFFFFC
FFFFFF0000FFFFFFFC
FFFFFF0000FFFFFFFC
FFFFFF0000FFFFFFFC
FFFFFF0000FFFFFFFC
FFFFFF00007FFFFFFC
FFFFFF00007FFFFFFC
FFFFFF00007FFFFFFC
FFFFFF00007FFFFFFC
FFFFFF00007FFFFFFC
FFFFFF00003FFFFFFC
FFFFFF00003FFFFFFC
FFFFFF00003FFFFFFC
FFFFFF00003FFFFFFC
FFFFFF00003FFFFFFC
FFFFFF00003FFFFFFC
FFFFFF00001FFFFFFC
FFFFFF00001FFFFFFC
FFFFFF00001FFFFFFC
FFFFFF00001FFFFFFC
FFFFFF00001FFFFFFC
FFFFFF00000FFFFFFC
FFFFFF00000FFFFFFC
FFFFFF00000FFFFFFC
FFFFFF00000FFFFFFC
FFFFFF00000FFFFFFC
FFFFFF000007FFFFFC
FFFFFF000007FFFFFC
ENDCHAR
STARTCHAR 004F
ENCODING 79
SWIDTH 382 0
DWIDTH 85 0
BBX 69 182 8 -1
BITMAP
000001FFFFFC000000
0000FFFFFFFFF80000
000FFFFFFFFFFF8000
007FFFFFFFFFFFE000
00FFFFFFFFFFFFF800
03FFFFFFFFFFFFFE00
07FFFFFFFFFFFFFF00
07FFFFFFFFFFFFFF00
0FFFFFFFFFFFFFFF80
1FFFFFFFFFFFFFFF80
1FFFFFFFFFFFFFFFC0
1FFFFFFFFFFFFFFFC0
3FFFFFFFFFFFFFFFC0
3FFFFFFFFFFFFFFFE0
3FFFFFFFFFFFFFFFE0
7FFFFFFFFFFFFFFFE0
7FFFFFFFFFFFFFFFE0
7FFFFFFFFFFFFFFFF0
7FFFFFFFFFFFFFFFF0
7FFFFFFFFFFFFFFFF0
7FFFFFFFFFFFFFFFF0
7FFFFFFF0FFFFFFFF0
FFFFFFFE03FFFFFFF0
FFFFFFFC01FFFFFFF0
FFFFFFFC01FFFFFFF8
FFFFFFF801FFFFFFF8
FFFFFFF800FFFFFFF8
FFFFFFF800FFFFFFF8
FFFFFFF800FFFFFFF8
FFFFFFF800FFFFFFF8
FFFFFFF800FFFFFFF8
FFFFFFF800FFFFFFF8
FFFFFFF800FFFFFFF8
FFFFFFF800FFFFFFF8
FFFFFFF800FFFFFFF8
FFFFFFF800FFFFFFF8
FFFFFFF800FFFFFFF8
FFFFFFF800FFFFFFF8
FFFFFFF800FFFFFFF8
FFFFFFF800FFFFFFF8
FFFFFFF800FFFFFFF8
FFFFFFF800FFFFFFF8
FFFFFFF800FFFFFFF8
FFFFFFF800FFFFFFF8
FFFFFFF800FFFFFFF8
FFFFFFF800FFFFFFF8
FFFFFFF800FFFFFFF8
FFFFFFF800FFFFFFF8
FFFFFFF800FFFFFFF8
FFFFFFF800FFFFFFF8
FFFFFFF800FFFFFFF8
FFFFFFF800FFFFFFF8
FFFFFFF800FFFFFFF8
FFFFFFF800FFFFFFF8
FFFFFFF800FFFFFFF8
FFFFFFF800FFFFFFF8
FFFFFFF800FFFFFFF8
FFFFFFF800FFFFFFF8
FFFFFFF800FFFFFFF8
FFFFFFF800FFFFFFF8
FFFFFFF800FFFFFFF8
FFFFFFF800FFFFFFF8
FFFFFFF800FFFFFFF8
FFFFFFF800FFFFFFF8
FFFFFFF800FFFFFFF8
FFFFFFF800FFFFFFF8
FFFFFFF800FFFFFFF8
FFFFFFF800FFFFFFF8
FFFFFFF800FFFFFFF8
FFFFFFF800FFFFFFF8
FFFFFFF800FFFFFFF8
FFFFFFF800FFFFFFF8
FFFFFFF800FFFFFFF8
FFFFFFF800FFFFFFF8
FFFFFFF800FFFFFFF8
FFFFFFF800FFFFFFF8
FFFFFFF800FFFFFFF8
FFFFFFF800FFFFFFF8
FFFFFFF800FFFFFFF8
FFFFFFF800FFFFFFF8
FFFFFFF800FFFFFFF8
FFFFFFF800FFFFFFF8
FFFFFFF800FFFFFFF8
FFFFFFF800FFFFFFF8
FFFFFFF800FFFFFFF8
FFFFFFF800FFFFFFF8
FFFFFFF800FFFFFFF8
FFFFFFF800FFFFFFF8
FFFFFFF800FFFFFFF8
FFFFFFF800FFFFFFF8
FFFFFFF800FFFFFFF8
FFFFFFF800FFFFFFF8
FFFFFFF800FFFFFFF8
FFFFFFF800FFFFFFF8
FFFFFFF800FFFFFFF8
FFFFFFF800FFFFFFF8
FFFFFFF800FFFFFFF8
FFFFFFF800FFFFFFF8
FFFFFFF800FFFFFFF8
FFFFFFF800FFFFFFF8
FFFFFFF800FFFFFFF8
FFFFFFF800FFFFFFF8
FFFFFFF800FFFFFFF8
FFFFFFF800FFFFFFF8
FFFFFFF800FFFFFFF8
FFFFFFF800FFFFFFF8
FFFFFFF800FFFFFFF8
FFFFFFF800FFFFFFF8
FFFFFFF800FFFFFFF8
FFFFFFF800FFFFFFF8
FFFFFFF800FFFFFFF8
FFFFFFF800FFFFFFF8
FFFFFFF800FFFFFFF8
FFFFFFF800FFFFFFF8
FFFFFFF800FFFFFFF8
FFFFFFF800FFFFFFF8
FFFFFFF800FFFFFFF8
FFFFFFF800FFFFFFF8
FFFFFFF800FFFFFFF8
FFFFFFF800FFFFFFF8
FFFFFFF800FFFFFFF8
FFFFFFF800FFFFFFF8
FFFFFFF800FFFFFFF8
FFFFFFF800FFFFFFF8
FFFFFFF800FFFFFFF8
FFFFFFF800FFFFFFF8
FFFFFFF800FFFFFFF8
FFFFFFF800FFFFFFF8
FFFFFFF800FFFFFFF8
FFFFFFF800FFFFFFF8
FFFFFFF800FFFFFFF8
FFFFFFF800FFFFFFF8
FFFFFFF800FFFFFFF8
FFFFFFF800FFFFFFF8
FFFFFFF800FFFFFFF8
FFFFFFF800FFFFFFF8
FFFFFFF800FFFFFFF8
FFFFFFF800FFFFFFF8
FFFFFFF800FFFFFFF8
FFFFFFF800FFFFFFF8
FFFFFFF800FFFFFFF8
FFFFFFF800FFFFFFF8
FFFFFFF800FFFFFFF8
FFFFFFF800FFFFFFF8
FFFFFFF800FFFFFFF8
FFFFFFF800FFFFFFF8
FFFFFFF800FFFFFFF8
FFFFFFF800FFFFFFF8
FFFFFFF800FFFFFFF8
FFFFFFF800FFFFFFF8
FFFFFFF800FFFFFFF8
FFFFFFF800FFFFFFF8
FFFFFFF800FFFFFFF8
FFFFFFF800FFFFFFF8
FFFFFFF800FFFFFFF8
FFFFFFF800FFFFFFF8
FFFFFFFC01FFFFFFF8
FFFFFFFC01FFFFFFF8
FFFFFFFE03FFFFFFF0
7FFFFFFF87FFFFFFF0
7FFFFFFFFFFFFFFFF0
7FFFFFFFFFFFFFFFF0
7FFFFFFFFFFFFFFFF0
7FFFFFFFFFFFFFFFF0
7FFFFFFFFFFFFFFFF0
7FFFFFFFFFFFFFFFE0
3FFFFFFFFFFFFFFFE0
3FFFFFFFFFFFFFFFE0
3FFFFFFFFFFFFFFFE0
1FFFFFFFFFFFFFFFC0
1FFFFFFFFFFFFFFFC0
1FFFFFFFFFFFFFFFC0
0FFFFFFFFFFFFFFF80
0FFFFFFFFFFFFFFF80
07FFFFFFFFFFFFFF00
03FFFFFFFFFFFFFE00
01FFFFFFFFFFFFFE00
00FFFFFFFFFFFFF800
003FFFFFFFFFFFE000
0007FFFFFFFFFF8000
00007FFFFFFFF80000
000000FFFFFC000000
ENDCHAR
STARTCHAR 0050
ENCODING 80
SWIDTH 382 0
DWIDTH 85 0
BBX 69 182 9 -1
BITMAP
FFFFFFFFFFFE000000
FFFFFFFFFFFFF80000
FFFFFFFFFFFFFF8000
FFFFFFFFFFFFFFE000
FFFFFFFFFFFFFFF800
FFFFFFFFFFFFFFFC00
FFFFFFFFFFFFFFFE00
FFFFFFFFFFFFFFFF00
FFFFFFFFFFFFFFFF80
FFFFFFFFFFFFFFFF80
FFFFFFFFFFFFFFFFC0
FFFFFFFFFFFFFFFFC0
FFFFFFFFFFFFFFFFC0
FFFFFFFFFFFFFFFFE0
FFFFFFFFFFFFFFFFE0
FFFFFFFFFFFFFFFFE0
FFFFFFFFFFFFFFFFE0
FFFFFFFFFFFFFFFFF0
FFFFFFFFFFFFFFFFF0
FFFFFFFFFFFFFFFFF0
FFFFFFFFFFFFFFFFF0
FFFFFFF80FFFFFFFF0
FFFFFFF803FFFFFFF0
FFFFFFF801FFFFFFF0
FFFFFFF801FFFFFFF0
FFFFFFF801FFFFFFF8
FFFFFFF801FFFFFFF8
FFFFFFF800FFFFFFF8
FFFFFFF800FFFFFFF8
FFFFFFF800FFFFFFF8
FFFFFFF800FFFFFFF8
FFFFFFF800FFFFFFF8
FFFFFFF800FFFFFFF8
FFFFFFF800FFFFFFF8
FFFFFFF800FFFFFFF8
FFFFFFF800FFFFFFF8
FFFFFFF800FFFFFFF8
FFFFFFF800FFFFFFF8
FFFFFFF800FFFFFFF8
FFFFFFF800FFFFFFF8
FFFFFFF800FFFFFFF8
FFFFFFF800FFFFFFF8
FFFFFFF800FFFFFFF8
FFFFFFF800FFFFFFF8
FFFFFFF800FFFFFFF8
FFFFFFF800FFFFFFF8
FFFFFFF800FFFFFFF8
FFFFFFF800FFFFFFF8
FFFFFFF800FFFFFFF8
FFFFFFF800FFFFFFF8
FFFFFFF800FFFFFFF8
FFFFFFF800FFFFFFF8
FFFFFFF800FFFFFFF8
FFFFFFF800FFFFFFF8
FFFFFFF800FFFFFFF8
FFFFFFF800FFFFFFF8
FFFFFFF800FFFFFFF8
FFFFFFF800FFFFFFF8
FFFFFFF800FFFFFFF8
FFFFFFF800FFFFFFF8
FFFFFFF800FFFFFFF8
FFFFFFF800FFFFFFF8
FFFFFFF800FFFFFFF8
FFFFFFF800FFFFFFF8
FFFFFFF800FFFFFFF8
FFFFFFF800FFFFFFF8
FFFFFFF800FFFFFFF8
FFFFFFF800FFFFFFF8
FFFFFFF800FFFFFFF8
FFFFFFF800FFFFFFF8
FFFFFFF800FFFFFFF8
FFFFFFF800FFFFFFF8
FFFFFFF800FFFFFFF8
FFFFFFF800FFFFFFF8
FFFFFFF800FFFFFFF8
FFFFFFF800FFFFFFF8
FFFFFFF800FFFFFFF8
FFFFFFF800FFFFFFF8
FFFFFFF800FFFFFFF8
FFFFFFF800FFFFFFF8
FFFFFFF800FFFFFFF8
FFFFFFF800FFFFFFF8
FFFFFFF800FFFFFFF8
FFFFFFF800FFFFFFF8
FFFFFFF800FFFFFFF8
FFFFFFF800FFFFFFF8
FFFFFFF800FFFFFFF8
FFFFFFF800FFFFFFF8
FFFFFFF800FFFFFFF8
FFFFFFF800FFFFFFF8
FFFFFFF801FFFFFFF8
FFFFFFF801FFFFFFF0
FFFFFFF801FFFFFFF0
FFFFFFF803FFFFFFF0
FFFFFFF80FFFFFFFF0
FFFFFFFFFFFFFFFFF0
FFFFFFFFFFFFFFFFF0
FFFFFFFFFFFFFFFFF0
FFFFFFFFFFFFFFFFF0
FFFFFFFFFFFFFFFFE0
FFFFFFFFFFFFFFFFE0
FFFFFFFFFFFFFFFFE0
FFFFFFFFFFFFFFFFE0
FFFFFFFFFFFFFFFFC0
FFFFFFFFFFFFFFFFC0
FFFFFFFFFFFFFFFFC0
FFFFFFFFFFFFFFFF80
FFFFFFFFFFFFFFFF80
FFFFFFFFFFFFFFFF00
FFFFFFFFFFFFFFFF00
FFFFFFFFFFFFFFFE00
FFFFFFFFFFFFFFF800
FFFFFFFFFFFFFFF000
FFFFFFFFFFFFFF8000
FFFFFFFFFFFFFC0000
FFFFFFFFFFFE000000
FFFFFFF80000000000
FFFFFFF80000000000
FFFFFFF80000000000
FFFFFFF80000000000
FFFFFFF80000000000
FFFFFFF80000000000
FFFFFFF80000000000
FFFFFFF80000000000
FFFFFFF80000000000
FFFFFFF80000000000
FFFFFFF80000000000
FFFFFFF80000000000
FFFFFFF80000000000
FFFFFFF80000000000
FFFFFFF80000000000
FFFFFFF80000000000
FFFFFFF80000000000
FFFFFFF80000000000
FFFFFFF80000000000
FFFFFFF80000000000
FFFFFFF80000000000
FFFFFFF80000000000
FFFFFFF80000000000
FFFFFFF80000000000
FFFFFFF80000000000
FFFFFFF80000000000
FFFFFFF80000000000
FFFFFFF80000000000
FFFFFFF80000000000
FFFFFFF80000000000
FFFFFFF80000000000
FFFFFFF80000000000
FFFFFFF80000000000
FFFFFFF80000000000
FFFFFFF80000000000
FFFFFFF80000000000
FFFFFFF80000000000
FFFFFFF80000000000
FFFFFFF80000000000
FFFFFFF80000000000
FFFFFFF80000000000
FFFFFFF80000000000
FFFFFFF80000000000
FFFFFFF80000000000
FFFFFFF80000000000
FFFFFFF80000000000
FFFFFFF80000000000
FFFFFFF80000000000
FFFFFFF80000000000
FFFFFFF80000000000
FFFFFFF80000000000
FFFFFFF80000000000
FFFFFFF80000000000
FFFFFFF80000000000
FFFFFFF80000000000
FFFFFFF80000000000
FFFFFFF80000000000
FFFFFFF80000000000
FFFFFFF80000000000
FFFFFFF80000000000
FFFFFFF80000000000
FFFFFFF80000000000
FFFFFFF80000000000
FFFFFFF80000000000
FFFFFFF80000000000
FFFFFFF80000000000
ENDCHAR
STARTCHAR 0051
ENCODING 81
SWIDTH 382 0
DWIDTH 85 0
BBX 69 203 8 -22
BITMAP
000001FFFFFC000000
0000FFFFFFFFF00000
000FFFFFFFFFFF0000
003FFFFFFFFFFFE000
00FFFFFFFFFFFFF000
03FFFFFFFFFFFFFC00
07FFFFFFFFFFFFFE00
07FFFFFFFFFFFFFF00
0FFFFFFFFFFFFFFF00
0FFFFFFFFFFFFFFF80
1FFFFFFFFFFFFFFF80
1FFFFFFFFFFFFFFFC0
3FFFFFFFFFFFFFFFC0
3FFFFFFFFFFFFFFFE0
3FFFFFFFFFFFFFFFE0
3FFFFFFFFFFFFFFFE0
7FFFFFFFFFFFFFFFE0
7FFFFFFFFFFFFFFFF0
7FFFFFFFFFFFFFFFF0
7FFFFFFFFFFFFFFFF0
7FFFFFFFFFFFFFFFF0
7FFFFFFF0FFFFFFFF0
FFFFFFFE03FFFFFFF0
FFFFFFFC01FFFFFFF0
FFFFFFFC01FFFFFFF0
FFFFFFF800FFFFFFF8
FFFFFFF800FFFFFFF8
FFFFFFF800FFFFFFF8
FFFFFFF800FFFFFFF8
FFFFFFF800FFFFFFF8
FFFFFFF800FFFFFFF8
FFFFFFF800FFFFFFF8
FFFFFFF800FFFFFFF8
FFFFFFF800FFFFFFF8
FFFFFFF800FFFFFFF8
FFFFFFF800FFFFFFF8
FFFFFFF800FFFFFFF8
FFFFFFF800FFFFFFF8
FFFFFFF800FFFFFFF8
FFFFFFF800FFFFFFF8
FFFFFFF800FFFFFFF8
FFFFFFF800FFFFFFF8
FFFFFFF800FFFFFFF8
FFFFFFF800FFFFFFF8
FFFFFFF800FFFFFFF8
FFFFFFF800FFFFFFF8
FFFFFFF800FFFFFFF8
FFFFFFF800FFFFFFF8
FFFFFFF800FFFFFFF8
FFFFFFF800FFFFFFF8
FFFFFFF800FFFFFFF8
FFFFFFF800FFFFFFF8
FFFFFFF800FFFFFFF8
FFFFFFF800FFFFFFF8
FFFFFFF800FFFFFFF8
FFFFFFF800FFFFFFF8
FFFFFFF800FFFFFFF8
FFFFFFF800FFFFFFF8
FFFFFFF800FFFFFFF8
FFFFFFF800FFFFFFF8
FFFFFFF800FFFFFFF8
FFFFFFF800FFFFFFF8
FFFFFFF800FFFFFFF8
FFFFFFF800FFFFFFF8
FFFFFFF800FFFFFFF8
FFFFFFF800FFFFFFF8
FFFFFFF800FFFFFFF8
FFFFFFF800FFFFFFF8
FFFFFFF800FFFFFFF8
FFFFFFF800FFFFFFF8
FFFFFFF800FFFFFFF8
FFFFFFF800FFFFFFF8
FFFFFFF800FFFFFFF8
FFFFFFF800FFFFFFF8
FFFFFFF800FFFFFFF8
FFFFFFF800FFFFFFF8
FFFFFFF800FFFFFFF8
FFFFFFF800FFFFFFF8
FFFFFFF800FFFFFFF8
FFFFFFF800FFFFFFF8
FFFFFFF800FFFFFFF8
FFFFFFF800FFFFFFF8
FFFFFFF800FFFFFFF8
FFFFFFF800FFFFFFF8
FFFFFFF800FFFFFFF8
FFFFFFF800FFFFFFF8
FFFFFFF800FFFFFFF8
FFFFFFF800FFFFFFF8
FFFFFFF800FFFFFFF8
FFFFFFF800FFFFFFF8
FFFFFFF800FFFFFFF8
FFFFFFF800FFFFFFF8
FFFFFFF800FFFFFFF8
FFFFFFF800FFFFFFF8
FFFFFFF800FFFFFFF8
FFFFFFF800FFFFFFF8
FFFFFFF800FFFFFFF8
FFFFFFF800FFFFFFF8
FFFFFFF800FFFFFFF8
FFFFFFF800FFFFFFF8
FFFFFFF800FFFFFFF8
FFFFFFF800FFFFFFF8
FFFFFFF800FFFFFFF8
FFFFFFF800FFFFFFF8
FFFFFFF800FFFFFFF8
FFFFFFF800FFFFFFF8
FFFFFFF800FFFFFFF8
FFFFFFF800FFFFFFF8
FFFFFFF800FFFFFFF8
FFFFFFF800FFFFFFF8
FFFFFFF800FFFFFFF8
FFFFFFF800FFFFFFF8
FFFFFFF800FFFFFFF8
FFFFFFF800FFFFFFF8
FFFFFFF800FFFFFFF8
FFFFFFF800FFFFFFF8
FFFFFFF800FFFFFFF8
FFFFFFF800FFFFFFF8
FFFFFFF800FFFFFFF8
FFFFFFF800FFFFFFF8
FFFFFFF800FFFFFFF8
FFFFFFF800FFFFFFF8
FFFFFFF800FFFFFFF8
FFFFFFF800FFFFFFF8
FFFFFFF800FFFFFFF8
FFFFFFF800FFFFFFF8
FFFFFFF800FFFFFFF8
FFFFFFF800FFFFFFF8
FFFFFFF800FFFFFFF8
FFFFFFF800FFFFFFF8
FFFFFFF800FFFFFFF8
FFFFFFF800FFFFFFF8
FFFFFFF800FFFFFFF8
FFFFFFF800FFFFFFF8
FFFFFFF800FFFFFFF8
FFFFFFF800FFFFFFF8
FFFFFFF800FFFFFFF8
FFFFFFF800FFFFFFF8
FFFFFFF800FFFFFFF8
FFFFFFF800FFFFFFF8
FFFFFFF800FFFFFFF8
FFFFFFF800FFFFFFF8
FFFFFFF800FFFFFFF8
FFFFFFF800FFFFFFF8
FFFFFFF800FFFFFFF8
FFFFFFF800FFFFFFF8
FFFFFFF800FFFFFFF8
FFFFFFF800FFFFFFF8
FFFFFFF800FFFFFFF8
FFFFFFF800FFFFFFF8
FFFFFFF800FFFFFFF8
FFFFFFF800FFFFFFF8
FFFFFFF800FFFFFFF8
FFFFFFF800FFFFFFF8
FFFFFFF800FFFFFFF8
FFFFFFFC01FFFFFFF8
FFFFFFFC01FFFFFFF8
FFFFFFFE01FFFFFFF8
FFFFFFFE03FFFFFFF0
FFFFFFFF8FFFFFFFF0
7FFFFFFFFFFFFFFFF0
7FFFFFFFFFFFFFFFF0
7FFFFFFFFFFFFFFFF0
7FFFFFFFFFFFFFFFF0
7FFFFFFFFFFFFFFFF0
7FFFFFFFFFFFFFFFE0
3FFFFFFFFFFFFFFFE0
3FFFFFFFFFFFFFFFE0
3FFFFFFFFFFFFFFFE0
3FFFFFFFFFFFFFFFC0
1FFFFFFFFFFFFFFFC0
1FFFFFFFFFFFFFFFC0
0FFFFFFFFFFFFFFF80
0FFFFFFFFFFFFFFF80
07FFFFFFFFFFFFFF00
03FFFFFFFFFFFFFE00
01FFFFFFFFFFFFFC00
00FFFFFFFFFFFFF000
003FFFFFFFFFFFE000
000FFFFFFFFFFF0000
0000FFFFFFFFF00000
000007FFFFC0000000
000001FFFFF0000000
000000FFFFF8000000
0000007FFFFE000000
0000003FFFFFFF0000
0000001FFFFFFFFF80
0000000FFFFFFFFF80
00000007FFFFFFFF00
00000003FFFFFFFF00
00000000FFFFFFFE00
000000007FFFFFFC00
000000003FFFFFFC00
000000001FFFFFF800
0000000007FFFFF800
0000000003FFFFF000
0000000000FFFFF000
00000000007FFFE000
00000000001FFFC000
000000000007FFC000
000000000001FF8000
0000000000003F8000
000000000000070000
ENDCHAR
STARTCHAR 0052
ENCODING 82
SWIDTH 387 0
DWIDTH 86 0
BBX 69 182 9 -1
BITMAP
FFFFFFFFFFFC000000
FFFFFFFFFFFFF00000
FFFFFFFFFFFFFF0000
FFFFFFFFFFFFFFC000
FFFFFFFFFFFFFFF000
FFFFFFFFFFFFFFFC00
FFFFFFFFFFFFFFFE00
FFFFFFFFFFFFFFFE00
FFFFFFFFFFFFFFFF00
FFFFFFFFFFFFFFFF80
FFFFFFFFFFFFFFFF80
FFFFFFFFFFFFFFFFC0
FFFFFFFFFFFFFFFFC0
FFFFFFFFFFFFFFFFC0
FFFFFFFFFFFFFFFFE0
FFFFFFFFFFFFFFFFE0
FFFFFFFFFFFFFFFFE0
FFFFFFFFFFFFFFFFE0
FFFFFFFFFFFFFFFFF0
FFFFFFFFFFFFFFFFF0
FFFFFFFFFFFFFFFFF0
FFFFFFF80FFFFFFFF0
FFFFFFF803FFFFFFF0
FFFFFFF801FFFFFFF0
FFFFFFF801FFFFFFF0
FFFFFFF801FFFFFFF0
FFFFFFF801FFFFFFF8
FFFFFFF800FFFFFFF8
FFFFFFF800FFFFFFF8
FFFFFFF800FFFFFFF8
FFFFFFF800FFFFFFF8
FFFFFFF800FFFFFFF8
FFFFFFF800FFFFFFF8
FFFFFFF800FFFFFFF8
FFFFFFF800FFFFFFF8
FFFFFFF800FFFFFFF8
FFFFFFF800FFFFFFF8
FFFFFFF800FFFFFFF8
FFFFFFF800FFFFFFF8
FFFFFFF800FFFFFFF8
FFFFFFF800FFFFFFF8
FFFFFFF800FFFFFFF8
FFFFFFF800FFFFFFF8
FFFFFFF800FFFFFFF8
FFFFFFF800FFFFFFF8
FFFFFFF800FFFFFFF8
FFFFFFF800FFFFFFF8
FFFFFFF800FFFFFFF8
FFFFFFF800FFFFFFF8
FFFFFFF800FFFFFFF8
FFFFFFF800FFFFFFF8
FFFFFFF800FFFFFFF8
FFFFFFF800FFFFFFF8
FFFFFFF800FFFFFFF8
FFFFFFF800FFFFFFF8
FFFFFFF800FFFFFFF8
FFFFFFF800FFFFFFF8
FFFFFFF800FFFFFFF8
FFFFFFF800FFFFFFF8
FFFFFFF800FFFFFFF8
FFFFFFF800FFFFFFF8
FFFFFFF800FFFFFFF8
FFFFFFF800FFFFFFF8
FFFFFFF800FFFFFFF8
FFFFFFF800FFFFFFF8
FFFFFFF800FFFFFFF8
FFFFFFF800FFFFFFF8
FFFFFFF800FFFFFFF8
FFFFFFF800FFFFFFF8
FFFFFFF800FFFFFFF8
FFFFFFF800FFFFFFF8
FFFFFFF800FFFFFFF0
FFFFFFF800FFFFFFF0
FFFFFFF800FFFFFFF0
FFFFFFF800FFFFFFF0
FFFFFFF801FFFFFFF0
FFFFFFF801FFFFFFF0
FFFFFFF801FFFFFFF0
FFFFFFF803FFFFFFE0
FFFFFFF807FFFFFFE0
FFFFFFFFFFFFFFFFE0
FFFFFFFFFFFFFFFFC0
FFFFFFFFFFFFFFFFC0
FFFFFFFFFFFFFFFF80
FFFFFFFFFFFFFFFF00
FFFFFFFFFFFFFFFE00
FFFFFFFFFFFFFFFC00
FFFFFFFFFFFFFFF800
FFFFFFFFFFFFFFF000
FFFFFFFFFFFFFFC000
FFFFFFFFFFFFFF8000
FFFFFFFFFFFFFE0000
FFFFFFFFFFFFF80000
FFFFFFFFFFFFFF0000
FFFFFFFFFFFFFFC000
FFFFFFFFFFFFFFE000
FFFFFFFFFFFFFFF800
FFFFFFFFFFFFFFFC00
FFFFFFFFFFFFFFFE00
FFFFFFFFFFFFFFFF00
FFFFFFFFFFFFFFFF80
FFFFFFFFFFFFFFFF80
FFFFFFFFFFFFFFFFC0
FFFFFFFFFFFFFFFFC0
FFFFFFFFFFFFFFFFE0
FFFFFFF81FFFFFFFE0
FFFFFFF807FFFFFFE0
FFFFFFF803FFFFFFF0
FFFFFFF801FFFFFFF0
FFFFFFF801FFFFFFF0
FFFFFFF801FFFFFFF0
FFFFFFF800FFFFFFF0
FFFFFFF800FFFFFFF0
FFFFFFF800FFFFFFF8
FFFFFFF800FFFFFFF8
FFFFFFF800FFFFFFF8
FFFFFFF800FFFFFFF8
FFFFFFF800FFFFFFF8
FFFFFFF800FFFFFFF8
FFFFFFF800FFFFFFF8
FFFFFFF800FFFFFFF8
FFFFFFF800FFFFFFF8
FFFFFFF800FFFFFFF8
FFFFFFF800FFFFFFF8
FFFFFFF800FFFFFFF8
FFFFFFF800FFFFFFF8
FFFFFFF800FFFFFFF8
FFFFFFF800FFFFFFF8
FFFFFFF800FFFFFFF8
FFFFFFF800FFFFFFF8
FFFFFFF800FFFFFFF8
FFFFFFF800FFFFFFF8
FFFFFFF800FFFFFFF8
FFFFFFF800FFFFFFF8
FFFFFFF800FFFFFFF8
FFFFFFF800FFFFFFF8
FFFFFFF800FFFFFFF8
FFFFFFF800FFFFFFF8
FFFFFFF800FFFFFFF8
FFFFFFF800FFFFFFF8
FFFFFFF800FFFFFFF8
FFFFFFF800FFFFFFF8
FFFFFFF800FFFFFFF8
FFFFFFF800FFFFFFF8
FFFFFFF800FFFFFFF8
FFFFFFF800FFFFFFF8
FFFFFFF800FFFFFFF8
FFFFFFF800FFFFFFF8
FFFFFFF800FFFFFFF8
FFFFFFF800FFFFFFF8
FFFFFFF800FFFFFFF8
FFFFFFF800FFFFFFF8
FFFFFFF800FFFFFFF8
FFFFFFF800FFFFFFF8
FFFFFFF800FFFFFFF8
FFFFFFF800FFFFFFF8
FFFFFFF800FFFFFFF8
FFFFFFF800FFFFFFF8
FFFFFFF800FFFFFFF8
FFFFFFF800FFFFFFF8
FFFFFFF800FFFFFFF8
FFFFFFF800FFFFFFF8
FFFFFFF800FFFFFFF8
FFFFFFF800FFFFFFF8
FFFFFFF800FFFFFFF8
FFFFFFF800FFFFFFF8
FFFFFFF800FFFFFFF8
FFFFFFF800FFFFFFF8
FFFFFFF800FFFFFFF8
FFFFFFF800FFFFFFF8
FFFFFFF800FFFFFFF8
FFFFFFF800FFFFFFF8
FFFFFFF800FFFFFFF8
FFFFFFF800FFFFFFF8
FFFFFFF800FFFFFFF8
FFFFFFF800FFFFFFF8
FFFFFFF800FFFFFFF8
FFFFFFF800FFFFFFF8
FFFFFFF800FFFFFFF8
FFFFFFF800FFFFFFF8
FFFFFFF800FFFFFFF8
FFFFFFF800FFFFFFF8
ENDCHAR
STARTCHAR 0053
ENCODING 83
SWIDTH 387 0
DWIDTH 86 0
BBX 69 182 8 -1
BITMAP
000001FFFFFC000000
0000FFFFFFFFF80000
0007FFFFFFFFFF8000
003FFFFFFFFFFFE000
00FFFFFFFFFFFFF800
01FFFFFFFFFFFFFE00
03FFFFFFFFFFFFFF00
07FFFFFFFFFFFFFF00
0FFFFFFFFFFFFFFF80
0FFFFFFFFFFFFFFF80
1FFFFFFFFFFFFFFFC0
1FFFFFFFFFFFFFFFC0
1FFFFFFFFFFFFFFFE0
3FFFFFFFFFFFFFFFE0
3FFFFFFFFFFFFFFFE0
3FFFFFFFFFFFFFFFE0
7FFFFFFFFFFFFFFFF0
7FFFFFFFFFFFFFFFF0
7FFFFFFFFFFFFFFFF0
7FFFFFFFFFFFFFFFF0
7FFFFFFFFFFFFFFFF0
7FFFFFFF0FFFFFFFF0
7FFFFFFE03FFFFFFF0
FFFFFFFC01FFFFFFF8
FFFFFFFC01FFFFFFF8
FFFFFFF800FFFFFFF8
FFFFFFF800FFFFFFF8
FFFFFFF800FFFFFFF8
FFFFFFF800FFFFFFF8
FFFFFFF800FFFFFFF8
FFFFFFF800FFFFFFF8
FFFFFFF800FFFFFFF8
FFFFFFF800FFFFFFF8
FFFFFFF800FFFFFFF8
FFFFFFF800FFFFFFF8
FFFFFFF800FFFFFFF8
FFFFFFF800FFFFFFF8
FFFFFFF800FFFFFFF8
FFFFFFF800FFFFFFF8
FFFFFFF800FFFFFFF8
FFFFFFF800FFFFFFF8
FFFFFFF800FFFFFFF8
FFFFFFF800FFFFFFF8
FFFFFFF800FFFFFFF8
FFFFFFF800FFFFFFF8
FFFFFFF800FFFFFFF8
FFFFFFF800FFFFFFF8
FFFFFFF800FFFFFFF8
FFFFFFF800FFFFFFF8
FFFFFFF800FFFFFFF8
FFFFFFF800FFFFFFF8
FFFFFFF800FFFFFFF8
FFFFFFF800FFFFFFF8
FFFFFFF800FFFFFFF8
FFFFFFF800FFFFFFF8
FFFFFFF800FFFFFFF8
FFFFFFF800FFFFFFF8
FFFFFFF800FFFFFFF8
FFFFFFF800FFFFFFF8
FFFFFFF800FFFFFFF8
FFFFFFF800FFFFFFF8
FFFFFFF800FFFFFFF8
FFFFFFF80000000000
FFFFFFFC0000000000
FFFFFFFC0000000000
FFFFFFFC0000000000
FFFFFFFE0000000000
FFFFFFFF0000000000
7FFFFFFF8000000000
7FFFFFFFC000000000
7FFFFFFFE000000000
7FFFFFFFF800000000
7FFFFFFFFC00000000
3FFFFFFFFF00000000
3FFFFFFFFFC0000000
3FFFFFFFFFF0000000
1FFFFFFFFFF8000000
1FFFFFFFFFFE000000
0FFFFFFFFFFF800000
0FFFFFFFFFFFC00000
07FFFFFFFFFFF00000
03FFFFFFFFFFFC0000
01FFFFFFFFFFFF0000
00FFFFFFFFFFFF8000
007FFFFFFFFFFFE000
003FFFFFFFFFFFF000
001FFFFFFFFFFFF800
000FFFFFFFFFFFFC00
0003FFFFFFFFFFFE00
0000FFFFFFFFFFFF00
00003FFFFFFFFFFF80
00001FFFFFFFFFFF80
000007FFFFFFFFFFC0
000001FFFFFFFFFFC0
000000FFFFFFFFFFE0
0000003FFFFFFFFFE0
0000000FFFFFFFFFE0
00000003FFFFFFFFF0
00000001FFFFFFFFF0
000000007FFFFFFFF0
000000003FFFFFFFF0
000000000FFFFFFFF0
0000000007FFFFFFF8
0000000003FFFFFFF8
0000000001FFFFFFF8
0000000001FFFFFFF8
0000000001FFFFFFF8
0000000000FFFFFFF8
FFFFFFF800FFFFFFF8
FFFFFFF800FFFFFFF8
FFFFFFF800FFFFFFF8
FFFFFFF800FFFFFFF8
FFFFFFF800FFFFFFF8
FFFFFFF800FFFFFFF8
FFFFFFF800FFFFFFF8
FFFFFFF800FFFFFFF8
FFFFFFF800FFFFFFF8
FFFFFFF800FFFFFFF8
FFFFFFF800FFFFFFF8
FFFFFFF800FFFFFFF8
FFFFFFF800FFFFFFF8
FFFFFFF800FFFFFFF8
FFFFFFF800FFFFFFF8
FFFFFFF800FFFFFFF8
FFFFFFF800FFFFFFF8
FFFFFFF800FFFFFFF8
FFFFFFF800FFFFFFF8
FFFFFFF800FFFFFFF8
FFFFFFF800FFFFFFF8
FFFFFFF800FFFFFFF8
FFFFFFF800FFFFFFF8
FFFFFFF800FFFFFFF8
FFFFFFF800FFFFFFF8
FFFFFFF800FFFFFFF8
FFFFFFF800FFFFFFF8
FFFFFFF800FFFFFFF8
FFFFFFF800FFFFFFF8
FFFFFFF800FFFFFFF8
FFFFFFF800FFFFFFF8
FFFFFFF800FFFFFFF8
FFFFFFF800FFFFFFF8
FFFFFFF800FFFFFFF8
FFFFFFF800FFFFFFF8
FFFFFFF800FFFFFFF8
FFFFFFF800FFFFFFF8
FFFFFFF800FFFFFFF8
FFFFFFF800FFFFFFF8
FFFFFFF800FFFFFFF8
FFFFFFF800FFFFFFF8
FFFFFFF800FFFFFFF8
FFFFFFF800FFFFFFF8
FFFFFFF800FFFFFFF8
FFFFFFF800FFFFFFF8
FFFFFFF800FFFFFFF8
FFFFFFF800FFFFFFF8
FFFFFFF800FFFFFFF8
FFFFFFFC01FFFFFFF8
FFFFFFFC01FFFFFFF8
FFFFFFFE03FFFFFFF8
7FFFFFFF87FFFFFFF0
7FFFFFFFFFFFFFFFF0
7FFFFFFFFFFFFFFFF0
7FFFFFFFFFFFFFFFF0
7FFFFFFFFFFFFFFFF0
7FFFFFFFFFFFFFFFF0
3FFFFFFFFFFFFFFFF0
3FFFFFFFFFFFFFFFE0
3FFFFFFFFFFFFFFFE0
3FFFFFFFFFFFFFFFE0
1FFFFFFFFFFFFFFFE0
1FFFFFFFFFFFFFFFC0
1FFFFFFFFFFFFFFFC0
0FFFFFFFFFFFFFFFC0
0FFFFFFFFFFFFFFF80
07FFFFFFFFFFFFFF00
03FFFFFFFFFFFFFF00
01FFFFFFFFFFFFFE00
00FFFFFFFFFFFFFC00
003FFFFFFFFFFFF000
0007FFFFFFFFFF8000
00007FFFFFFFF80000
000001FFFFFC000000
ENDCHAR
STARTCHAR 0054
ENCODING 84
SWIDTH 292 0
DWIDTH 65 0
BBX 59 182 3 -1
BITMAP
FFFFFFFFFFFFFFE0
FFFFFFFFFFFFFFE0
FFFFFFFFFFFFFFE0
FFFFFFFFFFFFFFE0
FFFFFFFFFFFFFFE0
FFFFFFFFFFFFFFE0
FFFFFFFFFFFFFFE0
FFFFFFFFFFFFFFE0
FFFFFFFFFFFFFFE0
FFFFFFFFFFFFFFE0
FFFFFFFFFFFFFFE0
FFFFFFFFFFFFFFE0
FFFFFFFFFFFFFFE0
FFFFFFFFFFFFFFE0
FFFFFFFFFFFFFFE0
FFFFFFFFFFFFFFE0
FFFFFFFFFFFFFFE0
FFFFFFFFFFFFFFE0
FFFFFFFFFFFFFFE0
FFFFFFFFFFFFFFE0
FFFFFFFFFFFFFFE0
0001FFFFFFF00000
0001FFFFFFF00000
0001FFFFFFF00000
0001FFFFFFF00000
0001FFFFFFF00000
0001FFFFFFF00000
0001FFFFFFF00000
0001FFFFFFF00000
0001FFFFFFF00000
0001FFFFFFF00000
0001FFFFFFF00000
0001FFFFFFF00000
0001FFFFFFF00000
0001FFFFFFF00000
0001FFFFFFF00000
0001FFFFFFF00000
0001FFFFFFF00000
0001FFFFFFF00000
0001FFFFFFF00000
0001FFFFFFF00000
0001FFFFFFF00000
0001FFFFFFF00000
0001FFFFFFF00000
0001FFFFFFF00000
0001FFFFFFF00000
0001FFFFFFF00000
0001FFFFFFF00000
0001FFFFFFF00000
0001FFFFFFF00000
0001FFFFFFF00000
0001FFFFFFF00000
0001FFFFFFF00000
0001FFFFFFF00000
0001FFFFFFF00000
0001FFFFFFF00000
0001FFFFFFF00000
0001FFFFFFF00000
0001FFFFFFF00000
0001FFFFFFF00000
0001FFFFFFF00000
0001FFFFFFF00000
0001FFFFFFF00000
0001FFFFFFF00000
0001FFFFFFF00000
0001FFFFFFF00000
0001FFFFFFF00000
0001FFFFFFF00000
0001FFFFFFF00000
0001FFFFFFF00000
0001FFFFFFF00000
0001FFFFFFF00000
0001FFFFFFF00000
0001FFFFFFF00000
0001FFFFFFF00000
0001FFFFFFF00000
0001FFFFFFF00000
0001FFFFFFF00000
0001FFFFFFF00000
0001FFFFFFF00000
0001FFFFFFF00000
0001FFFFFFF00000
0001FFFFFFF00000
0001FFFFFFF00000
0001FFFFFFF00000
0001FFFFFFF00000
0001FFFFFFF00000
0001FFFFFFF00000
0001FFFFFFF00000
0001FFFFFFF00000
0001FFFFFFF00000
0001FFFFFFF00000
0001FFFFFFF00000
0001FFFFFFF00000
0001FFFFFFF00000
0001FFFFFFF00000
0001FFFFFFF00000
0001FFFFFFF00000
0001FFFFFFF00000
0001FFFFFFF00000
0001FFFFFFF00000
0001FFFFFFF00000
0001FFFFFFF00000
0001FFFFFFF00000
0001FFFFFFF00000
0001FFFFFFF00000
0001FFFFFFF00000
0001FFFFFFF00000
0001FFFFFFF00000
0001FFFFFFF00000
0001FFFFFFF00000
0001FFFFFFF00000
0001FFFFFFF00000
0001FFFFFFF00000
0001FFFFFFF00000
0001FFFFFFF00000
0001FFFFFFF00000
0001FFFFFFF00000
0001FFFFFFF00000
0001FFFFFFF00000
0001FFFFFFF00000
0001FFFFFFF00000
0001FFFFFFF00000
0001FFFFFFF00000
0001FFFFFFF00000
0001FFFFFFF00000
0001FFFFFFF00000
0001FFFFFFF00000
0001FFFFFFF00000
0001FFFFFFF00000
0001FFFFFFF00000
0001FFFFFFF00000
0001FFFFFFF00000
0001FFFFFFF00000
0001FFFFFFF00000
0001FFFFFFF00000
0001FFFFFFF00000
0001FFFFFFF00000
0001FFFFFFF00000
0001FFFFFFF00000
0001FFFFFFF00000
0001FFFFFFF00000
0001FFFFFFF00000
0001FFFFFFF00000
0001FFFFFFF00000
0001FFFFFFF00000
0001FFFFFFF00000
0001FFFFFFF00000
0001FFFFFFF00000
0001FFFFFFF00000
0001FFFFFFF00000
0001FFFFFFF00000
0001FFFFFFF00000
0001FFFFFFF00000
0001FFFFFFF00000
0001FFFFFFF00000
0001FFFFFFF00000
0001FFFFFFF00000
0001FFFFFFF00000
0001FFFFFFF00000
0001FFFFFFF00000
0001FFFFFFF00000
0001FFFFFFF00000
0001FFFFFFF00000
0001FFFFFFF00000
0001FFFFFFF00000
0001FFFFFFF00000
0001FFFFFFF00000
0001FFFFFFF00000
0001FFFFFFF00000
0001FFFFFFF00000
0001FFFFFFF00000
0001FFFFFFF00000
0001FFFFFFF00000
0001FFFFFFF00000
0001FFFFFFF00000
0001FFFFFFF00000
0001FFFFFFF00000
0001FFFFFFF00000
0001FFFFFFF00000
0001FFFFFFF00000
0001FFFFFFF00000
ENDCHAR
STARTCHAR 0055
ENCODING 85
SWIDTH 387 0
DWIDTH 86 0
BBX 69 182 8 -1
BITMAP
FFFFFFF800FFFFFFF8
FFFFFFF800FFFFFFF8
FFFFFFF800FFFFFFF8
FFFFFFF800FFFFFFF8
FFFFFFF800FFFFFFF8
FFFFFFF800FFFFFFF8
FFFFFFF800FFFFFFF8
FFFFFFF800FFFFFFF8
FFFFFFF800FFFFFFF8
FFFFFFF800FFFFFFF8
FFFFFFF800FFFFFFF8
FFFFFFF800FFFFFFF8
FFFFFFF800FFFFFFF8
FFFFFFF800FFFFFFF8
FFFFFFF800FFFFFFF8
FFFFFFF800FFFFFFF8
FFFFFFF800FFFFFFF8
FFFFFFF800FFFFFFF8
FFFFFFF800FFFFFFF8
FFFFFFF800FFFFFFF8
FFFFFFF800FFFFFFF8
FFFFFFF800FFFFFFF8
FFFFFFF800FFFFFFF8
FFFFFFF800FFFFFFF8
FFFFFFF800FFFFFFF8
FFFFFFF800FFFFFFF8
FFFFFFF800FFFFFFF8
FFFFFFF800FFFFFFF8
FFFFFFF800FFFFFFF8
FFFFFFF800FFFFFFF8
FFFFFFF800FFFFFFF8
FFFFFFF800FFFFFFF8
FFFFFFF800FFFFFFF8
FFFFFFF800FFFFFFF8
FFFFFFF800FFFFFFF8
FFFFFFF800FFFFFFF8
FFFFFFF800FFFFFFF8
FFFFFFF800FFFFFFF8
FFFFFFF800FFFFFFF8
FFFFFFF800FFFFFFF8
FFFFFFF800FFFFFFF8
FFFFFFF800FFFFFFF8
FFFFFFF800FFFFFFF8
FFFFFFF800FFFFFFF8
FFFFFFF800FFFFFFF8
FFFFFFF800FFFFFFF8
FFFFFFF800FFFFFFF8
FFFFFFF800FFFFFFF8
FFFFFFF800FFFFFFF8
FFFFFFF800FFFFFFF8
FFFFFFF800FFFFFFF8
FFFFFFF800FFFFFFF8
FFFFFFF800FFFFFFF8
FFFFFFF800FFFFFFF8
FFFFFFF800FFFFFFF8
FFFFFFF800FFFFFFF8
FFFFFFF800FFFFFFF8
FFFFFFF800FFFFFFF8
FFFFFFF800FFFFFFF8
FFFFFFF800FFFFFFF8
FFFFFFF800FFFFFFF8
FFFFFFF800FFFFFFF8
FFFFFFF800FFFFFFF8
FFFFFFF800FFFFFFF8
FFFFFFF800FFFFFFF8
FFFFFFF800FFFFFFF8
FFFFFFF800FFFFFFF8
FFFFFFF800FFFFFFF8
FFFFFFF800FFFFFFF8
FFFFFFF800FFFFFFF8
FFFFFFF800FFFFFFF8
FFFFFFF800FFFFFFF8
FFFFFFF800FFFFFFF8
FFFFFFF800FFFFFFF8
FFFFFFF800FFFFFFF8
FFFFFFF800FFFFFFF8
FFFFFFF800FFFFFFF8
FFFFFFF800FFFFFFF8
FFFFFFF800FFFFFFF8
FFFFFFF800FFFFFFF8
FFFFFFF800FFFFFFF8
FFFFFFF800FFFFFFF8
FFFFFFF800FFFFFFF8
FFFFFFF800FFFFFFF8
FFFFFFF800FFFFFFF8
FFFFFFF800FFFFFFF8
FFFFFFF800FFFFFFF8
FFFFFFF800FFFFFFF8
FFFFFFF800FFFFFFF8
FFFFFFF800FFFFFFF8
FFFFFFF800FFFFFFF8
FFFFFFF800FFFFFFF8
FFFFFFF800FFFFFFF8
FFFFFFF800FFFFFFF8
FFFFFFF800FFFFFFF8
FFFFFFF800FFFFFFF8
FFFFFFF800FFFFFFF8
FFFFFFF800FFFFFFF8
FFFFFFF800FFFFFFF8
FFFFFFF800FFFFFFF8
FFFFFFF800FFFFFFF8
FFFFFFF800FFFFFFF8
FFFFFFF800FFFFFFF8
FFFFFFF800FFFFFFF8
FFFFFFF800FFFFFFF8
FFFFFFF800FFFFFFF8
FFFFFFF800FFFFFFF8
FFFFFFF800FFFFFFF8
FFFFFFF800FFFFFFF8
FFFFFFF800FFFFFFF8
FFFFFFF800FFFFFFF8
FFFFFFF800FFFFFFF8
FFFFFFF800FFFFFFF8
FFFFFFF800FFFFFFF8
FFFFFFF800FFFFFFF8
FFFFFFF800FFFFFFF8
FFFFFFF800FFFFFFF8
FFFFFFF800FFFFFFF8
FFFFFFF800FFFFFFF8
FFFFFFF800FFFFFFF8
FFFFFFF800FFFFFFF8
FFFFFFF800FFFFFFF8
FFFFFFF800FFFFFFF8
FFFFFFF800FFFFFFF8
FFFFFFF800FFFFFFF8
FFFFFFF800FFFFFFF8
FFFFFFF800FFFFFFF8
FFFFFFF800FFFFFFF8
FFFFFFF800FFFFFFF8
FFFFFFF800FFFFFFF8
FFFFFFF800FFFFFFF8
FFFFFFF800FFFFFFF8
FFFFFFF800FFFFFFF8
FFFFFFF800FFFFFFF8
FFFFFFF800FFFFFFF8
FFFFFFF800FFFFFFF8
FFFFFFF800FFFFFFF8
FFFFFFF800FFFFFFF8
FFFFFFF800FFFFFFF8
FFFFFFF800FFFFFFF8
FFFFFFF800FFFFFFF8
FFFFFFF800FFFFFFF8
FFFFFFF800FFFFFFF8
FFFFFFF800FFFFFFF8
FFFFFFF800FFFFFFF8
FFFFFFF800FFFFFFF8
FFFFFFF800FFFFFFF8
FFFFFFF800FFFFFFF8
FFFFFFF800FFFFFFF8
FFFFFFF800FFFFFFF8
FFFFFFF800FFFFFFF8
FFFFFFF800FFFFFFF8
FFFFFFF800FFFFFFF8
FFFFFFF800FFFFFFF8
FFFFFFF800FFFFFFF8
FFFFFFFC00FFFFFFF8
FFFFFFFC00FFFFFFF8
7FFFFFFE01FFFFFFF8
7FFFFFFE03FFFFFFF8
7FFFFFFF87FFFFFFF8
7FFFFFFFFFFFFFFFF0
7FFFFFFFFFFFFFFFF0
7FFFFFFFFFFFFFFFF0
7FFFFFFFFFFFFFFFF0
7FFFFFFFFFFFFFFFF0
3FFFFFFFFFFFFFFFF0
3FFFFFFFFFFFFFFFE0
3FFFFFFFFFFFFFFFE0
3FFFFFFFFFFFFFFFE0
1FFFFFFFFFFFFFFFE0
1FFFFFFFFFFFFFFFC0
0FFFFFFFFFFFFFFFC0
0FFFFFFFFFFFFFFF80
07FFFFFFFFFFFFFF80
07FFFFFFFFFFFFFF00
03FFFFFFFFFFFFFF00
01FFFFFFFFFFFFFE00
007FFFFFFFFFFFF800
003FFFFFFFFFFFE000
0007FFFFFFFFFF8000
00007FFFFFFFF80000
000000FFFFFC000000
ENDCHAR
STARTCHAR 0056
ENCODING 86
SWIDTH 351 0
DWIDTH 78 0
BBX 72 182 3 -1
BITMAP
FFFFFFF00007FFFFFF
FFFFFFF00007FFFFFF
7FFFFFF00007FFFFFF
7FFFFFF00007FFFFFF
7FFFFFF00007FFFFFF
7FFFFFF00007FFFFFE
7FFFFFF00007FFFFFE
7FFFFFF00007FFFFFE
7FFFFFF0000FFFFFFE
7FFFFFF0000FFFFFFE
7FFFFFF0000FFFFFFE
7FFFFFF0000FFFFFFE
3FFFFFF0000FFFFFFE
3FFFFFF8000FFFFFFE
3FFFFFF8000FFFFFFE
3FFFFFF8000FFFFFFC
3FFFFFF8000FFFFFFC
3FFFFFF8000FFFFFFC
3FFFFFF8000FFFFFFC
3FFFFFF8000FFFFFFC
3FFFFFF8000FFFFFFC
1FFFFFF8000FFFFFFC
1FFFFFF8000FFFFFFC
1FFFFFF8000FFFFFFC
1FFFFFF8000FFFFFF8
1FFFFFF8001FFFFFF8
1FFFFFF8001FFFFFF8
1FFFFFF8001FFFFFF8
1FFFFFF8001FFFFFF8
1FFFFFF8001FFFFFF8
1FFFFFF8001FFFFFF8
0FFFFFF8001FFFFFF8
0FFFFFFC001FFFFFF8
0FFFFFFC001FFFFFF8
0FFFFFFC001FFFFFF0
0FFFFFFC001FFFFFF0
0FFFFFFC001FFFFFF0
0FFFFFFC001FFFFFF0
0FFFFFFC001FFFFFF0
0FFFFFFC001FFFFFF0
07FFFFFC001FFFFFF0
07FFFFFC001FFFFFF0
07FFFFFC003FFFFFF0
07FFFFFC003FFFFFE0
07FFFFFC003FFFFFE0
07FFFFFC003FFFFFE0
07FFFFFC003FFFFFE0
07FFFFFC003FFFFFE0
07FFFFFC003FFFFFE0
07FFFFFC003FFFFFE0
03FFFFFE003FFFFFE0
03FFFFFE003FFFFFE0
03FFFFFE003FFFFFE0
03FFFFFE003FFFFFC0
03FFFFFE003FFFFFC0
03FFFFFE003FFFFFC0
03FFFFFE003FFFFFC0
03FFFFFE003FFFFFC0
03FFFFFE007FFFFFC0
03FFFFFE007FFFFFC0
01FFFFFE007FFFFFC0
01FFFFFE007FFFFFC0
01FFFFFE007FFFFF80
01FFFFFE007FFFFF80
01FFFFFE007FFFFF80
01FFFFFE007FFFFF80
01FFFFFE007FFFFF80
01FFFFFE007FFFFF80
01FFFFFE007FFFFF80
00FFFFFF007FFFFF80
00FFFFFF007FFFFF80
00FFFFFF007FFFFF80
00FFFFFF007FFFFF00
00FFFFFF007FFFFF00
00FFFFFF007FFFFF00
00FFFFFF00FFFFFF00
00FFFFFF00FFFFFF00
00FFFFFF00FFFFFF00
00FFFFFF00FFFFFF00
007FFFFF00FFFFFF00
007FFFFF00FFFFFF00
007FFFFF00FFFFFE00
007FFFFF00FFFFFE00
007FFFFF00FFFFFE00
007FFFFF00FFFFFE00
007FFFFF00FFFFFE00
007FFFFF00FFFFFE00
007FFFFF00FFFFFE00
003FFFFF80FFFFFE00
003FFFFF80FFFFFE00
003FFFFF80FFFFFE00
003FFFFF80FFFFFC00
003FFFFF81FFFFFC00
003FFFFF81FFFFFC00
003FFFFF81FFFFFC00
003FFFFF81FFFFFC00
003FFFFF81FFFFFC00
003FFFFF81FFFFFC00
001FFFFF81FFFFFC00
001FFFFF81FFFFFC00
001FFFFF81FFFFFC00
001FFFFF81FFFFF800
001FFFFF81FFFFF800
001FFFFF81FFFFF800
001FFFFF81FFFFF800
001FFFFF81FFFFF800
001FFFFFC1FFFFF800
000FFFFFC1FFFFF800
000FFFFFC1FFFFF800
000FFFFFC3FFFFF800
000FFFFFC3FFFFF000
000FFFFFC3FFFFF000
000FFFFFC3FFFFF000
000FFFFFC3FFFFF000
000FFFFFC3FFFFF000
000FFFFFC3FFFFF000
000FFFFFC3FFFFF000
0007FFFFC3FFFFF000
0007FFFFC3FFFFF000
0007FFFFC3FFFFF000
0007FFFFC3FFFFE000
0007FFFFC3FFFFE000
0007FFFFC3FFFFE000
0007FFFFC3FFFFE000
0007FFFFC3FFFFE000
0007FFFFFFFFFFE000
0003FFFFFFFFFFE000
0003FFFFFFFFFFE000
0003FFFFFFFFFFE000
0003FFFFFFFFFFC000
0003FFFFFFFFFFC000
0003FFFFFFFFFFC000
0003FFFFFFFFFFC000
0003FFFFFFFFFFC000
0003FFFFFFFFFFC000
0003FFFFFFFFFFC000
0001FFFFFFFFFFC000
0001FFFFFFFFFFC000
0001FFFFFFFFFFC000
0001FFFFFFFFFF8000
0001FFFFFFFFFF8000
0001FFFFFFFFFF8000
0001FFFFFFFFFF8000
0001FFFFFFFFFF8000
0001FFFFFFFFFF8000
0000FFFFFFFFFF8000
0000FFFFFFFFFF8000
0000FFFFFFFFFF8000
0000FFFFFFFFFF0000
0000FFFFFFFFFF0000
0000FFFFFFFFFF0000
0000FFFFFFFFFF0000
0000FFFFFFFFFF0000
0000FFFFFFFFFF0000
0000FFFFFFFFFF0000
00007FFFFFFFFF0000
00007FFFFFFFFF0000
00007FFFFFFFFF0000
00007FFFFFFFFE0000
00007FFFFFFFFE0000
00007FFFFFFFFE0000
00007FFFFFFFFE0000
00007FFFFFFFFE0000
00007FFFFFFFFE0000
00007FFFFFFFFE0000
00003FFFFFFFFE0000
00003FFFFFFFFE0000
00003FFFFFFFFC0000
00003FFFFFFFFC0000
00003FFFFFFFFC0000
00003FFFFFFFFC0000
00003FFFFFFFFC0000
00003FFFFFFFFC0000
00003FFFFFFFFC0000
00001FFFFFFFFC0000
00001FFFFFFFFC0000
00001FFFFFFFFC0000
00001FFFFFFFF80000
00001FFFFFFFF80000
00001FFFFFFFF80000
00001FFFFFFFF80000
00001FFFFFFFF80000
ENDCHAR
STARTCHAR 0057
ENCODING 87
SWIDTH 522 0
DWIDTH 116 0
BBX 116 182 0 -1
BITMAP
FFFFFFE00003FFFFFE00007FFFFFF0
FFFFFFF00003FFFFFE00007FFFFFF0
FFFFFFF00003FFFFFE00007FFFFFF0
FFFFFFF00007FFFFFE00007FFFFFF0
FFFFFFF00007FFFFFE00007FFFFFF0
FFFFFFF00007FFFFFE00007FFFFFF0
FFFFFFF00007FFFFFE00007FFFFFF0
FFFFFFF00007FFFFFF00007FFFFFF0
FFFFFFF00007FFFFFF00007FFFFFF0
FFFFFFF00007FFFFFF00007FFFFFE0
7FFFFFF00007FFFFFF0000FFFFFFE0
7FFFFFF00007FFFFFF0000FFFFFFE0
7FFFFFF00007FFFFFF0000FFFFFFE0
7FFFFFF00007FFFFFF0000FFFFFFE0
7FFFFFF00007FFFFFF0000FFFFFFE0
7FFFFFF00007FFFFFF0000FFFFFFE0
7FFFFFF8000FFFFFFF0000FFFFFFE0
7FFFFFF8000FFFFFFF0000FFFFFFE0
7FFFFFF8000FFFFFFF0000FFFFFFE0
7FFFFFF8000FFFFFFF8000FFFFFFE0
3FFFFFF8000FFFFFFF8000FFFFFFC0
3FFFFFF8000FFFFFFF8000FFFFFFC0
3FFFFFF8000FFFFFFF8000FFFFFFC0
3FFFFFF8000FFFFFFF8000FFFFFFC0
3FFFFFF8000FFFFFFF8000FFFFFFC0
3FFFFFF8000FFFFFFF8000FFFFFFC0
3FFFFFF8000FFFFFFF8000FFFFFFC0
3FFFFFF8000FFFFFFF8000FFFFFFC0
3FFFFFF8000FFFFFFF8000FFFFFFC0
1FFFFFF8001FFFFFFF8000FFFFFFC0
1FFFFFF8001FFFFFFFC001FFFFFFC0
1FFFFFF8001FFFFFFFC001FFFFFF80
1FFFFFFC001FFFFFFFC001FFFFFF80
1FFFFFFC001FFFFFFFC001FFFFFF80
1FFFFFFC001FFFFFFFC001FFFFFF80
1FFFFFFC001FFFFFFFC001FFFFFF80
1FFFFFFC001FFFFFFFC001FFFFFF80
1FFFFFFC001FFFFFFFC001FFFFFF80
1FFFFFFC001FFFFFFFC001FFFFFF80
0FFFFFFC001FFFFFFFC001FFFFFF80
0FFFFFFC001FFFFFFFC001FFFFFF80
0FFFFFFC001FFFFFFFE001FFFFFF00
0FFFFFFC003FFFFFFFE001FFFFFF00
0FFFFFFC003FFFFFFFE001FFFFFF00
0FFFFFFC003FFFFFFFE001FFFFFF00
0FFFFFFC003FFFFFFFE001FFFFFF00
0FFFFFFC003FFFFFFFE001FFFFFF00
0FFFFFFE003FFFFFFFE001FFFFFF00
07FFFFFE003FFFFFFFE001FFFFFF00
07FFFFFE003FFFFFFFE003FFFFFF00
07FFFFFE003FFFFFFFE003FFFFFF00
07FFFFFE003FFFFFFFE003FFFFFF00
07FFFFFE003FFFFFFFE003FFFFFE00
07FFFFFE003FFFFFFFF003FFFFFE00
07FFFFFE003FFFFFFFF003FFFFFE00
07FFFFFE003FFFFFFFF003FFFFFE00
07FFFFFE007FFFFFFFF003FFFFFE00
07FFFFFE007FFFFFFFF003FFFFFE00
03FFFFFE007FFFFFFFF003FFFFFE00
03FFFFFE007FFFFFFFF003FFFFFE00
03FFFFFE007FFFFFFFF003FFFFFE00
03FFFFFE007FFFFFFFF003FFFFFE00
03FFFFFE007FFFFFFFF003FFFFFE00
03FFFFFF007FFFFFFFF003FFFFFC00
03FFFFFF007FFFFFFFF803FFFFFC00
03FFFFFF007FFFFFFFF803FFFFFC00
03FFFFFF007FFFFFFFF803FFFFFC00
01FFFFFF007FFFFFFFF803FFFFFC00
01FFFFFF007FFFFFFFF803FFFFFC00
01FFFFFF00FFFFFFFFF807FFFFFC00
01FFFFFF00FFFFFFFFF807FFFFFC00
01FFFFFF00FFFFFFFFF807FFFFFC00
01FFFFFF00FFFFFFFFF807FFFFFC00
01FFFFFF00FFFF87FFF807FFFFFC00
01FFFFFF00FFFF87FFF807FFFFF800
01FFFFFF00FFFF87FFFC07FFFFF800
01FFFFFF00FFFF87FFFC07FFFFF800
00FFFFFF00FFFF87FFFC07FFFFF800
00FFFFFF00FFFF87FFFC07FFFFF800
00FFFFFF80FFFF87FFFC07FFFFF800
00FFFFFF80FFFF87FFFC07FFFFF800
00FFFFFF80FFFF07FFFC07FFFFF800
00FFFFFF81FFFF07FFFC07FFFFF800
00FFFFFF81FFFF07FFFC07FFFFF800
00FFFFFF81FFFF03FFFC07FFFFF000
00FFFFFF81FFFF03FFFC07FFFFF000
00FFFFFF81FFFF03FFFC07FFFFF000
007FFFFF81FFFF03FFFE07FFFFF000
007FFFFF81FFFF03FFFE0FFFFFF000
007FFFFF81FFFF03FFFE0FFFFFF000
007FFFFF81FFFF03FFFE0FFFFFF000
007FFFFF81FFFF03FFFE0FFFFFF000
007FFFFF81FFFF03FFFE0FFFFFF000
007FFFFF81FFFF03FFFE0FFFFFF000
007FFFFFC1FFFE03FFFE0FFFFFF000
007FFFFFC3FFFE03FFFE0FFFFFE000
003FFFFFC3FFFE03FFFE0FFFFFE000
003FFFFFC3FFFE01FFFE0FFFFFE000
003FFFFFC3FFFE01FFFF0FFFFFE000
003FFFFFC3FFFE01FFFF0FFFFFE000
003FFFFFC3FFFE01FFFF0FFFFFE000
003FFFFFC3FFFE01FFFF0FFFFFE000
003FFFFFC3FFFE01FFFF0FFFFFE000
003FFFFFC3FFFE01FFFF0FFFFFE000
003FFFFFC3FFFE01FFFF0FFFFFE000
003FFFFFC3FFFE01FFFF0FFFFFE000
001FFFFFC3FFFC01FFFF0FFFFFC000
001FFFFFC3FFFC01FFFF0FFFFFC000
001FFFFFC7FFFC01FFFF1FFFFFC000
001FFFFFFFFFFC00FFFFFFFFFFC000
001FFFFFFFFFFC00FFFFFFFFFFC000
001FFFFFFFFFFC00FFFFFFFFFFC000
001FFFFFFFFFFC00FFFFFFFFFFC000
001FFFFFFFFFFC00FFFFFFFFFFC000
001FFFFFFFFFFC00FFFFFFFFFFC000
000FFFFFFFFFFC00FFFFFFFFFFC000
000FFFFFFFFFFC00FFFFFFFFFFC000
000FFFFFFFFFFC00FFFFFFFFFF8000
000FFFFFFFFFFC00FFFFFFFFFF8000
000FFFFFFFFFF800FFFFFFFFFF8000
000FFFFFFFFFF800FFFFFFFFFF8000
000FFFFFFFFFF8007FFFFFFFFF8000
000FFFFFFFFFF8007FFFFFFFFF8000
000FFFFFFFFFF8007FFFFFFFFF8000
000FFFFFFFFFF8007FFFFFFFFF8000
0007FFFFFFFFF8007FFFFFFFFF8000
0007FFFFFFFFF8007FFFFFFFFF8000
0007FFFFFFFFF8007FFFFFFFFF8000
0007FFFFFFFFF8007FFFFFFFFF0000
0007FFFFFFFFF8007FFFFFFFFF0000
0007FFFFFFFFF8007FFFFFFFFF0000
0007FFFFFFFFF0007FFFFFFFFF0000
0007FFFFFFFFF0007FFFFFFFFF0000
0007FFFFFFFFF0007FFFFFFFFF0000
0007FFFFFFFFF0003FFFFFFFFF0000
0003FFFFFFFFF0003FFFFFFFFF0000
0003FFFFFFFFF0003FFFFFFFFF0000
0003FFFFFFFFF0003FFFFFFFFF0000
0003FFFFFFFFF0003FFFFFFFFE0000
0003FFFFFFFFF0003FFFFFFFFE0000
0003FFFFFFFFF0003FFFFFFFFE0000
0003FFFFFFFFF0003FFFFFFFFE0000
0003FFFFFFFFF0003FFFFFFFFE0000
0003FFFFFFFFF0003FFFFFFFFE0000
0001FFFFFFFFE0003FFFFFFFFE0000
0001FFFFFFFFE0003FFFFFFFFE0000
0001FFFFFFFFE0001FFFFFFFFE0000
0001FFFFFFFFE0001FFFFFFFFE0000
0001FFFFFFFFE0001FFFFFFFFE0000
0001FFFFFFFFE0001FFFFFFFFC0000
0001FFFFFFFFE0001FFFFFFFFC0000
0001FFFFFFFFE0001FFFFFFFFC0000
0001FFFFFFFFE0001FFFFFFFFC0000
0001FFFFFFFFE0001FFFFFFFFC0000
0000FFFFFFFFE0001FFFFFFFFC0000
0000FFFFFFFFE0001FFFFFFFFC0000
0000FFFFFFFFE0001FFFFFFFFC0000
0000FFFFFFFFC0001FFFFFFFFC0000
0000FFFFFFFFC0000FFFFFFFFC0000
0000FFFFFFFFC0000FFFFFFFFC0000
0000FFFFFFFFC0000FFFFFFFF80000
0000FFFFFFFFC0000FFFFFFFF80000
0000FFFFFFFFC0000FFFFFFFF80000
00007FFFFFFFC0000FFFFFFFF80000
00007FFFFFFFC0000FFFFFFFF80000
00007FFFFFFFC0000FFFFFFFF80000
00007FFFFFFFC0000FFFFFFFF80000
00007FFFFFFFC0000FFFFFFFF80000
00007FFFFFFFC0000FFFFFFFF80000
00007FFFFFFF80000FFFFFFFF80000
00007FFFFFFF800007FFFFFFF80000
00007FFFFFFF800007FFFFFFF00000
00007FFFFFFF800007FFFFFFF00000
00003FFFFFFF800007FFFFFFF00000
00003FFFFFFF800007FFFFFFF00000
00003FFFFFFF800007FFFFFFF00000
00003FFFFFFF800007FFFFFFF00000
00003FFFFFFF800007FFFFFFF00000
00003FFFFFFF800007FFFFFFF00000
00003FFFFFFF800007FFFFFFF00000
00003FFFFFFF800007FFFFFFF00000
00003FFFFFFF800007FFFFFFF00000
ENDCHAR
STARTCHAR 0058
ENCODING 88
SWIDTH 373 0
DWIDTH 83 0
BBX 73 182 5 -1
BITMAP
7FFFFFF80001FFFFFF00
7FFFFFFC0003FFFFFF00
3FFFFFFC0003FFFFFF00
3FFFFFFC0003FFFFFE00
3FFFFFFC0003FFFFFE00
3FFFFFFC0003FFFFFE00
3FFFFFFC0003FFFFFE00
3FFFFFFC0003FFFFFE00
3FFFFFFC0003FFFFFE00
1FFFFFFC0003FFFFFC00
1FFFFFFE0003FFFFFC00
1FFFFFFE0007FFFFFC00
1FFFFFFE0007FFFFFC00
1FFFFFFE0007FFFFFC00
1FFFFFFE0007FFFFFC00
1FFFFFFE0007FFFFFC00
0FFFFFFE0007FFFFF800
0FFFFFFE0007FFFFF800
0FFFFFFF0007FFFFF800
0FFFFFFF0007FFFFF800
0FFFFFFF0007FFFFF800
0FFFFFFF000FFFFFF800
07FFFFFF000FFFFFF800
07FFFFFF000FFFFFF000
07FFFFFF000FFFFFF000
07FFFFFF000FFFFFF000
07FFFFFF000FFFFFF000
07FFFFFF800FFFFFF000
07FFFFFF800FFFFFF000
03FFFFFF800FFFFFF000
03FFFFFF800FFFFFE000
03FFFFFF800FFFFFE000
03FFFFFF801FFFFFE000
03FFFFFF801FFFFFE000
03FFFFFF801FFFFFE000
03FFFFFFC01FFFFFE000
01FFFFFFC01FFFFFE000
01FFFFFFC01FFFFFC000
01FFFFFFC01FFFFFC000
01FFFFFFC01FFFFFC000
01FFFFFFC01FFFFFC000
01FFFFFFC01FFFFFC000
00FFFFFFC03FFFFFC000
00FFFFFFE03FFFFF8000
00FFFFFFE03FFFFF8000
00FFFFFFE03FFFFF8000
00FFFFFFE03FFFFF8000
00FFFFFFE03FFFFF8000
00FFFFFFE03FFFFF8000
007FFFFFE03FFFFF8000
007FFFFFE03FFFFF0000
007FFFFFE03FFFFF0000
007FFFFFF07FFFFF0000
007FFFFFF07FFFFF0000
007FFFFFF07FFFFF0000
007FFFFFF07FFFFF0000
003FFFFFF07FFFFF0000
003FFFFFF07FFFFE0000
003FFFFFF07FFFFE0000
003FFFFFF07FFFFE0000
003FFFFFF87FFFFE0000
003FFFFFF87FFFFE0000
003FFFFFF87FFFFE0000
001FFFFFF8FFFFFE0000
001FFFFFF8FFFFFC0000
001FFFFFF8FFFFFC0000
001FFFFFFFFFFFFC0000
001FFFFFFFFFFFFC0000
001FFFFFFFFFFFFC0000
000FFFFFFFFFFFFC0000
000FFFFFFFFFFFFC0000
000FFFFFFFFFFFF80000
000FFFFFFFFFFFF80000
000FFFFFFFFFFFF80000
000FFFFFFFFFFFF80000
000FFFFFFFFFFFF80000
0007FFFFFFFFFFF80000
0007FFFFFFFFFFF80000
0007FFFFFFFFFFF00000
0007FFFFFFFFFFF00000
0007FFFFFFFFFFF00000
0007FFFFFFFFFFF00000
0007FFFFFFFFFFF00000
0003FFFFFFFFFFF00000
0003FFFFFFFFFFE00000
0003FFFFFFFFFFE00000
0003FFFFFFFFFFF00000
0007FFFFFFFFFFF00000
0007FFFFFFFFFFF00000
0007FFFFFFFFFFF00000
0007FFFFFFFFFFF00000
0007FFFFFFFFFFF00000
0007FFFFFFFFFFF00000
0007FFFFFFFFFFF80000
0007FFFFFFFFFFF80000
000FFFFFFFFFFFF80000
000FFFFFFFFFFFF80000
000FFFFFFFFFFFF80000
000FFFFFFFFFFFF80000
000FFFFFFFFFFFF80000
000FFFFFC7FFFFFC0000
000FFFFFC7FFFFFC0000
001FFFFFC7FFFFFC0000
001FFFFFC7FFFFFC0000
001FFFFFC3FFFFFC0000
001FFFFFC3FFFFFC0000
001FFFFFC3FFFFFC0000
001FFFFFC3FFFFFE0000
001FFFFF83FFFFFE0000
003FFFFF83FFFFFE0000
003FFFFF83FFFFFE0000
003FFFFF83FFFFFE0000
003FFFFF83FFFFFE0000
003FFFFF83FFFFFE0000
003FFFFF81FFFFFF0000
003FFFFF81FFFFFF0000
007FFFFF81FFFFFF0000
007FFFFF81FFFFFF0000
007FFFFF01FFFFFF0000
007FFFFF01FFFFFF0000
007FFFFF01FFFFFF8000
007FFFFF01FFFFFF8000
007FFFFF01FFFFFF8000
00FFFFFF01FFFFFF8000
00FFFFFF00FFFFFF8000
00FFFFFF00FFFFFF8000
00FFFFFF00FFFFFF8000
00FFFFFF00FFFFFFC000
00FFFFFF00FFFFFFC000
00FFFFFE00FFFFFFC000
01FFFFFE00FFFFFFC000
01FFFFFE00FFFFFFC000
01FFFFFE00FFFFFFC000
01FFFFFE00FFFFFFC000
01FFFFFE007FFFFFE000
01FFFFFE007FFFFFE000
01FFFFFE007FFFFFE000
01FFFFFE007FFFFFE000
03FFFFFE007FFFFFE000
03FFFFFC007FFFFFE000
03FFFFFC007FFFFFE000
03FFFFFC007FFFFFF000
03FFFFFC007FFFFFF000
03FFFFFC007FFFFFF000
03FFFFFC003FFFFFF000
07FFFFFC003FFFFFF000
07FFFFFC003FFFFFF000
07FFFFFC003FFFFFF000
07FFFFFC003FFFFFF800
07FFFFFC003FFFFFF800
07FFFFF8003FFFFFF800
07FFFFF8003FFFFFF800
0FFFFFF8003FFFFFF800
0FFFFFF8003FFFFFF800
0FFFFFF8001FFFFFF800
0FFFFFF8001FFFFFFC00
0FFFFFF8001FFFFFFC00
0FFFFFF8001FFFFFFC00
0FFFFFF8001FFFFFFC00
1FFFFFF8001FFFFFFC00
1FFFFFF0001FFFFFFC00
1FFFFFF0001FFFFFFC00
1FFFFFF0001FFFFFFE00
1FFFFFF0001FFFFFFE00
1FFFFFF0000FFFFFFE00
1FFFFFF0000FFFFFFE00
3FFFFFF0000FFFFFFE00
3FFFFFF0000FFFFFFE00
3FFFFFF0000FFFFFFE00
3FFFFFF0000FFFFFFF00
3FFFFFF0000FFFFFFF00
3FFFFFE0000FFFFFFF00
3FFFFFE0000FFFFFFF00
7FFFFFE0000FFFFFFF00
7FFFFFE00007FFFFFF00
7FFFFFE00007FFFFFF00
7FFFFFE00007FFFFFF80
7FFFFFE00007FFFFFF80
7FFFFFE00007FFFFFF80
7FFFFFE00007FFFFFF80
FFFFFFE00007FFFFFF80
FFFFFFE00007FFFFFF80
ENDCHAR
STARTCHAR 0059
ENCODING 89
SWIDTH 333 0
DWIDTH 74 0
BBX 72 182 1 -1
BITMAP
FFFFFFF00007FFFFFF
FFFFFFF00007FFFFFE
FFFFFFF00007FFFFFE
7FFFFFF0000FFFFFFE
7FFFFFF0000FFFFFFE
7FFFFFF0000FFFFFFE
7FFFFFF0000FFFFFFC
7FFFFFF0000FFFFFFC
3FFFFFF8000FFFFFFC
3FFFFFF8000FFFFFFC
3FFFFFF8000FFFFFFC
3FFFFFF8000FFFFFFC
1FFFFFF8000FFFFFF8
1FFFFFF8001FFFFFF8
1FFFFFF8001FFFFFF8
1FFFFFF8001FFFFFF8
1FFFFFF8001FFFFFF8
0FFFFFFC001FFFFFF0
0FFFFFFC001FFFFFF0
0FFFFFFC001FFFFFF0
0FFFFFFC001FFFFFF0
0FFFFFFC001FFFFFF0
07FFFFFC003FFFFFF0
07FFFFFC003FFFFFE0
07FFFFFC003FFFFFE0
07FFFFFC003FFFFFE0
03FFFFFE003FFFFFE0
03FFFFFE003FFFFFE0
03FFFFFE003FFFFFC0
03FFFFFE003FFFFFC0
03FFFFFE003FFFFFC0
01FFFFFE003FFFFFC0
01FFFFFE007FFFFFC0
01FFFFFE007FFFFFC0
01FFFFFE007FFFFF80
01FFFFFF007FFFFF80
00FFFFFF007FFFFF80
00FFFFFF007FFFFF80
00FFFFFF007FFFFF80
00FFFFFF007FFFFF00
00FFFFFF007FFFFF00
007FFFFF007FFFFF00
007FFFFF00FFFFFF00
007FFFFF00FFFFFF00
007FFFFF80FFFFFF00
003FFFFF80FFFFFE00
003FFFFF80FFFFFE00
003FFFFF80FFFFFE00
003FFFFF80FFFFFE00
003FFFFF80FFFFFE00
001FFFFF80FFFFFC00
001FFFFF81FFFFFC00
001FFFFF81FFFFFC00
001FFFFFC1FFFFFC00
001FFFFFC1FFFFFC00
000FFFFFC1FFFFFC00
000FFFFFC1FFFFF800
000FFFFFC1FFFFF800
000FFFFFC1FFFFF800
000FFFFFC1FFFFF800
0007FFFFC1FFFFF800
0007FFFFC3FFFFF000
0007FFFFE3FFFFF000
0007FFFFE3FFFFF000
0003FFFFE3FFFFF000
0003FFFFE3FFFFF000
0003FFFFE3FFFFF000
0003FFFFE3FFFFE000
0003FFFFE3FFFFE000
0001FFFFE3FFFFE000
0001FFFFE7FFFFE000
0001FFFFF7FFFFE000
0001FFFFF7FFFFC000
0001FFFFF7FFFFC000
0000FFFFF7FFFFC000
0000FFFFF7FFFFC000
0000FFFFF7FFFFC000
0000FFFFF7FFFFC000
00007FFFF7FFFF8000
00007FFFF7FFFF8000
00007FFFFFFFFF8000
00007FFFFFFFFF8000
00007FFFFFFFFF8000
00003FFFFFFFFF0000
00003FFFFFFFFF0000
00003FFFFFFFFF0000
00003FFFFFFFFF0000
00003FFFFFFFFF0000
00001FFFFFFFFF0000
00001FFFFFFFFE0000
00001FFFFFFFFE0000
00001FFFFFFFFE0000
00001FFFFFFFFE0000
00000FFFFFFFFE0000
00000FFFFFFFFC0000
00000FFFFFFFFC0000
00000FFFFFFFFC0000
000007FFFFFFFC0000
000007FFFFFFFC0000
000007FFFFFFFC0000
000007FFFFFFF80000
000007FFFFFFF80000
000003FFFFFFF80000
000003FFFFFFF80000
000003FFFFFFF80000
000003FFFFFFF00000
000003FFFFFFF00000
000001FFFFFFF00000
000001FFFFFFF00000
000001FFFFFFF00000
000001FFFFFFF00000
000001FFFFFFF00000
000001FFFFFFF00000
000001FFFFFFF00000
000001FFFFFFF00000
000001FFFFFFF00000
000001FFFFFFF00000
000001FFFFFFF00000
000001FFFFFFF00000
000001FFFFFFF00000
000001FFFFFFF00000
000001FFFFFFF00000
000001FFFFFFF00000
000001FFFFFFF00000
000001FFFFFFF00000
000001FFFFFFF00000
000001FFFFFFF00000
000001FFFFFFF00000
000001FFFFFFF00000
000001FFFFFFF00000
000001FFFFFFF00000
000001FFFFFFF00000
000001FFFFFFF00000
000001FFFFFFF00000
000001FFFFFFF00000
000001FFFFFFF00000
000001FFFFFFF00000
000001FFFFFFF00000
000001FFFFFFF00000
000001FFFFFFF00000
000001FFFFFFF00000
000001FFFFFFF00000
000001FFFFFFF00000
000001FFFFFFF00000
000001FFFFFFF00000
000001FFFFFFF00000
000001FFFFFFF00000
000001FFFFFFF00000
000001FFFFFFF00000
000001FFFFFFF00000
000001FFFFFFF00000
000001FFFFFFF00000
000001FFFFFFF00000
000001FFFFFFF00000
000001FFFFFFF00000
000001FFFFFFF00000
000001FFFFFFF00000
000001FFFFFFF00000
000001FFFFFFF00000
000001FFFFFFF00000
000001FFFFFFF00000
000001FFFFFFF00000
000001FFFFFFF00000
000001FFFFFFF00000
000001FFFFFFF00000
000001FFFFFFF00000
000001FFFFFFF00000
000001FFFFFFF00000
000001FFFFFFF00000
000001FFFFFFF00000
000001FFFFFFF00000
000001FFFFFFF00000
000001FFFFFFF00000
000001FFFFFFF00000
000001FFFFFFF00000
000001FFFFFFF00000
000001FFFFFFF00000
000001FFFFFFF00000
000001FFFFFFF00000
000001FFFFFFF00000
000001FFFFFFF00000
000001FFFFFFF00000
ENDCHAR
STARTCHAR 005A
ENCODING 90
SWIDTH 301 0
DWIDTH 67 0
BBX 55 182 5 -1
BITMAP
1FFFFFFFFFFFFE
1FFFFFFFFFFFFE
1FFFFFFFFFFFFE
1FFFFFFFFFFFFE
1FFFFFFFFFFFFE
1FFFFFFFFFFFFE
1FFFFFFFFFFFFE
1FFFFFFFFFFFFE
1FFFFFFFFFFFFE
1FFFFFFFFFFFFE
1FFFFFFFFFFFFE
1FFFFFFFFFFFFE
1FFFFFFFFFFFFE
1FFFFFFFFFFFFE
1FFFFFFFFFFFFE
1FFFFFFFFFFFFE
1FFFFFFFFFFFFE
1FFFFFFFFFFFFE
1FFFFFFFFFFFFE
1FFFFFFFFFFFFE
1FFFFFFFFFFFFE
1FFFFFFFFFFFFE
1FFFFFFFFFFFFE
0000003FFFFFFE
0000003FFFFFFE
0000003FFFFFFE
0000007FFFFFFE
0000007FFFFFFE
0000007FFFFFFE
0000007FFFFFFC
0000007FFFFFFC
000000FFFFFFFC
000000FFFFFFFC
000000FFFFFFFC
000000FFFFFFF8
000000FFFFFFF8
000001FFFFFFF8
000001FFFFFFF8
000001FFFFFFF8
000001FFFFFFF0
000001FFFFFFF0
000003FFFFFFF0
000003FFFFFFF0
000003FFFFFFF0
000003FFFFFFE0
000003FFFFFFE0
000003FFFFFFE0
000007FFFFFFE0
000007FFFFFFE0
000007FFFFFFE0
000007FFFFFFC0
000007FFFFFFC0
00000FFFFFFFC0
00000FFFFFFFC0
00000FFFFFFFC0
00000FFFFFFF80
00000FFFFFFF80
00001FFFFFFF80
00001FFFFFFF80
00001FFFFFFF80
00001FFFFFFF00
00001FFFFFFF00
00003FFFFFFF00
00003FFFFFFF00
00003FFFFFFF00
00003FFFFFFE00
00003FFFFFFE00
00007FFFFFFE00
00007FFFFFFE00
00007FFFFFFE00
00007FFFFFFC00
00007FFFFFFC00
0000FFFFFFFC00
0000FFFFFFFC00
0000FFFFFFFC00
0000FFFFFFF800
0000FFFFFFF800
0001FFFFFFF800
0001FFFFFFF800
0001FFFFFFF800
0001FFFFFFF000
0001FFFFFFF000
0001FFFFFFF000
0003FFFFFFF000
0003FFFFFFF000
0003FFFFFFE000
0003FFFFFFE000
0003FFFFFFE000
0007FFFFFFE000
0007FFFFFFE000
0007FFFFFFC000
0007FFFFFFC000
0007FFFFFFC000
000FFFFFFFC000
000FFFFFFFC000
000FFFFFFFC000
000FFFFFFF8000
000FFFFFFF8000
001FFFFFFF8000
001FFFFFFF8000
001FFFFFFF8000
001FFFFFFF0000
001FFFFFFF0000
003FFFFFFF0000
003FFFFFFF0000
003FFFFFFF0000
003FFFFFFE0000
003FFFFFFE0000
007FFFFFFE0000
007FFFFFFE0000
007FFFFFFE0000
007FFFFFFC0000
007FFFFFFC0000
00FFFFFFFC0000
00FFFFFFFC0000
00FFFFFFFC0000
00FFFFFFF80000
00FFFFFFF80000
00FFFFFFF80000
01FFFFFFF80000
01FFFFFFF80000
01FFFFFFF00000
01FFFFFFF00000
01FFFFFFF00000
03FFFFFFF00000
03FFFFFFF00000
03FFFFFFE00000
03FFFFFFE00000
03FFFFFFE00000
07FFFFFFE00000
07FFFFFFE00000
07FFFFFFC00000
07FFFFFFC00000
07FFFFFFC00000
0FFFFFFFC00000
0FFFFFFFC00000
0FFFFFFF800000
0FFFFFFF800000
0FFFFFFF800000
1FFFFFFF800000
1FFFFFFF800000
1FFFFFFF800000
1FFFFFFF000000
1FFFFFFF000000
3FFFFFFF000000
3FFFFFFF000000
3FFFFFFF000000
3FFFFFFE000000
3FFFFFFE000000
7FFFFFFE000000
7FFFFFFE000000
7FFFFFFE000000
7FFFFFFC000000
7FFFFFFC000000
7FFFFFFC000000
FFFFFFFC000000
FFFFFFFC000000
FFFFFFF8000000
FFFFFFFFFFFFFE
FFFFFFFFFFFFFE
FFFFFFFFFFFFFE
FFFFFFFFFFFFFE
FFFFFFFFFFFFFE
FFFFFFFFFFFFFE
FFFFFFFFFFFFFE
FFFFFFFFFFFFFE
FFFFFFFFFFFFFE
FFFFFFFFFFFFFE
FFFFFFFFFFFFFE
FFFFFFFFFFFFFE
FFFFFFFFFFFFFE
FFFFFFFFFFFFFE
FFFFFFFFFFFFFE
FFFFFFFFFFFFFE
FFFFFFFFFFFFFE
FFFFFFFFFFFFFE
FFFFFFFFFFFFFE
FFFFFFFFFFFFFE
FFFFFFFFFFFFFE
FFFFFFFFFFFFFE
FFFFFFFFFFFFFE
FFFFFFFFFFFFFE
ENDCHAR
STARTCHAR 005B
ENCODING 91
SWIDTH 220 0
DWIDTH 49 0
BBX 37 211 9 -30
BITMAP
FFFFFFFFF8
FFFFFFFFF8
FFFFFFFFF8
FFFFFFFFF8
FFFFFFFFF8
FFFFFFFFF8
FFFFFFFFF8
FFFFFFFFF8
FFFFFFFFF8
FFFFFFFFF8
FFFFFFFFF8
FFFFFFFFF8
FFFFFFFFF8
FFFFFFFFF8
FFFFFFFFF8
FFFFFFFFF8
FFFFFFFFF8
FFFFFFFFF8
FFFFFFFFF8
FFFFFFFFF8
FFFFFFFFF8
FFFFFFE000
FFFFFFE000
FFFFFFE000
FFFFFFE000
FFFFFFE000
FFFFFFE000
FFFFFFE000
FFFFFFE000
FFFFFFE000
FFFFFFE000
FFFFFFE000
FFFFFFE000
FFFFFFE000
FFFFFFE000
FFFFFFE000
FFFFFFE000
FFFFFFE000
FFFFFFE000
FFFFFFE000
FFFFFFE000
FFFFFFE000
FFFFFFE000
FFFFFFE000
FFFFFFE000
FFFFFFE000
FFFFFFE000
FFFFFFE000
FFFFFFE000
FFFFFFE000
FFFFFFE000
FFFFFFE000
FFFFFFE000
FFFFFFE000
FFFFFFE000
FFFFFFE000
FFFFFFE000
FFFFFFE000
FFFFFFE000
FFFFFFE000
FFFFFFE000
FFFFFFE000
FFFFFFE000
FFFFFFE000
FFFFFFE000
FFFFFFE000
FFFFFFE000
FFFFFFE000
FFFFFFE000
FFFFFFE000
FFFFFFE000
FFFFFFE000
FFFFFFE000
FFFFFFE000
FFFFFFE000
FFFFFFE000
FFFFFFE000
FFFFFFE000
FFFFFFE000
FFFFFFE000
FFFFFFE000
FFFFFFE000
FFFFFFE000
FFFFFFE000
FFFFFFE000
FFFFFFE000
FFFFFFE000
FFFFFFE000
FFFFFFE000
FFFFFFE000
FFFFFFE000
FFFFFFE000
FFFFFFE000
FFFFFFE000
FFFFFFE000
FFFFFFE000
FFFFFFE000
FFFFFFE000
FFFFFFE000
FFFFFFE000
FFFFFFE000
FFFFFFE000
FFFFFFE000
FFFFFFE000
FFFFFFE000
FFFFFFE000
FFFFFFE000
FFFFFFE000
FFFFFFE000
FFFFFFE000
FFFFFFE000
FFFFFFE000
FFFFFFE000
FFFFFFE000
FFFFFFE000
FFFFFFE000
FFFFFFE000
FFFFFFE000
FFFFFFE000
FFFFFFE000
FFFFFFE000
FFFFFFE000
FFFFFFE000
FFFFFFE000
FFFFFFE000
FFFFFFE000
FFFFFFE000
FFFFFFE000
FFFFFFE000
FFFFFFE000
FFFFFFE000
FFFFFFE000
FFFFFFE000
FFFFFFE000
FFFFFFE000
FFFFFFE000
FFFFFFE000
FFFFFFE000
FFFFFFE000
FFFFFFE000
FFFFFFE000
FFFFFFE000
FFFFFFE000
FFFFFFE000
FFFFFFE000
FFFFFFE000
FFFFFFE000
FFFFFFE000
FFFFFFE000
FFFFFFE000
FFFFFFE000
FFFFFFE000
FFFFFFE000
FFFFFFE000
FFFFFFE000
FFFFFFE000
FFFFFFE000
FFFFFFE000
FFFFFFE000
FFFFFFE000
FFFFFFE000
FFFFFFE000
FFFFFFE000
FFFFFFE000
FFFFFFE000
FFFFFFE000
FFFFFFE000
FFFFFFE000
FFFFFFE000
FFFFFFE000
FFFFFFE000
FFFFFFE000
FFFFFFE000
FFFFFFE000
FFFFFFE000
FFFFFFE000
FFFFFFE000
FFFFFFE000
FFFFFFE000
FFFFFFE000
FFFFFFE000
FFFFFFE000
FFFFFFE000
FFFFFFE000
FFFFFFE000
FFFFFFE000
FFFFFFE000
FFFFFFE000
FFFFFFE000
FFFFFFE000
FFFFFFFFF8
FFFFFFFFF8
FFFFFFFFF8
FFFFFFFFF8
FFFFFFFFF8
FFFFFFFFF8
FFFFFFFFF8
FFFFFFFFF8
FFFFFFFFF8
FFFFFFFFF8
FFFFFFFFF8
FFFFFFFFF8
FFFFFFFFF8
FFFFFFFFF8
FFFFFFFFF8
FFFFFFFFF8
FFFFFFFFF8
FFFFFFFFF8
FFFFFFFFF8
FFFFFFFFF8
FFFFFFFFF8
ENDCHAR
STARTCHAR 005C
ENCODING 92
SWIDTH 265 0
DWIDTH 59 0
BBX 56 202 1 -21
BITMAP
FFFE0000000000
FFFE0000000000
FFFE0000000000
FFFF0000000000
7FFF0000000000
7FFF0000000000
7FFF0000000000
7FFF8000000000
7FFF8000000000
3FFF8000000000
3FFF8000000000
3FFF8000000000
3FFFC000000000
3FFFC000000000
1FFFC000000000
1FFFC000000000
1FFFC000000000
1FFFE000000000
1FFFE000000000
0FFFE000000000
0FFFE000000000
0FFFE000000000
0FFFF000000000
0FFFF000000000
07FFF000000000
07FFF000000000
07FFF000000000
07FFF800000000
07FFF800000000
03FFF800000000
03FFF800000000
03FFF800000000
03FFFC00000000
01FFFC00000000
01FFFC00000000
01FFFC00000000
01FFFC00000000
01FFFE00000000
00FFFE00000000
00FFFE00000000
00FFFE00000000
00FFFE00000000
00FFFF00000000
007FFF00000000
007FFF00000000
007FFF00000000
007FFF80000000
007FFF80000000
003FFF80000000
003FFF80000000
003FFF80000000
003FFFC0000000
003FFFC0000000
001FFFC0000000
001FFFC0000000
001FFFC0000000
001FFFE0000000
001FFFE0000000
000FFFE0000000
000FFFE0000000
000FFFE0000000
000FFFF0000000
000FFFF0000000
0007FFF0000000
0007FFF0000000
0007FFF0000000
0007FFF8000000
0007FFF8000000
0003FFF8000000
0003FFF8000000
0003FFF8000000
0003FFFC000000
0001FFFC000000
0001FFFC000000
0001FFFC000000
0001FFFC000000
0001FFFE000000
0000FFFE000000
0000FFFE000000
0000FFFE000000
0000FFFE000000
0000FFFF000000
00007FFF000000
00007FFF000000
00007FFF000000
00007FFF800000
00007FFF800000
00003FFF800000
00003FFF800000
00003FFF800000
00003FFFC00000
00003FFFC00000
00001FFFC00000
00001FFFC00000
00001FFFC00000
00001FFFE00000
00001FFFE00000
00000FFFE00000
00000FFFE00000
00000FFFE00000
00000FFFF00000
00000FFFF00000
000007FFF00000
000007FFF00000
000007FFF00000
000007FFF80000
000007FFF80000
000003FFF80000
000003FFF80000
000003FFF80000
000003FFFC0000
000001FFFC0000
000001FFFC0000
000001FFFC0000
000001FFFC0000
000001FFFE0000
000000FFFE0000
000000FFFE0000
000000FFFE0000
000000FFFE0000
000000FFFF0000
0000007FFF0000
0000007FFF0000
0000007FFF0000
0000007FFF0000
0000007FFF8000
0000003FFF8000
0000003FFF8000
0000003FFF8000
0000003FFFC000
0000003FFFC000
0000001FFFC000
0000001FFFC000
0000001FFFC000
0000001FFFE000
0000001FFFE000
0000000FFFE000
0000000FFFE000
0000000FFFE000
0000000FFFF000
0000000FFFF000
00000007FFF000
00000007FFF000
00000007FFF000
00000007FFF800
00000007FFF800
00000003FFF800
00000003FFF800
00000003FFF800
00000003FFFC00
00000003FFFC00
00000001FFFC00
00000001FFFC00
00000001FFFC00
00000001FFFE00
00000000FFFE00
00000000FFFE00
00000000FFFE00
00000000FFFE00
00000000FFFF00
000000007FFF00
000000007FFF00
000000007FFF00
000000007FFF00
000000007FFF80
000000003FFF80
000000003FFF80
000000003FFF80
000000003FFFC0
000000003FFFC0
000000001FFFC0
000000001FFFC0
000000001FFFC0
000000001FFFE0
000000001FFFE0
000000000FFFE0
000000000FFFE0
000000000FFFE0
000000000FFFF0
000000000FFFF0
0000000007FFF0
0000000007FFF0
0000000007FFF0
0000000007FFF8
0000000007FFF8
0000000003FFF8
0000000003FFF8
0000000003FFF8
0000000003FFFC
0000000003FFFC
0000000001FFFC
0000000001FFFC
0000000001FFFC
0000000001FFFE
0000000000FFFE
0000000000FFFE
0000000000FFFE
0000000000FFFE
0000000000FFFF
00000000007FFF
00000000007FFF
00000000007FFF
ENDCHAR
STARTCHAR 005D
ENCODING 93
SWIDTH 225 0
DWIDTH 50 0
BBX 37 211 4 -30
BITMAP
FFFFFFFFF8
FFFFFFFFF8
FFFFFFFFF8
FFFFFFFFF8
FFFFFFFFF8
FFFFFFFFF8
FFFFFFFFF8
FFFFFFFFF8
FFFFFFFFF8
FFFFFFFFF8
FFFFFFFFF8
FFFFFFFFF8
FFFFFFFFF8
FFFFFFFFF8
FFFFFFFFF8
FFFFFFFFF8
FFFFFFFFF8
FFFFFFFFF8
FFFFFFFFF8
FFFFFFFFF8
FFFFFFFFF8
003FFFFFF8
003FFFFFF8
003FFFFFF8
003FFFFFF8
003FFFFFF8
003FFFFFF8
003FFFFFF8
003FFFFFF8
003FFFFFF8
003FFFFFF8
003FFFFFF8
003FFFFFF8
003FFFFFF8
003FFFFFF8
003FFFFFF8
003FFFFFF8
003FFFFFF8
003FFFFFF8
003FFFFFF8
003FFFFFF8
003FFFFFF8
003FFFFFF8
003FFFFFF8
003FFFFFF8
003FFFFFF8
003FFFFFF8
003FFFFFF8
003FFFFFF8
003FFFFFF8
003FFFFFF8
003FFFFFF8
003FFFFFF8
003FFFFFF8
003FFFFFF8
003FFFFFF8
003FFFFFF8
003FFFFFF8
003FFFFFF8
003FFFFFF8
003FFFFFF8
003FFFFFF8
003FFFFFF8
003FFFFFF8
003FFFFFF8
003FFFFFF8
003FFFFFF8
003FFFFFF8
003FFFFFF8
003FFFFFF8
003FFFFFF8
003FFFFFF8
003FFFFFF8
003FFFFFF8
003FFFFFF8
003FFFFFF8
003FFFFFF8
003FFFFFF8
003FFFFFF8
003FFFFFF8
003FFFFFF8
003FFFFFF8
003FFFFFF8
003FFFFFF8
003FFFFFF8
003FFFFFF8
003FFFFFF8
003FFFFFF8
003FFFFFF8
003FFFFFF8
003FFFFFF8
003FFFFFF8
003FFFFFF8
003FFFFFF8
003FFFFFF8
003FFFFFF8
003FFFFFF8
003FFFFFF8
003FFFFFF8
003FFFFFF8
003FFFFFF8
003FFFFFF8
003FFFFFF8
003FFFFFF8
003FFFFFF8
003FFFFFF8
003FFFFFF8
003FFFFFF8
003FFFFFF8
003FFFFFF8
003FFFFFF8
003FFFFFF8
003FFFFFF8
003FFFFFF8
003FFFFFF8
003FFFFFF8
003FFFFFF8
003FFFFFF8
003FFFFFF8
003FFFFFF8
003FFFFFF8
003FFFFFF8
003FFFFFF8
003FFFFFF8
003FFFFFF8
003FFFFFF8
003FFFFFF8
003FFFFFF8
003FFFFFF8
003FFFFFF8
003FFFFFF8
003FFFFFF8
003FFFFFF8
003FFFFFF8
003FFFFFF8
003FFFFFF8
003FFFFFF8
003FFFFFF8
003FFFFFF8
003FFFFFF8
003FFFFFF8
003FFFFFF8
003FFFFFF8
003FFFFFF8
003FFFFFF8
003FFFFFF8
003FFFFFF8
003FFFFFF8
003FFFFFF8
003FFFFFF8
003FFFFFF8
003FFFFFF8
003FFFFFF8
003FFFFFF8
003FFFFFF8
003FFFFFF8
003FFFFFF8
003FFFFFF8
003FFFFFF8
003FFFFFF8
003FFFFFF8
003FFFFFF8
003FFFFFF8
003FFFFFF8
003FFFFFF8
003FFFFFF8
003FFFFFF8
003FFFFFF8
003FFFFFF8
003FFFFFF8
003FFFFFF8
003FFFFFF8
003FFFFFF8
003FFFFFF8
003FFFFFF8
003FFFFFF8
003FFFFFF8
003FFFFFF8
003FFFFFF8
003FFFFFF8
003FFFFFF8
003FFFFFF8
003FFFFFF8
003FFFFFF8
003FFFFFF8
003FFFFFF8
003FFFFFF8
003FFFFFF8
003FFFFFF8
003FFFFFF8
FFFFFFFFF8
FFFFFFFFF8
FFFFFFFFF8
FFFFFFFFF8
FFFFFFFFF8
FFFFFFFFF8
FFFFFFFFF8
FFFFFFFFF8
FFFFFFFFF8
FFFFFFFFF8
FFFFFFFFF8
FFFFFFFFF8
FFFFFFFFF8
FFFFFFFFF8
FFFFFFFFF8
FFFFFFFFF8
FFFFFFFFF8
FFFFFFFFF8
FFFFFFFFF8
FFFFFFFFF8
FFFFFFFFF8
ENDCHAR
ENDFONT
